<svg width="124" height="124" viewBox="0 0 124 124" fill="none" xmlns="http://www.w3.org/2000/svg">
<rect width="120" height="120" fill="black" fill-opacity="0" transform="translate(2 2)"/>
<rect width="120" height="120" fill="black" fill-opacity="0" transform="translate(2 2)"/>
<rect width="104.633" height="92.3676" fill="black" fill-opacity="0" transform="translate(6.23303 29.6323)"/>
<path d="M97.567 37.3304L59.1134 29.9141C51.4845 28.4721 44.9897 32.6952 43.9588 39.5965C44.0619 39.5965 44.0619 39.5965 44.165 39.4935C45.7113 33.2103 51.8969 29.5021 59.1134 30.8412H59.3196C60.4536 31.0472 60.6598 32.6952 59.6289 33.2103C54.6804 35.5794 51.2784 40.8326 51.3815 46.7038L53.7526 121.279C54.8866 121.382 55.9175 121.588 57.0516 121.588L54.268 50.515C54.165 46.8068 57.0516 44.2317 60.6598 44.6437L99.8351 49.6909C103.031 50.103 105.608 53.1931 105.608 56.5922V102.944C107.155 101.296 108.598 99.648 109.938 97.897L110.144 52.5751C110.144 45.6738 104.577 38.6695 97.567 37.3304Z" fill="white"/>
<path d="M99.9382 49.8968L60.7629 44.8496C57.1547 44.3346 54.2681 47.0127 54.3711 50.7209L57.1547 121.794C58.8041 121.897 60.4536 122 62.1031 122C79.3196 122 94.7835 114.79 105.711 103.15V56.7981C105.711 53.399 103.134 50.3088 99.9382 49.8968Z" fill="#F5F2EB"/>
<path d="M43.8557 93.8799V93.7769L43.9587 119.219L43.8557 93.8799Z" fill="#87CDDC"/>
<path d="M43.9588 119.219C44.1648 119.322 44.3708 119.322 44.5768 119.425L43.9588 93.8799V119.219Z" fill="#87CDDC"/>
<path d="M59.6289 33.3133C60.7629 32.7982 60.5567 31.1502 59.3196 30.9442H59.1134C51.8969 29.5021 45.7114 33.3133 44.165 39.5965C44.2681 39.5965 44.3712 39.5965 44.4743 39.5965C45.5052 39.5965 46.433 40.4206 46.5361 41.5536L48.4949 120.558C50.2474 120.97 52 121.279 53.8557 121.588L51.4846 46.8068C51.2784 40.9356 54.6804 35.6824 59.6289 33.3133Z" fill="#87CDDC"/>
<path d="M43.8557 42.5836V41.5535C43.8557 40.8325 43.9588 40.2145 44.0619 39.5964C43.2371 39.8024 42.6186 40.6265 42.7217 41.5535L44.0619 93.7767L43.8557 42.5836Z" fill="#73B1BD"/>
<path d="M43.8556 42.5836C43.8556 41.5535 43.9586 40.5235 44.1646 39.5964C44.0616 39.5964 44.0616 39.5964 43.9586 39.6994C43.8556 40.3175 43.7526 40.9355 43.7526 41.6565L43.8556 42.5836Z" fill="#73B1BD"/>
<path d="M43.8557 42.5837L43.9587 93.7769V93.8799L43.8557 42.5837Z" fill="#73B1BD"/>
<path d="M44.4742 39.4934C44.3711 39.4934 44.2681 39.4934 44.165 39.4934C43.9588 40.4204 43.8557 41.4505 43.8557 42.4805L43.9588 93.7767L44.5773 119.322C45.9175 119.734 47.1547 120.043 48.4949 120.352L46.5361 41.3475C46.5361 40.4204 45.6083 39.4934 44.4742 39.4934Z" fill="#73B1BD"/>
<path d="M72.3093 67.0987L63.6495 68.1287C60.7629 68.4377 58.3918 66.8927 58.3918 64.2146L58.5979 57.5193C58.701 53.6051 62.4124 50 66.5361 50.103L78.3918 50.412C81.4845 50.515 82.5155 53.5021 81.0722 56.7983L78.3918 62.5665C77.3608 64.9356 74.6804 66.7897 72.3093 67.0987Z" fill="#87CDDC"/>
<path d="M93.8557 69.4678L101.278 70.6009C103.65 71.0129 105.814 69.4678 106.021 67.0987L106.639 61.1245C106.948 57.8283 104.577 54.5322 101.381 54.3262L91.3815 53.7082C88.598 53.5022 87.0516 56.1803 87.7732 59.2704L89.1134 64.8326C89.6289 67.2017 91.7938 69.1588 93.8557 69.4678Z" fill="#87CDDC"/>
<path opacity="0.2" d="M90.1443 71.94L90.2474 74.2061C90.2474 74.7211 89.8351 75.2361 89.3196 75.2361L81.5876 75.4421C81.0722 75.4421 80.5567 75.0301 80.5567 74.5151L80.4536 72.249C80.4536 71.734 80.866 71.2189 81.3815 71.2189L89.1134 71.0129C89.732 71.0129 90.1443 71.425 90.1443 71.94Z" fill="#433E36"/>
<rect width="61.2305" height="62.3176" fill="black" fill-opacity="0" transform="translate(49.6355 30.6353)"/>
<rect width="61.2305" height="62.3176" fill="black" fill-opacity="0" transform="translate(49.6355 30.6353)"/>
<path d="M110.454 83.8885C110.866 77.8112 110.866 71.631 110.866 65.4507C110.866 62.3606 110.763 59.1674 110.66 56.0773C110.557 53.5022 110.557 50.9271 110.144 48.455C109.732 46.2919 109.01 44.1288 107.464 42.3777C105.918 40.6267 103.856 39.5966 101.691 38.7726C96.433 36.6095 90.9691 35.0644 85.4021 33.7254C79.9382 32.4893 74.4743 31.5623 68.9072 31.0473C66.1237 30.8413 63.2371 30.6353 60.4536 30.6353C58.4949 30.6353 56.3299 30.8413 54.5773 31.7683C52.6186 32.7983 51.6907 34.7554 51.0722 36.8155C50.3505 39.4936 49.9382 42.1717 49.732 44.9529C49.4227 50.6181 49.9382 56.2833 50.1443 61.9486C50.4536 72.043 50.2474 82.2404 50.2474 92.3348C50.2474 93.1589 51.5876 93.1589 51.5876 92.3348C51.5876 83.9915 51.7938 75.6481 51.5876 67.2018C51.4846 62.3606 51.2784 57.6224 51.1753 52.7812C50.9691 47.425 50.9691 41.7597 52.6186 36.6095C53.4433 34.1374 54.9897 32.7983 57.567 32.2833C59.8351 31.8713 62.3093 32.0773 64.6804 32.1803C70.1444 32.4893 75.6083 33.1074 80.9691 34.1374C86.2268 35.1674 91.3815 36.5065 96.433 38.1546C101.072 39.6996 106.639 41.2447 108.289 46.4979C109.217 49.176 109.217 51.9571 109.32 54.7383C109.423 57.9314 109.526 61.1245 109.526 64.3177C109.629 70.8069 109.423 77.2962 109.526 83.7855C109.629 84.4035 110.351 84.4035 110.454 83.8885Z" fill="#69655E"/>
<rect width="10.6443" height="88.4807" fill="black" fill-opacity="0" transform="translate(42.7216 30.3262)"/>
<rect width="10.6443" height="88.4807" fill="black" fill-opacity="0" transform="translate(42.7216 30.3262)"/>
<path d="M52.8247 30.3262C47.9794 30.3262 44.5773 34.6524 43.5464 38.9785C42.8247 41.6566 42.8247 44.4378 42.8247 47.2189C42.8247 50.515 42.8247 53.8112 42.7216 57.1073C42.7216 70.0858 42.7216 83.0644 43.0309 96.0429C43.134 103.459 43.4433 110.773 43.6495 118.189C43.6495 119.013 44.8866 119.013 44.8866 118.189C44.4742 105.828 44.268 93.5708 44.1649 81.3133C44.0619 69.2618 43.9588 57.2103 44.1649 45.2618C44.268 39.6996 45.9175 31.7682 52.8247 31.3562C53.5464 31.2532 53.5464 30.3262 52.8247 30.3262Z" fill="#69655E"/>
<rect width="23.9977" height="19.9208" fill="black" fill-opacity="0" transform="translate(57.6443 48.5579)"/>
<rect width="23.9977" height="19.9208" fill="black" fill-opacity="0" transform="translate(57.6443 48.5579)"/>
<path d="M80.6598 52.678C81.2784 50.721 77.7732 49.9999 76.5361 49.6909C73.8557 48.9699 70.9691 48.5579 68.1856 48.5579C64.0619 48.5579 58.701 49.5879 57.7732 54.4291C57.6701 55.6652 57.6701 56.9012 57.6701 58.0343C57.6701 59.4763 57.567 60.9184 57.7732 62.2574C57.9794 64.2145 58.4949 66.1716 60.2474 67.3046C62.2062 68.5407 64.9897 68.5407 67.2578 68.4377C69.6289 68.2317 72 67.6137 74.165 66.4806C78.9072 64.0085 82.1031 58.8583 81.5876 53.3991C81.4846 52.472 80.0413 52.472 80.1444 53.3991C80.5567 57.3132 78.8041 61.1244 75.8145 63.6995C72.7217 66.2746 68.4949 67.2016 64.5773 66.9956C62.4124 66.7896 60.4536 66.2746 59.732 64.0085C59.1134 62.1544 59.3196 59.9913 59.3196 58.1373C59.3196 56.0772 59.1134 53.8111 60.6598 52.266C62 50.927 63.9588 50.4119 65.7114 50.2059C67.9794 49.8969 70.3505 49.9999 72.6186 50.3089C73.8557 50.5149 75.0928 50.7209 76.3299 51.03C76.9485 51.236 79.8351 51.648 79.9382 52.575C79.8351 53.09 80.5567 53.1931 80.6598 52.678Z" fill="#69655E"/>
<rect width="5.83761" height="1.67603" fill="black" fill-opacity="0" transform="translate(82.1558 52.4514)"/>
<rect width="5.83761" height="1.67603" fill="black" fill-opacity="0" transform="translate(82.1558 52.4514)"/>
<path d="M82.9279 54.1202C84.3711 53.8112 85.7114 53.8112 87.1547 54.0172C87.9794 54.1202 88.3918 52.9872 87.4639 52.7812C85.9175 52.2662 84.0619 52.3692 82.5155 52.9872C81.8969 53.1932 82.1031 54.2232 82.9279 54.1202Z" fill="#69655E"/>
<rect width="4.92268" height="1.33906" fill="black" fill-opacity="0" transform="translate(82.2578 55.8711)"/>
<rect width="4.92268" height="1.33906" fill="black" fill-opacity="0" transform="translate(82.2578 55.8711)"/>
<path d="M82.7217 56.9011C84.0619 57.0041 85.299 57.2102 86.6392 57.2102C87.3608 57.2102 87.3608 56.1801 86.6392 56.0771C85.299 55.9741 84.0619 55.8711 82.7217 55.8711C82.1031 55.8711 82.1031 56.9011 82.7217 56.9011Z" fill="#69655E"/>
<rect width="6.61348" height="2.90165" fill="black" fill-opacity="0" transform="translate(50.8202 52.6719)"/>
<rect width="6.61348" height="2.90165" fill="black" fill-opacity="0" transform="translate(50.8202 52.6719)"/>
<path d="M51.2783 55.5621C52.2062 55.5621 53.134 55.0471 53.9588 54.841C54.8866 54.532 55.9175 54.223 56.9485 54.017C57.7732 53.811 57.4639 52.575 56.6392 52.678C55.6082 52.884 54.4742 53.193 53.4433 53.605C52.6186 53.914 51.6907 54.223 50.9691 54.738C50.6598 55.0471 50.866 55.6651 51.2783 55.5621Z" fill="#69655E"/>
<rect width="4.01761" height="1.47393" fill="black" fill-opacity="0" transform="translate(106.224 59.7534)"/>
<rect width="4.01761" height="1.47393" fill="black" fill-opacity="0" transform="translate(106.224 59.7534)"/>
<path d="M106.742 61.0213C107.773 61.0213 108.701 61.2273 109.629 61.2273C110.351 61.2273 110.454 60.1973 109.835 59.9913C108.804 59.5793 107.67 59.7853 106.639 59.9913C106.021 60.0943 106.124 61.0213 106.742 61.0213Z" fill="#69655E"/>
<rect width="19.0994" height="18.9181" fill="black" fill-opacity="0" transform="translate(87.5398 52.575)"/>
<rect width="19.0994" height="18.9181" fill="black" fill-opacity="0" transform="translate(87.5398 52.575)"/>
<path d="M90.2474 53.708C92.7217 53.811 95.299 54.017 97.7732 54.532C99.732 54.9441 102.206 55.2531 103.959 56.3861C105.711 57.6222 105.402 60.3003 105.299 62.1544C105.196 63.9054 104.99 65.8625 104.062 67.4076C101.588 71.7338 96.1237 70.1887 93.1341 67.4076C90.2475 64.6265 88.598 60.5063 89.1134 56.4891C89.2165 55.5621 87.7732 55.1501 87.6701 56.0771C87.1547 59.7853 88.1856 63.4934 90.4536 66.5835C92.6186 69.4677 96.1237 71.9398 99.9382 71.4247C103.443 71.0127 105.505 68.3346 106.227 65.1415C106.639 63.3904 106.639 61.5363 106.639 59.7853C106.639 58.1372 106.33 56.4891 104.99 55.4591C103.237 54.017 100.557 53.708 98.3918 53.296C95.7114 52.781 93.031 52.575 90.2474 52.575C89.5258 52.678 89.5258 53.708 90.2474 53.708Z" fill="#69655E"/>
<rect width="21.624" height="8.00507" fill="black" fill-opacity="0" transform="translate(72.9131 67.3723)"/>
<path d="M84.5767 70.2919C84.6798 68.9528 83.0303 67.7168 81.7932 68.2318C81.1746 68.4378 80.7623 68.9528 80.2468 69.3648C79.2159 70.1889 77.9788 70.9099 76.6386 70.8069C75.2984 70.7039 73.9581 69.7768 73.8551 68.4378C73.1334 70.3949 74.1643 72.661 76.02 73.794C77.7726 74.9271 80.0406 74.8241 81.9994 74.103C83.6489 73.382 85.4015 72.146 87.154 72.867C88.185 73.279 88.9066 74.412 90.0406 74.7211C91.587 75.1331 92.9272 73.897 93.9582 72.764C92.9272 73.176 91.6901 73.073 90.7623 72.352C90.1437 71.8369 89.7313 71.0129 89.2159 70.2919C88.7004 69.5708 88.0819 68.8498 87.2571 68.7468C86.4324 68.6438 85.4015 69.1588 85.5045 69.9829" fill="#777777"/>
<rect width="21.624" height="8.00507" fill="black" fill-opacity="0" transform="translate(72.9131 67.3723)"/>
<path d="M85.1959 70.2918C85.299 68.4378 83.4433 66.8927 81.5876 67.5107C80.4536 67.8197 79.732 68.8498 78.8041 69.4678C77.3608 70.2918 74.9897 70.2918 74.5773 68.2318C74.4742 67.5107 73.3402 67.6137 73.134 68.2318C72.5155 70.1888 73.2371 72.3519 74.7835 73.691C76.5361 75.236 79.0103 75.6481 81.1753 75.03C82.4124 74.721 83.5464 74 84.6804 73.588C86.433 72.97 87.2577 73.794 88.5979 74.721C90.7629 76.2661 92.8247 74.824 94.3711 73.073C94.7835 72.6609 94.3711 71.7339 93.7526 71.9399C90.6598 73.073 90.3505 69.1588 88.1856 68.1287C86.7423 67.4077 84.8866 68.2318 84.8866 69.9828C84.8866 70.9099 86.3299 70.9099 86.3299 69.9828C86.3299 68.8498 87.6701 69.4678 88.0825 69.7768C88.3918 70.0858 88.701 70.4979 88.9072 70.8069C89.3196 71.4249 89.732 72.1459 90.4536 72.6609C91.4845 73.485 92.9278 73.588 94.165 73.176C93.9588 72.7639 93.7526 72.4549 93.5464 72.0429C92.7217 72.8669 91.4845 74.103 90.2474 73.794C89.3196 73.588 88.701 72.6609 87.8763 72.1459C86.433 71.3219 84.8866 71.8369 83.4433 72.4549C81.4845 73.382 79.5258 74.206 77.3608 73.485C75.299 72.7639 74.0619 70.7039 74.6804 68.5408C74.165 68.5408 73.7526 68.5408 73.2371 68.5408C73.5464 70.6009 75.7113 71.7339 77.7732 71.4249C78.9072 71.2189 79.9382 70.7039 80.7629 69.9828C81.2784 69.5708 81.8969 68.8498 82.6186 68.8498C83.4433 68.8498 84.0619 69.6738 84.165 70.3948C84.165 71.2189 85.1959 71.0129 85.1959 70.2918Z" fill="#69655E"/>
<rect width="18.111" height="15.2361" fill="black" fill-opacity="0" transform="translate(30.5242 86.1846)"/>
<rect width="18.111" height="15.2361" fill="black" fill-opacity="0" transform="translate(30.5242 86.1846)"/>
<path d="M30.5567 86.9786C31.5876 89.3477 32.6186 91.6138 33.8557 93.8799C34.5773 95.2189 35.4021 96.558 36.5361 97.588C39.5258 100.163 44.0619 100.575 47.7732 101.399C48.598 101.605 49.0103 100.266 48.1856 100.06C45.8145 99.5451 43.5464 99.1331 41.2784 98.5151C39.9382 98.103 38.4949 97.588 37.3608 96.558C36.2268 95.5279 35.5052 94.1889 34.7835 92.9528C33.6495 90.7897 32.7217 88.6266 31.5876 86.4636C31.1753 85.8455 30.3505 86.3606 30.5567 86.9786Z" fill="#69655E"/>
<rect width="5.89361" height="8.16692" fill="black" fill-opacity="0" transform="translate(63.3106 54.4993)"/>
<rect width="5.89361" height="8.16692" fill="black" fill-opacity="0" transform="translate(63.3106 54.4993)"/>
<path d="M68.3918 54.6351C66.2268 56.5922 64.3712 59.2703 63.3402 61.9485C63.134 62.5665 64.0619 62.9785 64.3712 62.3605C65.7114 59.7854 67.0516 57.4163 69.0103 55.2532C69.5258 54.8412 68.9073 54.2231 68.3918 54.6351Z" fill="#73B1BD"/>
<rect width="4.2405" height="6.05367" fill="black" fill-opacity="0" transform="translate(67.1544 56.8948)"/>
<rect width="4.2405" height="6.05367" fill="black" fill-opacity="0" transform="translate(67.1544 56.8948)"/>
<path d="M70.7629 57.0042C69.5258 58.6523 68.3917 60.4034 67.2577 62.1544C66.8454 62.7725 67.7732 63.2875 68.1856 62.6695C69.3196 60.9184 70.4536 59.2703 71.3814 57.4162C71.4845 57.1072 70.9691 56.6952 70.7629 57.0042Z" fill="#73B1BD"/>
<rect width="3.5535" height="5.56288" fill="black" fill-opacity="0" transform="translate(94.0971 59.4458)"/>
<rect width="3.5535" height="5.56288" fill="black" fill-opacity="0" transform="translate(94.0971 59.4458)"/>
<path d="M96.8454 59.6825C95.9175 61.1245 94.8866 62.6696 94.165 64.2147C93.8557 64.8327 94.6804 65.3477 95.0928 64.7297C96.0206 63.2876 96.9485 61.7426 97.567 60.0945C97.8763 59.5795 97.2577 59.1675 96.8454 59.6825Z" fill="#73B1BD"/>
<rect width="2.8327" height="5.50108" fill="black" fill-opacity="0" transform="translate(97.8683 60.8306)"/>
<rect width="2.8327" height="5.50108" fill="black" fill-opacity="0" transform="translate(97.8683 60.8306)"/>
<path d="M99.9382 61.0215C99.0103 62.3605 98.0825 64.0086 97.8763 65.6567C97.7732 66.3777 98.7011 66.5837 98.9072 65.9657C99.4227 64.4206 99.9382 62.9786 100.66 61.4335C100.866 60.9185 100.247 60.6095 99.9382 61.0215Z" fill="#73B1BD"/>
<rect width="10.4095" height="3.23433" fill="black" fill-opacity="0" transform="translate(78.0682 38.761)"/>
<rect width="10.4095" height="3.23433" fill="black" fill-opacity="0" transform="translate(78.0682 38.761)"/>
<path d="M78.2887 39.3905C81.4846 40.2146 84.6805 40.9356 87.8763 41.9657C88.4949 42.1717 88.7011 41.2446 88.1856 41.0386C85.0928 39.9056 81.6908 38.8755 78.3918 38.7725C77.9794 38.6695 77.9794 39.2875 78.2887 39.3905Z" fill="#C6C0B6"/>
<rect width="15.0617" height="17.1759" fill="black" fill-opacity="0" transform="translate(21.0686 71.0823)"/>
<rect width="15.0617" height="17.1759" fill="black" fill-opacity="0" transform="translate(21.0686 71.0823)"/>
<path d="M29.0103 73.691C29.9382 73.2789 31.6907 72.3519 32.6186 72.6609C34.7835 73.3819 34.7835 76.8841 33.134 78.0171C32.7217 78.3262 32.6186 78.8412 32.9278 79.2532C37.9794 83.6824 27.8763 89.9656 24.3711 83.9914C22.7217 81.2103 22.2062 76.5751 23.3402 73.588C23.7526 72.6609 22.2062 72.2489 21.7938 73.1759C20.1443 77.3991 21.2784 85.0214 25.5052 87.4935C27.9794 88.9356 31.6907 88.2146 33.8557 86.3605C35.0928 85.2274 36.2268 82.8583 36.1237 81.2103C36.0206 79.9742 34.8866 78.9442 33.9588 78.2232C33.8557 78.6352 33.8557 79.0472 33.7526 79.4592C34.5773 78.9442 35.6083 78.2232 35.9175 77.1931C36.3299 75.8541 35.299 73.485 34.4742 72.3519C32.8247 70.0858 30.1443 71.3219 28.0825 72.4549C27.3608 72.7639 28.0825 74.103 29.0103 73.691Z" fill="#69655E"/>
<rect width="8.93" height="12.0607" fill="black" fill-opacity="0" transform="translate(18.1216 62.0042)"/>
<rect width="8.93" height="12.0607" fill="black" fill-opacity="0" transform="translate(18.1216 62.0042)"/>
<path d="M23.5464 73.279C23.7526 71.8369 23.2371 70.6009 22.4124 69.4678C21.6907 68.3348 20.2474 67.3047 19.8351 66.0687C19.6289 65.1416 20.0412 64.2146 20.866 63.8026C22 63.2876 22.9278 64.0086 23.5464 64.9356C24.7835 66.5837 25.4021 68.8498 25.5052 70.9099C25.5052 71.9399 27.0515 71.9399 27.0515 70.9099C26.9485 67.8198 24.0619 59.2704 19.5258 62.8755C15.1959 66.3777 22.3093 69.5708 21.7938 73.382C21.8969 74.309 23.4433 74.309 23.5464 73.279Z" fill="#69655E"/>
<rect width="4.36274" height="6.19991" fill="black" fill-opacity="0" transform="translate(12.9981 53.5286)"/>
<rect width="4.36274" height="6.19991" fill="black" fill-opacity="0" transform="translate(12.9981 53.5286)"/>
<path d="M17.3608 58.7553C17.2578 57.9313 16.7423 57.3132 16.433 56.4892C16.0206 55.7682 15.8145 55.0471 15.4021 54.2231C14.6804 52.7811 12.7217 53.8111 13.0309 55.2532C13.2371 56.1802 13.6495 57.0042 14.165 57.8283C14.6804 58.5493 15.1959 59.3733 16.1237 59.6823C16.6392 59.8883 17.3608 59.3733 17.3608 58.7553Z" fill="#F3CD50"/>
<rect width="2.00212" height="5.27003" fill="black" fill-opacity="0" transform="translate(20.0268 52.2295)"/>
<rect width="2.00212" height="5.27003" fill="black" fill-opacity="0" transform="translate(20.0268 52.2295)"/>
<path d="M21.8969 56.5923C21.8969 55.3563 22.1031 54.1202 22 52.8842C21.8969 52.1631 20.9691 51.9571 20.7629 52.6782C20.4536 53.9142 20.2474 55.1503 20.0413 56.3863C19.8351 57.7254 21.8969 57.9314 21.8969 56.5923Z" fill="#F3CD50"/>
<rect width="4.74113" height="5.92216" fill="black" fill-opacity="0" transform="translate(23.1716 52.5991)"/>
<rect width="4.74113" height="5.92216" fill="black" fill-opacity="0" transform="translate(23.1716 52.5991)"/>
<path d="M24.5773 58.1373C25.1959 57.3133 25.8144 56.4892 26.3299 55.5622C26.8454 54.7381 27.4639 54.0171 27.8763 53.1931C28.0825 52.6781 27.3608 52.4721 27.0516 52.6781C26.3299 53.2961 25.7113 54.1201 25.1959 54.9442C24.5773 55.6652 23.9588 56.4892 23.3402 57.2103C22.7217 58.1373 23.9588 59.0643 24.5773 58.1373Z" fill="#F3CD50"/>
<rect width="8.87194" height="3.04455" fill="black" fill-opacity="0" transform="translate(6.23303 62.2305)"/>
<rect width="8.87194" height="3.04455" fill="black" fill-opacity="0" transform="translate(6.23303 62.2305)"/>
<path d="M15.0928 64.2145C14.8866 62.7724 12.6186 62.4634 11.4845 62.3604C9.83506 62.1544 7.97939 62.0514 6.63919 63.1844C6.02063 63.5964 6.12372 64.5235 6.84537 64.7295C8.59795 65.3475 10.4536 65.0385 12.3093 65.1415C12.8248 65.2445 15.299 65.6565 15.0928 64.2145Z" fill="#F3CD50"/>
<rect width="5.8212" height="4.2548" fill="black" fill-opacity="0" transform="translate(9.57001 66.3237)"/>
<rect width="5.8212" height="4.2548" fill="black" fill-opacity="0" transform="translate(9.57001 66.3237)"/>
<path d="M13.8557 66.3778C12.5155 66.7898 11.2784 67.4078 10.1444 68.1288C8.80415 69.0559 10.0413 71.219 11.4846 70.3949C12.5155 69.7769 13.6495 69.1589 14.7835 68.6438C16.0206 68.0258 15.1959 65.9657 13.8557 66.3778Z" fill="#F3CD50"/>
<path d="M62 121.897C95.1371 121.897 122 95.0571 122 61.9485C122 28.8399 95.1371 2 62 2C28.8629 2 2 28.8399 2 61.9485C2 95.0571 28.8629 121.897 62 121.897Z" stroke="#F3CD50" stroke-width="4" stroke-miterlimit="10"/>
</svg>
