<?xml version="1.0" standalone="no"?>
<!DOCTYPE svg PUBLIC "-//W3C//DTD SVG 20010904//EN"
 "http://www.w3.org/TR/2001/REC-SVG-20010904/DTD/svg10.dtd">
<svg version="1.0" xmlns="http://www.w3.org/2000/svg"
 width="260.000000pt" height="260.000000pt" viewBox="0 0 260.000000 260.000000"
 preserveAspectRatio="xMidYMid meet">
<metadata>
Created by potrace 1.11, written by Peter Selinger 2001-2013
</metadata>
<g transform="translate(0.000000,260.000000) scale(0.100000,-0.100000)"
fill="#000000" stroke="none">
<path d="M1201 2584 c-112 -40 -192 -125 -217 -234 -4 -19 -8 -227 -8 -462
l-1 -426 -225 -225 c-124 -123 -233 -233 -242 -244 -17 -18 -12 -19 222 -18
132 0 241 -3 241 -7 1 -4 2 -11 3 -15 1 -5 5 -26 10 -48 18 -92 83 -175 173
-221 l58 -29 570 0 570 0 55 26 c70 33 126 89 159 159 l26 55 0 730 0 730 -26
55 c-34 71 -89 126 -158 159 l-56 26 -555 2 c-479 2 -561 0 -599 -13z"/>
<path d="M257 2265 c-29 -6 -68 -19 -87 -29 -48 -25 -118 -100 -144 -155 -21
-46 -21 -49 -23 -936 l-2 -890 29 -63 c34 -74 82 -122 159 -159 l56 -28 405 0
405 0 55 26 c71 34 127 90 159 159 22 48 26 72 29 178 l4 122 -81 -2 c-66 -1
-81 -4 -82 -17 0 -9 -1 -52 0 -96 0 -96 -21 -148 -76 -185 l-37 -25 -360 -1
c-415 -1 -430 1 -482 81 -18 28 -19 59 -21 870 -1 527 3 855 9 880 12 48 50
91 93 105 17 6 143 11 288 12 l257 1 1 24 c0 13 1 41 1 63 0 22 -1 48 -1 58
-1 16 -20 17 -252 17 -139 0 -273 -4 -302 -10z"/>
<path d="M515 1925 c-33 -32 -34 -83 -2 -113 21 -20 34 -22 138 -22 108 0 117
2 137 23 30 32 29 81 -3 112 -23 24 -31 25 -135 25 -104 0 -112 -1 -135 -25z"/>
<path d="M534 478 c-48 -26 -59 -88 -24 -126 24 -25 17 -24 135 -26 126 -3
164 15 165 76 1 69 -33 87 -162 86 -52 0 -103 -5 -114 -10z"/>
</g>
</svg>
