<svg width="24" height="24" viewBox="0 0 24 24" version="1.1" xmlns="http://www.w3.org/2000/svg" xmlns:xlink="http://www.w3.org/1999/xlink">
<path d="M 19.2208 15.2113L 0.779221 15.2113C 0.572559 15.2113 0.374361 15.1311 0.228228 14.9885C 0.0820961 14.8459 0 14.6524 0 14.4507L 0 0.760563C 0 0.558849 0.0820961 0.365397 0.228228 0.222764C 0.374361 0.0801305 0.572559 0 0.779221 0L 19.2208 0C 19.4274 0 19.6256 0.0801305 19.7718 0.222764C 19.9179 0.365397 20 0.558849 20 0.760563L 20 14.4507C 20 14.6524 19.9179 14.8459 19.7718 14.9885C 19.6256 15.1311 19.4274 15.2113 19.2208 15.2113ZM 1.55844 13.6901L 18.4416 13.6901L 18.4416 1.52113L 1.55844 1.52113L 1.55844 13.6901Z" transform="translate(2 5.7887)"/>
<path d="M 8.31169 4.30986L 0.779221 4.30986C 0.572559 4.30986 0.374361 4.22973 0.228229 4.0871C 0.0820966 3.94446 0 3.75101 0 3.5493L 0 0.760563C 0 0.558849 0.0820966 0.365397 0.228229 0.222764C 0.374361 0.0801305 0.572559 0 0.779221 0L 8.31169 0C 8.51835 0 8.71655 0.0801305 8.86268 0.222764C 9.00881 0.365397 9.09091 0.558849 9.09091 0.760563L 9.09091 3.5493C 9.09091 3.75101 9.00881 3.94446 8.86268 4.0871C 8.71655 4.22973 8.51835 4.30986 8.31169 4.30986ZM 1.55844 2.78873L 7.53247 2.78873L 7.53247 1.52113L 1.55844 1.52113L 1.55844 2.78873Z" transform="translate(7.45453 3)"/>
<path d="M 7.27273 1.52113L 0.779221 1.52113C 0.572558 1.52113 0.374361 1.441 0.228229 1.29836C 0.0820966 1.15573 -3.28417e-08 0.962277 -3.28417e-08 0.760563C -3.28417e-08 0.558849 0.0820966 0.365398 0.228229 0.222764C 0.374361 0.0801309 0.572558 8.50161e-09 0.779221 0L 7.27273 0C 7.47939 8.50161e-09 7.67759 0.0801309 7.82372 0.222764C 7.96985 0.365398 8.05195 0.558849 8.05195 0.760563C 8.05195 0.962277 7.96985 1.15573 7.82372 1.29836C 7.67759 1.441 7.47939 1.52113 7.27273 1.52113Z" transform="translate(13.4286 11.1127)"/>
<path d="M 7.53247 1.52113L 0.779221 1.52113C 0.572559 1.52113 0.374361 1.441 0.228228 1.29836C 0.0820961 1.15573 -3.28417e-08 0.962277 -3.28417e-08 0.760563C -3.28417e-08 0.558849 0.0820961 0.365398 0.228228 0.222764C 0.374361 0.0801309 0.572559 8.50161e-09 0.779221 0L 7.53247 0C 7.73913 8.50161e-09 7.93733 0.0801309 8.08346 0.222764C 8.22959 0.365398 8.31169 0.558849 8.31169 0.760563C 8.31169 0.962277 8.22959 1.15573 8.08346 1.29836C 7.93733 1.441 7.73913 1.52113 7.53247 1.52113Z" transform="translate(2.25977 11.1127)"/>
<path d="M 3.8961 5.07042L 0.779221 5.07042C 0.572559 5.07042 0.374361 4.99029 0.228229 4.84766C 0.0820966 4.70503 0 4.51157 0 4.30986L 0 0.760563C 0 0.558849 0.0820966 0.365398 0.228229 0.222764C 0.374361 0.0801309 0.572559 0 0.779221 0L 3.8961 0C 4.10277 0 4.30096 0.0801309 4.4471 0.222764C 4.59323 0.365398 4.67532 0.558849 4.67532 0.760563L 4.67532 4.30986C 4.67532 4.51157 4.59323 4.70503 4.4471 4.84766C 4.30096 4.99029 4.10277 5.07042 3.8961 5.07042ZM 1.55844 3.5493L 3.11688 3.5493L 3.11688 1.52113L 1.55844 1.52113L 1.55844 3.5493Z" transform="translate(9.53247 9.33801)"/>
<path d="M 0.779221 2.53521C 0.572559 2.53521 0.374361 2.45508 0.228228 2.31245C 0.0820961 2.16981 0 1.97636 0 1.77465L 0 0.760563C 0 0.558849 0.0820961 0.365397 0.228228 0.222764C 0.374361 0.0801305 0.572559 0 0.779221 0C 0.985883 0 1.18408 0.0801305 1.33021 0.222764C 1.47635 0.365397 1.55844 0.558849 1.55844 0.760563L 1.55844 1.77465C 1.55844 1.97636 1.47635 2.16981 1.33021 2.31245C 1.18408 2.45508 0.985883 2.53521 0.779221 2.53521Z" transform="translate(3.55847 4.01404)"/>
<path d="M 0.779221 2.53521C 0.572559 2.53521 0.37436 2.45508 0.228228 2.31245C 0.0820956 2.16981 0 1.97636 0 1.77465L 0 0.760563C 0 0.558849 0.0820956 0.365397 0.228228 0.222764C 0.37436 0.0801305 0.572559 0 0.779221 0C 0.985883 0 1.18408 0.0801305 1.33021 0.222764C 1.47635 0.365397 1.55844 0.558849 1.55844 0.760563L 1.55844 1.77465C 1.55844 1.97636 1.47635 2.16981 1.33021 2.31245C 1.18408 2.45508 0.985883 2.53521 0.779221 2.53521Z" transform="translate(18.8831 4.01404)"/>
</svg>

