<svg width="24" height="24" viewBox="0 0 24 24" version="1.1" xmlns="http://www.w3.org/2000/svg" xmlns:xlink="http://www.w3.org/1999/xlink">
<path d="M 3.8961 20C 3.68944 20 3.49124 19.9148 3.34511 19.7632C 3.19898 19.6115 3.11688 19.4058 3.11688 19.1914L 3.11688 15.283C 2.23686 15.0966 1.44593 14.6004 0.877943 13.8784C 0.309961 13.1563 -0.000183234 12.2528 8.12169e-08 11.3208L 8.12169e-08 4.04313C 8.12169e-08 2.97082 0.410481 1.94244 1.14114 1.1842C 1.8718 0.425971 2.86279 0 3.8961 0L 16.1039 0C 17.1372 0 18.1282 0.425971 18.8589 1.1842C 19.5895 1.94244 20 2.97082 20 4.04313L 20 11.3208C 20 11.8517 19.8992 12.3775 19.7034 12.868C 19.5076 13.3585 19.2206 13.8042 18.8589 14.1797C 18.4971 14.5551 18.0676 14.8529 17.5949 15.0561C 17.1222 15.2593 16.6155 15.3639 16.1039 15.3639L 8.63636 15.3639L 4.44935 19.7601C 4.37697 19.836 4.29081 19.8963 4.19585 19.9375C 4.10089 19.9787 3.99902 19.9999 3.8961 20ZM 3.8961 1.61725C 3.27612 1.61725 2.68152 1.87283 2.24313 2.32777C 1.80473 2.78271 1.55844 3.39974 1.55844 4.04313L 1.55844 11.3208C 1.55844 11.9641 1.80473 12.5812 2.24313 13.0361C 2.68152 13.491 3.27612 13.7466 3.8961 13.7466C 4.10277 13.7466 4.30096 13.8318 4.4471 13.9835C 4.59323 14.1351 4.67532 14.3408 4.67532 14.5553L 4.67532 17.2237L 7.75844 13.9892C 7.83061 13.9128 7.91667 13.852 8.01164 13.8104C 8.1066 13.7687 8.20859 13.7471 8.31169 13.7466L 16.1039 13.7466C 16.7239 13.7466 17.3185 13.491 17.7569 13.0361C 18.1953 12.5812 18.4416 11.9641 18.4416 11.3208L 18.4416 4.04313C 18.4416 3.39974 18.1953 2.78271 17.7569 2.32777C 17.3185 1.87283 16.7239 1.61725 16.1039 1.61725L 3.8961 1.61725Z" transform="translate(2 2)"/>
<path d="M 0.779221 1.61725C 0.625106 1.61725 0.474452 1.56983 0.346309 1.48097C 0.218167 1.39212 0.118292 1.26583 0.0593149 1.11807C 0.000337556 0.970316 -0.0150936 0.807729 0.0149728 0.650871C 0.0450392 0.494013 0.119253 0.34993 0.228229 0.236842C 0.337205 0.123753 0.476049 0.0467388 0.627203 0.0155378C 0.778357 -0.0156632 0.935032 0.000350808 1.07742 0.0615537C 1.2198 0.122757 1.3415 0.2264 1.42712 0.359378C 1.51274 0.492355 1.55844 0.648695 1.55844 0.808626C 1.55844 1.02309 1.47635 1.22876 1.33021 1.38041C 1.18408 1.53206 0.985883 1.61725 0.779221 1.61725Z" transform="translate(6.93506 8.73853)"/>
<path d="M 0.779221 1.61725C 0.625106 1.61725 0.474452 1.56983 0.346309 1.48097C 0.218167 1.39212 0.118293 1.26583 0.0593154 1.11807C 0.000338051 0.970316 -0.0150936 0.807729 0.0149728 0.650871C 0.0450392 0.494013 0.119253 0.34993 0.228229 0.236842C 0.337205 0.123753 0.476049 0.0467388 0.627203 0.0155378C 0.778357 -0.0156632 0.935032 0.000350808 1.07742 0.0615537C 1.2198 0.122757 1.3415 0.2264 1.42712 0.359378C 1.51274 0.492355 1.55844 0.648695 1.55844 0.808626C 1.55844 1.02309 1.47635 1.22876 1.33021 1.38041C 1.18408 1.53206 0.985883 1.61725 0.779221 1.61725Z" transform="translate(11.3506 8.73853)"/>
<path d="M 0.779221 1.61725C 0.625106 1.61725 0.474452 1.56983 0.346309 1.48097C 0.218167 1.39212 0.118293 1.26583 0.0593154 1.11807C 0.000338051 0.970316 -0.0150926 0.807729 0.0149738 0.650871C 0.0450402 0.494013 0.119252 0.34993 0.228228 0.236842C 0.337204 0.123753 0.476048 0.0467388 0.627202 0.0155378C 0.778356 -0.0156632 0.935032 0.000350808 1.07742 0.0615537C 1.2198 0.122757 1.3415 0.2264 1.42712 0.359378C 1.51274 0.492355 1.55844 0.648695 1.55844 0.808626C 1.55844 1.02309 1.47635 1.22876 1.33021 1.38041C 1.18408 1.53206 0.985883 1.61725 0.779221 1.61725Z" transform="translate(15.7662 8.73853)"/>
</svg>

