<svg width="24" height="24" viewBox="0 0 24 24" version="1.1" xmlns="http://www.w3.org/2000/svg" xmlns:xlink="http://www.w3.org/1999/xlink">
<g id="Canvas" fill="none">
<g id="Icons/Settings" clip-path="url(#clip0)">
<g id="settings">
<g id="Vector">
<path d="M 11.8967 20L 8.10333 20C 7.8814 20 7.66857 19.9146 7.51164 19.7625C 7.35472 19.6105 7.26656 19.4042 7.26656 19.1892C 7.26655 18.7227 7.13979 18.2644 6.89901 17.8605C 6.65824 17.4565 6.31194 17.1211 5.89494 16.888C 5.47795 16.6549 5.00496 16.5323 4.52354 16.5325C 4.04212 16.5327 3.56924 16.6557 3.15246 16.8892C 3.05724 16.9425 2.95211 16.9771 2.84309 16.991C 2.73406 17.0049 2.62328 16.9978 2.51707 16.9702C 2.41087 16.9426 2.31132 16.895 2.22411 16.8301C 2.13691 16.7651 2.06377 16.6842 2.00888 16.5919L 0.112204 13.4081C 0.0571996 13.3158 0.0215026 13.214 0.00715405 13.1083C -0.00719448 13.0027 8.66769e-05 12.8953 0.0285815 12.7924C 0.0570763 12.6895 0.106226 12.5931 0.17322 12.5086C 0.240214 12.4241 0.323739 12.3532 0.419018 12.3C 0.834125 12.0664 1.17865 11.7312 1.41812 11.328C 1.6576 10.9249 1.78365 10.4679 1.78365 10.0027C 1.78365 9.53754 1.6576 9.08052 1.41812 8.67737C 1.17865 8.27421 0.834125 7.93905 0.419018 7.7054C 0.323739 7.65221 0.240214 7.58134 0.17322 7.49684C 0.106226 7.41235 0.0570763 7.31589 0.0285815 7.21297C 8.66769e-05 7.11006 -0.00719448 7.00271 0.00715405 6.89707C 0.0215026 6.79143 0.0571996 6.68956 0.112204 6.5973L 2.00888 3.41351C 2.06377 3.32119 2.13691 3.24026 2.22411 3.17534C 2.31132 3.11042 2.41087 3.0628 2.51707 3.03519C 2.62328 3.00758 2.73406 3.00052 2.84309 3.01442C 2.95211 3.02833 3.05724 3.06292 3.15246 3.11622C 3.56965 3.34993 4.04304 3.47297 4.52493 3.47294C 5.00683 3.47291 5.4802 3.34981 5.89736 3.11605C 6.31452 2.88229 6.66073 2.54612 6.90111 2.14141C 7.14148 1.7367 7.26754 1.27776 7.26656 0.810811C 7.26656 0.59577 7.35472 0.389537 7.51164 0.237481C 7.66857 0.0854244 7.8814 0 8.10333 0L 11.8967 0C 12.1186 0 12.3314 0.0854244 12.4884 0.237481C 12.6453 0.389537 12.7334 0.59577 12.7334 0.810811C 12.7334 1.2773 12.8602 1.73556 13.101 2.13951C 13.3418 2.54347 13.6881 2.87887 14.1051 3.11199C 14.5221 3.34511 14.995 3.46774 15.4765 3.46753C 15.9579 3.46732 16.4308 3.34429 16.8475 3.11081C 16.9428 3.05751 17.0479 3.02292 17.1569 3.00902C 17.2659 2.99512 17.3767 3.00217 17.4829 3.02978C 17.5891 3.05739 17.6887 3.10502 17.7759 3.16993C 17.8631 3.23485 17.9362 3.31578 17.9911 3.40811L 19.8878 6.59189C 19.9428 6.68416 19.9785 6.78602 19.9928 6.89166C 20.0072 6.99731 19.9999 7.10465 19.9714 7.20757C 19.9429 7.31048 19.8938 7.40694 19.8268 7.49144C 19.7598 7.57593 19.6763 7.6468 19.581 7.7C 19.1659 7.93365 18.8214 8.26881 18.5819 8.67196C 18.3424 9.07512 18.2164 9.53213 18.2164 9.9973C 18.2164 10.4625 18.3424 10.9195 18.5819 11.3226C 18.8214 11.7258 19.1659 12.0609 19.581 12.2946C 19.6763 12.3478 19.7598 12.4187 19.8268 12.5032C 19.8938 12.5877 19.9429 12.6841 19.9714 12.787C 19.9999 12.8899 20.0072 12.9973 19.9928 13.1029C 19.9785 13.2086 19.9428 13.3104 19.8878 13.4027L 17.9911 16.5865C 17.9362 16.6788 17.8631 16.7597 17.7759 16.8247C 17.6887 16.8896 17.5891 16.9372 17.4829 16.9648C 17.3767 16.9924 17.2659 16.9995 17.1569 16.9856C 17.0479 16.9717 16.9428 16.9371 16.8475 16.8838C 16.4304 16.6501 15.957 16.527 15.4751 16.5271C 14.9932 16.5271 14.5198 16.6502 14.1026 16.884C 13.6855 17.1177 13.3393 17.4539 13.0989 17.8586C 12.8585 18.2633 12.7325 18.7222 12.7334 19.1892C 12.7334 19.4042 12.6453 19.6105 12.4884 19.7625C 12.3314 19.9146 12.1186 20 11.8967 20ZM 8.862 18.3784L 11.138 18.3784C 11.2578 17.7757 11.5097 17.2049 11.8768 16.7047C 12.2439 16.2045 12.7175 15.7865 13.2657 15.479C 13.8139 15.1715 14.4239 14.9817 15.0543 14.9224C 15.6848 14.863 16.321 14.9356 16.9201 15.1351L 18.0581 13.2432C 17.5803 12.8409 17.1973 12.3438 16.9348 11.7857C 16.6723 11.2276 16.5365 10.6214 16.5365 10.0081C 16.5365 9.39477 16.6723 8.78858 16.9348 8.23047C 17.1973 7.67237 17.5803 7.17534 18.0581 6.77297L 16.9201 4.86486C 16.321 5.0644 15.6848 5.13696 15.0543 5.07763C 14.4239 5.0183 13.8139 4.82847 13.2657 4.52098C 12.7175 4.21348 12.2439 3.7955 11.8768 3.29529C 11.5097 2.79509 11.2578 2.22433 11.138 1.62162L 8.862 1.62162C 8.74224 2.22433 8.4903 2.79509 8.12323 3.29529C 7.75615 3.7955 7.28249 4.21348 6.73429 4.52098C 6.18609 4.82847 5.57613 5.0183 4.94567 5.07763C 4.31521 5.13696 3.67896 5.0644 3.07994 4.86486L 1.94193 6.75676C 2.41965 7.15913 2.8027 7.65615 3.06519 8.21426C 3.32769 8.77236 3.46353 9.37856 3.46353 9.99189C 3.46353 10.6052 3.32769 11.2114 3.06519 11.7695C 2.8027 12.3276 2.41965 12.8247 1.94193 13.227L 3.07994 15.1351C 3.67896 14.9356 4.31521 14.863 4.94567 14.9224C 5.57613 14.9817 6.18609 15.1715 6.73429 15.479C 7.28249 15.7865 7.75615 16.2045 8.12323 16.7047C 8.4903 17.2049 8.74224 17.7757 8.862 18.3784Z" transform="translate(2 2)" fill="#69655E"/>
</g>
<g id="Vector_2">
<path d="M 4.46276 8.64865C 3.58011 8.64865 2.71728 8.39503 1.98338 7.91987C 1.24949 7.44471 0.677484 6.76934 0.339709 5.97917C 0.00193323 5.18901 -0.0864442 4.31953 0.0857522 3.48069C 0.257949 2.64186 0.682985 1.87133 1.30711 1.26657C 1.93124 0.661799 2.72643 0.249947 3.59212 0.0830922C 4.45781 -0.0837628 5.35512 0.00187326 6.17058 0.329171C 6.98604 0.656469 7.68303 1.21073 8.17341 1.92186C 8.66378 2.63299 8.92552 3.46906 8.92552 4.32433C 8.92552 5.47121 8.45533 6.57112 7.6184 7.38209C 6.78148 8.19305 5.64636 8.64865 4.46276 8.64865ZM 4.46276 1.62162C 3.9111 1.62162 3.37184 1.78013 2.91315 2.07711C 2.45446 2.37409 2.09696 2.79619 1.88585 3.29005C 1.67474 3.7839 1.61951 4.32733 1.72713 4.8516C 1.83475 5.37587 2.1004 5.85745 2.49048 6.23543C 2.88056 6.61341 3.37755 6.87081 3.91861 6.9751C 4.45966 7.07938 5.02048 7.02586 5.53015 6.8213C 6.03981 6.61674 6.47543 6.27033 6.78191 5.82587C 7.0884 5.38141 7.25198 4.85887 7.25198 4.32433C 7.25198 3.60753 6.95812 2.92008 6.43504 2.41323C 5.91196 1.90637 5.20251 1.62162 4.46276 1.62162Z" transform="translate(7.53723 7.67566)" fill="#69655E"/>
</g>
</g>
</g>
</g>
<defs>

<clipPath id="clip0">
<rect width="24" height="24" fill="white"/>
</clipPath>

</defs>
</svg>

