<svg width="24" height="24" viewBox="0 0 24 24" version="1.1" xmlns="http://www.w3.org/2000/svg" xmlns:xlink="http://www.w3.org/1999/xlink">
<path d="M 0.723898 2.7476C 0.580761 2.74607 0.441216 2.70259 0.322544 2.62255C 0.203872 2.5425 0.111284 2.42941 0.0562469 2.29727C 0.00120974 2.16512 -0.0138602 2.01974 0.0129046 1.87912C 0.0396693 1.7385 0.107093 1.60882 0.206825 1.50614L 1.51658 0.196382C 1.65529 0.0671332 1.83874 -0.00323055 2.02831 0.000114051C 2.21787 0.00345865 2.39873 0.0802505 2.53279 0.214312C 2.66685 0.348373 2.74365 0.529237 2.74699 0.718799C 2.75033 0.908361 2.67997 1.09182 2.55072 1.23053L 1.23365 2.53297C 1.09836 2.66845 0.915354 2.7455 0.723898 2.7476Z" transform="translate(15.6402 5.61584)"/>
<path d="M 2.87864 3.61485C 2.68719 3.61276 2.50418 3.5357 2.36889 3.40022L 0.173768 1.2051C 0.0545266 1.06456 -0.00728596 0.884198 0.000685153 0.700062C 0.00865627 0.515925 0.0858241 0.34158 0.216765 0.211872C 0.347705 0.0821638 0.522772 0.00664798 0.706975 0.000418415C 0.891178 -0.00581115 1.07095 0.0577042 1.21035 0.17827L 3.40547 2.37339C 3.50767 2.47572 3.57726 2.60604 3.60544 2.74789C 3.63362 2.88974 3.61913 3.03676 3.5638 3.17039C 3.50847 3.30401 3.41479 3.41824 3.29458 3.49865C 3.17437 3.57906 3.03302 3.62204 2.8884 3.62217L 2.87864 3.61485Z" transform="translate(4.74884 4.74854)"/>
<path d="M 0.733504 3.61767C 0.588672 3.61802 0.446992 3.57539 0.326408 3.49517C 0.205824 3.41494 0.11176 3.30074 0.0561294 3.16701C 0.000498821 3.03329 -0.014196 2.88607 0.0139063 2.74399C 0.0420087 2.60191 0.111644 2.47136 0.213992 2.36889L 2.40911 0.173769C 2.54965 0.0545267 2.73001 -0.0072855 2.91415 0.000685618C 3.09828 0.00865674 3.27263 0.0858241 3.40234 0.216765C 3.53204 0.347705 3.60756 0.522772 3.61379 0.706975C 3.62002 0.891179 3.5565 1.07095 3.43594 1.21035L 1.24082 3.40547C 1.10574 3.53948 0.923767 3.61559 0.733504 3.61767Z" transform="translate(4.70862 15.6677)"/>
<path d="M 2.88596 3.61241C 2.69231 3.61289 2.50638 3.53659 2.36889 3.40022L 0.173768 1.2051C 0.0545266 1.06456 -0.0072855 0.884199 0.000685618 0.700062C 0.00865673 0.515926 0.0858241 0.341581 0.216765 0.211873C 0.347705 0.0821645 0.522772 0.00664727 0.706975 0.000417708C 0.891178 -0.00581186 1.07095 0.0577045 1.21035 0.17827L 3.40547 2.37339C 3.50767 2.47572 3.57726 2.60604 3.60544 2.74789C 3.63362 2.88974 3.61913 3.03676 3.5638 3.17039C 3.50847 3.30401 3.41478 3.41824 3.29457 3.49865C 3.17436 3.57906 3.03302 3.62204 2.8884 3.62217L 2.88596 3.61241Z" transform="translate(15.6635 15.673)"/>
<path d="M 9.99579 20C 7.6823 19.999 5.44071 19.1959 3.65295 17.7275C 1.86518 16.2591 0.64186 14.2163 0.191403 11.9471C -0.259053 9.67785 0.0912282 7.32264 1.18257 5.28273C 2.2739 3.24281 4.03878 1.6444 6.17649 0.759834C 8.3142 -0.124737 10.6925 -0.240737 12.9061 0.431597C 15.1198 1.10393 17.0318 2.523 18.3165 4.44702C 19.6012 6.37105 20.179 8.68099 19.9515 10.9833C 19.724 13.2856 18.7053 15.4378 17.069 17.0732C 16.141 18.003 15.0384 18.7403 13.8245 19.2426C 12.6107 19.7449 11.3095 20.0023 9.99579 20ZM 9.99579 1.46342C 8.02082 1.46356 6.107 2.14849 4.58041 3.40151C 3.05382 4.65452 2.00892 6.3981 1.62376 8.33515C 1.23859 10.2722 1.53698 12.2829 2.46808 14.0246C 3.39919 15.7663 4.90541 17.1313 6.73009 17.887C 8.55478 18.6426 10.585 18.7423 12.4749 18.1688C 14.3648 17.5954 15.9974 16.3845 17.0946 14.7423C 18.1917 13.1001 18.6855 11.1283 18.4918 9.16281C 18.2981 7.19735 17.429 5.35986 16.0324 3.96341C 15.2405 3.16955 14.2995 2.54001 13.2636 2.11097C 12.2276 1.68194 11.1171 1.46187 9.99579 1.46342Z" transform="translate(2 2)"/>
<path d="M 5.94252 11.8878C 4.96507 11.8876 4.00276 11.6463 3.14082 11.1853C 2.27889 10.7244 1.54393 10.058 1.00105 9.24514C 0.458175 8.43231 0.124132 7.49813 0.0285112 6.52537C -0.0671095 5.5526 0.0786436 4.57127 0.45286 3.66829C 0.827077 2.7653 1.41821 1.96854 2.17389 1.34858C 2.92957 0.728613 3.82649 0.304578 4.78519 0.114033C 5.74389 -0.0765118 6.73479 -0.0276863 7.67011 0.256185C 8.60544 0.540056 9.45632 1.05021 10.1474 1.74146C 10.9798 2.57242 11.5468 3.63173 11.7767 4.78522C 12.0065 5.93871 11.8889 7.13447 11.4386 8.22102C 10.9883 9.30758 10.2256 10.236 9.24722 10.8888C 8.26882 11.5416 7.11869 11.8892 5.94252 11.8878ZM 5.94252 1.46585C 4.90666 1.46726 3.90332 1.82775 3.10341 2.48591C 2.30351 3.14407 1.75652 4.0592 1.55561 5.0754C 1.35471 6.0916 1.51233 7.14602 2.00161 8.05905C 2.49089 8.97208 3.28157 9.68725 4.23897 10.0827C 5.19637 10.4782 6.26127 10.5295 7.25227 10.228C 8.24327 9.92642 9.09908 9.29062 9.67391 8.42888C 10.2487 7.56714 10.507 6.53277 10.4048 5.50195C 10.3026 4.47114 9.84614 3.50765 9.11325 2.77561C 8.69709 2.35917 8.20273 2.02908 7.65859 1.80431C 7.11445 1.57954 6.53126 1.46452 5.94252 1.46585Z" transform="translate(6.05328 6.05371)"/>
</svg>

