<svg width="24" height="24" viewBox="0 0 24 24" version="1.1" xmlns="http://www.w3.org/2000/svg" xmlns:xlink="http://www.w3.org/1999/xlink">
<g id="Canvas" fill="none">
<g id="Icons/Twitter" clip-path="url(#clip0)">
<g id="sparrow">
<g id="Group">
<g id="Vector">
<path d="M 14.0431 -3.75745e-05C 13.9829 0.000152902 13.9233 0.0123313 13.8676 0.0351885C 12.3888 0.0847124 11.0401 0.684993 10.0642 1.68128C 8.50807 3.27004 6.79085 5.25232 4.85658 5.26004C 3.39435 5.26956 1.92867 5.27141 0.466281 5.27713C 0.207767 5.27808 -0.00097952 5.49225 3.45738e-06 5.7553C 0.0211609 11.2643 4.43424 15.7245 9.85029 15.7137C 15.0572 15.6965 19.3405 11.487 19.6421 6.31136C 19.6527 6.1285 19.6603 5.90574 19.6603 5.71612C 19.6605 5.70659 19.6605 5.70281 19.6603 5.69519C 19.581 3.73623 18.7813 2.29698 17.6965 1.37622C 16.6457 0.484409 15.3532 0.0819772 14.1747 0.0221676C 14.1491 0.0126438 14.1228 0.00786329 14.0961 0.00310138C 14.0851 0.002149 14.0741 0.00310138 14.0631 0.00310138C 14.0613 0.00243471 14.0594 0.002149 14.0575 0.00310138C 14.0528 0.00300614 14.0478 0.00300614 14.0429 0.00310138L 14.0431 -3.75745e-05ZM 14.0356 0.954205C 15.0492 0.987538 16.2021 1.34824 17.0966 2.10748C 17.9928 2.86815 18.6539 4.01253 18.724 5.73263C 18.724 5.73329 18.7239 5.73358 18.724 5.73263C 18.7234 5.89015 18.7146 6.09148 18.7057 6.25148C 18.4334 10.9249 14.5593 14.7428 9.84831 14.7592C 5.1039 14.7687 1.17224 10.9635 0.95983 6.22556C 2.23346 6.22556 3.58283 6.21604 4.86009 6.21033C 7.38287 6.19985 9.21662 3.89176 10.726 2.35081C 11.5724 1.48662 12.7403 0.954186 14.0356 0.951996L 14.0356 0.954205Z" transform="translate(1 3.90479)" fill="#69655E"/>
</g>
<g id="Vector_2">
<path d="M 7.49827 0.00192122C 7.37413 0.0024276 7.25527 0.05307 7.16783 0.142709C 7.08039 0.232348 7.03153 0.353578 7.032 0.479856C 7.01693 2.00272 6.20893 3.40149 4.90908 4.1572C 3.60922 4.91301 2.01577 4.91119 0.718088 4.14767C 0.664798 4.11344 0.605263 4.0905 0.543052 4.08024C 0.480841 4.06998 0.417235 4.07256 0.356046 4.08791C 0.294857 4.10326 0.237345 4.13102 0.186957 4.16952C 0.136569 4.20803 0.0943437 4.25655 0.0628112 4.31206C 0.0312786 4.36756 0.0110882 4.42897 0.00345063 4.4926C -0.00418698 4.55624 0.000884992 4.62074 0.0183631 4.68234C 0.0358412 4.74393 0.0653654 4.80132 0.105166 4.85103C 0.144966 4.90073 0.194223 4.94171 0.249984 4.97159C 1.83463 5.89921 3.78622 5.90188 5.37352 4.98112C 6.96081 4.05816 7.94976 2.34701 7.96821 0.487297C 7.96967 0.423677 7.95858 0.360472 7.9356 0.301285C 7.91261 0.242097 7.8782 0.188139 7.83439 0.142709C 7.79058 0.0972791 7.73827 0.0613144 7.68053 0.0367985C 7.6228 0.0122827 7.56083 -0.000199489 7.49827 6.10987e-05L 7.49827 0.00192122Z" transform="translate(7.5174 11.5923)" fill="#69655E"/>
</g>
<g id="Vector_3">
<path fill-rule="evenodd" clip-rule="evenodd" d="M 0.340111 5.76638e-05L 9.88509e-08 0.887219L 2.21619 1.76892L 0.596105 2.75281L 1.07701 3.57126L 3.51626 2.08874C 3.59134 2.04303 3.65231 1.97679 3.69228 1.89761C 3.73224 1.81844 3.74959 1.7295 3.74236 1.6408C 3.73513 1.5521 3.7036 1.46725 3.65136 1.39585C 3.59912 1.32445 3.52825 1.26931 3.4468 1.23681L 0.340111 5.76638e-05Z" transform="translate(19.256 6.52393)" fill="#69655E"/>
</g>
<g id="Vector_4">
<path fill-rule="evenodd" clip-rule="evenodd" d="M 0.46085 6.40408e-05C 0.399375 0.0010392 0.338692 0.0142941 0.282264 0.0391266C 0.225837 0.0639591 0.174771 0.099896 0.131982 0.144805C 0.0891929 0.189714 0.0555193 0.242791 0.0328837 0.300939C 0.010248 0.359086 -0.000906995 0.421163 5.7163e-05 0.483696L 5.7163e-05 2.37532C -0.000809741 2.43841 0.010658 2.50105 0.0337934 2.55959C 0.0569288 2.61814 0.0912711 2.67138 0.134825 2.71631C 0.178378 2.76123 0.230274 2.79694 0.287498 2.82129C 0.344722 2.84564 0.406132 2.85814 0.468161 2.85814C 0.530189 2.85814 0.5916 2.84564 0.648824 2.82129C 0.706048 2.79694 0.757944 2.76123 0.801498 2.71631C 0.845051 2.67138 0.879393 2.61814 0.902529 2.55959C 0.925664 2.50105 0.937131 2.43841 0.936264 2.37532L 0.936264 0.483696C 0.937248 0.419911 0.925623 0.356577 0.90208 0.297451C 0.878536 0.238325 0.843555 0.184566 0.799211 0.139457C 0.754868 0.0943481 0.702066 0.0587762 0.643942 0.0348251C 0.585817 0.010874 0.523554 -0.000933872 0.46085 6.40408e-05Z" transform="translate(9.89392 19.1418)" fill="#69655E"/>
</g>
<g id="Vector_5">
<path fill-rule="evenodd" clip-rule="evenodd" d="M 0.475952 5.09139e-05C 0.413826 -0.00100264 0.352115 0.0105426 0.294417 0.0339981C 0.236719 0.0574536 0.184189 0.0923351 0.139889 0.136654C 0.095588 0.180972 0.0604033 0.233798 0.0363862 0.29209C 0.0123692 0.350382 1.49206e-07 0.413037 1.49206e-07 0.476242C 1.49206e-07 0.539447 0.0123692 0.601986 0.0363862 0.660278C 0.0604033 0.71857 0.095588 0.771396 0.139889 0.815714C 0.184189 0.860033 0.236719 0.894914 0.294417 0.91837C 0.352115 0.941825 0.413826 0.953371 0.475952 0.952317L 3.27726 0.952317C 3.33939 0.953371 3.4011 0.941825 3.4588 0.91837C 3.5165 0.894914 3.56903 0.860033 3.61333 0.815714C 3.65763 0.771396 3.69281 0.71857 3.71683 0.660278C 3.74085 0.601986 3.75321 0.539447 3.75321 0.476242C 3.75321 0.413037 3.74085 0.350382 3.71683 0.29209C 3.69281 0.233798 3.65763 0.180972 3.61333 0.136654C 3.56903 0.0923351 3.5165 0.0574536 3.4588 0.0339981C 3.4011 0.0105426 3.33939 -0.00100264 3.27726 5.09139e-05L 0.475952 5.09139e-05Z" transform="translate(8.94989 21.0466)" fill="#69655E"/>
</g>
<g id="Vector_6">
<path d="M 1.17026 5.76638e-05C 0.529489 5.76638e-05 7.62809e-07 0.538609 7.62809e-07 1.19042C 7.62809e-07 1.84223 0.529489 2.38078 1.17026 2.38078C 1.81103 2.38078 2.34052 1.84223 2.34052 1.19042C 2.34052 0.538609 1.81103 5.76638e-05 1.17026 5.76638e-05ZM 1.17026 0.952324C 1.30507 0.952324 1.40431 1.05328 1.40431 1.19042C 1.40431 1.32756 1.30507 1.42851 1.17026 1.42851C 1.03546 1.42851 0.936208 1.32756 0.936208 1.19042C 0.936208 1.05328 1.03546 0.952324 1.17026 0.952324Z" transform="translate(15.0431 6.76196)" fill="#69655E"/>
</g>
<g id="Vector_7">
<path d="M 0.476027 7.18789e-05C 0.413895 -0.000991663 0.352175 0.0105681 0.294469 0.0340191C 0.236762 0.0574701 0.184223 0.0923551 0.139914 0.136675C 0.0956058 0.180994 0.0604158 0.233814 0.0363941 0.292111C 0.0123724 0.350408 -3.26401e-08 0.413052 -3.26401e-08 0.476263C -3.26401e-08 0.539474 0.0123724 0.602002 0.0363941 0.660299C 0.0604158 0.718596 0.0956058 0.771416 0.139914 0.815735C 0.184223 0.860055 0.236762 0.89494 0.294469 0.918391C 0.352175 0.941842 0.413895 0.953401 0.476027 0.952338C 0.994955 0.952338 1.40493 1.37123 1.40492 1.89914C 1.40404 1.96224 1.4155 2.02485 1.43863 2.08341C 1.46176 2.14196 1.4961 2.1953 1.53966 2.24024C 1.58321 2.28518 1.63511 2.32087 1.69234 2.34522C 1.74957 2.36958 1.81099 2.38207 1.87303 2.38207C 1.93506 2.38207 1.99648 2.36958 2.05371 2.34522C 2.11094 2.32087 2.16284 2.28518 2.20639 2.24024C 2.24995 2.1953 2.28429 2.14196 2.30742 2.08341C 2.33055 2.02485 2.34201 1.96224 2.34113 1.89914C 2.34114 0.856567 1.50087 7.18789e-05 0.476027 7.18789e-05Z" transform="translate(13.4041 2)" fill="#69655E"/>
</g>
<g id="Vector_8">
<path d="M 1.86515 7.18789e-05C 0.840316 7.18789e-05 3.70017e-05 0.856567 4.63634e-05 1.89914C -0.000832194 1.96224 0.0106266 2.02485 0.0337567 2.08341C 0.0568869 2.14196 0.0912279 2.1953 0.134783 2.24024C 0.178337 2.28518 0.230238 2.32087 0.287468 2.34522C 0.344697 2.36958 0.406114 2.38207 0.468151 2.38207C 0.530187 2.38207 0.591604 2.36958 0.648834 2.34522C 0.706064 2.32087 0.757964 2.28518 0.801519 2.24024C 0.845074 2.1953 0.879413 2.14196 0.902543 2.08341C 0.925673 2.02485 0.937132 1.96224 0.936253 1.89914C 0.936244 1.37123 1.34622 0.952338 1.86515 0.952338C 1.92728 0.953401 1.989 0.941842 2.04671 0.918391C 2.10441 0.89494 2.15695 0.860055 2.20126 0.815735C 2.24557 0.771416 2.28076 0.718596 2.30478 0.660299C 2.3288 0.602002 2.34118 0.539474 2.34118 0.476263C 2.34118 0.413052 2.3288 0.350408 2.30478 0.292111C 2.28076 0.233814 2.24557 0.180994 2.20126 0.136675C 2.15695 0.0923551 2.10441 0.0574701 2.04671 0.0340191C 1.989 0.0105681 1.92728 -0.000991663 1.86515 7.18789e-05Z" transform="translate(14.809 2)" fill="#69655E"/>
</g>
</g>
</g>
</g>
</g>
<defs>

<clipPath id="clip0">
<rect width="24" height="24" fill="white"/>
</clipPath>

</defs>
</svg>

