<svg width="419" height="217" viewBox="0 0 419 217" fill="none" xmlns="http://www.w3.org/2000/svg">
<path d="M202.682 147.294H12.0108C5.40486 147.294 -1.52725e-06 141.887 -1.52725e-06 135.278V12.0158C-1.52725e-06 5.40712 5.40486 0 12.0108 0H202.682C209.288 0 214.693 5.40712 214.693 12.0158V135.278C214.693 141.887 209.288 147.294 202.682 147.294Z" transform="translate(105.217 1.01538)" fill="#F7DF8F"/>
<path d="M85.577 88.0856H9.30838C4.10369 88.0856 -6.10902e-06 83.2792 -6.10902e-06 77.3715V25.403C-6.10902e-06 19.1948 4.30388 13.3872 9.60865 12.5861L89.2804 0.169752C96.6871 -1.03183 102.692 4.27516 102.292 11.9853L99.1893 75.2687C98.7889 82.378 92.5834 88.0856 85.577 88.0856Z" transform="translate(242.141 89.4624)" fill="white"/>
<path d="M101.274 14.7026L6.68929 31.4247C3.98686 31.9253 1.38453 30.123 0.884075 27.3193L0.0833513 22.6131C-0.417099 19.9095 1.38451 17.3061 4.18704 16.8054L98.7722 0.08338C101.475 -0.417279 104.077 1.3851 104.577 4.18879L105.378 8.89499C105.779 11.6987 103.977 14.3021 101.274 14.7026Z" transform="translate(238.454 88.7478)" fill="#F5F2EB"/>
<path d="M61.132 111.745C47.0193 113.447 32.8065 115.149 18.3936 116.852C11.7876 117.653 6.98328 113.447 7.48373 107.439C10.0861 77.8002 7.68391 47.26 0.37733 17.5208C-1.12402 11.5129 1.97877 6.00562 7.48373 5.20456C19.2944 3.50232 31.105 1.80008 42.7154 0.0978351C48.1203 -0.70322 54.426 3.50232 56.5279 9.51023C67.0373 39.1493 72.5423 69.6895 73.0428 99.4287C73.1428 105.437 67.6379 110.944 61.132 111.745Z" transform="translate(75.6139 62.3987)" fill="#87CDDC"/>
<path opacity="0.3" d="M21.5194 11.0145C33.4042 11.0145 43.0387 8.54882 43.0387 5.50725C43.0387 2.46568 33.4042 -3.05578e-06 21.5194 -3.05578e-06C9.63455 -3.05578e-06 0 2.46568 0 5.50725C0 8.54882 9.63455 11.0145 21.5194 11.0145Z" transform="translate(87.1012 205.986)" fill="#87847E"/>
<path opacity="0.3" d="M21.5194 11.0145C33.4042 11.0145 43.0388 8.54882 43.0388 5.50725C43.0388 2.46568 33.4042 -3.05578e-06 21.5194 -3.05578e-06C9.63456 -3.05578e-06 6.10902e-06 2.46568 6.10902e-06 5.50725C6.10902e-06 8.54882 9.63456 11.0145 21.5194 11.0145Z" transform="translate(269.866 190.465)" fill="#87847E"/>
<path d="M57.6012 112.086C45.2901 113.187 32.979 114.188 20.6679 115.29C14.9628 115.79 10.4587 111.285 10.4587 105.277C10.2585 75.2371 6.85547 45.0974 0.249526 15.0578C-1.05165 9.04987 2.85187 3.74288 9.25764 3.24222C23.0701 2.14077 36.8825 1.13945 50.6949 0.0379987C57.1007 -0.462661 63.3063 4.04328 64.2071 10.0512C68.9113 40.0908 70.4127 70.2305 68.7112 100.27C68.4109 106.278 63.3063 111.585 57.6012 112.086Z" transform="translate(80.6461 63.3596)" fill="white"/>
<path d="M43.3884 80.9446C34.6805 81.6455 26.0728 82.4466 17.465 83.1475C11.86 83.6481 7.25583 79.1422 7.15574 73.1343C6.75538 53.5084 4.45331 33.7825 0.249524 14.0565C-1.05165 8.04855 2.85187 2.74156 9.25764 2.2409C18.9664 1.53998 28.6751 0.738921 38.3839 0.0379979C44.7896 -0.462662 50.9952 4.04327 51.7959 10.0512C54.5984 29.677 55.4993 49.403 54.4984 69.129C54.1981 75.1369 49.0935 80.4439 43.3884 80.9446Z" transform="translate(89.7543 72.6719)" fill="#F5F2EB"/>
<path d="M68.2615 42.7563L61.5554 35.0462V11.0145C61.5554 4.90646 56.651 7.63946e-07 50.5455 7.63946e-07H11.0099C4.90442 7.63946e-07 0 4.90646 0 11.0145V48.2636C0 54.2715 4.90442 59.2781 11.0099 59.2781H50.5455C56.651 59.2781 61.5554 54.2715 61.5554 48.2636V45.6601H66.9603C68.4616 45.6601 69.2624 43.8578 68.2615 42.7563Z" transform="translate(1.02368 42.2698)" fill="#87CDDC"/>
<path d="M0.444278 42.7563L7.15033 35.0462V11.0145C7.15033 4.90646 12.0547 -1.52789e-06 18.1602 -1.52789e-06H54.6931C60.7986 -1.52789e-06 65.703 4.90646 65.703 11.0145V48.2636C65.703 54.2715 60.7986 59.2781 54.6931 59.2781H18.1602C12.0547 59.2781 7.15033 54.2715 7.15033 48.2636V45.6601H1.74547C0.244117 45.6601 -0.556623 43.8578 0.444278 42.7563Z" transform="translate(353.297 72.71)" fill="#5EB782"/>
<path d="M0.0414526 65.1859C-0.0586375 63.3835 0.0414587 61.5811 0.141549 59.7787C53.2894 51.0673 53.2894 50.066 42.3796 3.60475C54.1902 2.00264 65.9008 0.500656 77.9116 -3.05578e-06C71.6059 55.1727 61.1965 71.5943 0.0414526 65.1859Z" transform="translate(218.578 140.9)" fill="#87CDDC"/>
<path d="M2.90261 5.80765C1.30117 5.80765 0 4.50594 0 2.90383C0 1.30172 1.30117 0 2.90261 0C4.50406 0 5.80523 1.30172 5.80523 2.90383C5.80523 4.50594 4.50406 5.80765 2.90261 5.80765Z" transform="translate(104.117 81.6216)" fill="#69655E"/>
<path d="M2.90261 5.80765C1.30117 5.80765 3.05451e-06 4.50593 3.05451e-06 2.90382C3.05451e-06 1.30171 1.30117 -3.05578e-06 2.90261 -3.05578e-06C4.50405 -3.05578e-06 5.80523 1.30171 5.80523 2.90382C5.80523 4.50593 4.50405 5.80765 2.90261 5.80765Z" transform="translate(125.436 79.3186)" fill="#69655E"/>
<path d="M5.80523 5.50726C7.50676 5.50726 9.1082 6.40844 10.009 7.71016C10.4094 7.00923 10.6095 6.10804 10.6095 5.30699C10.6095 2.40316 8.20739 1.52789e-06 5.30478 1.52789e-06C2.40216 1.52789e-06 -1.52725e-06 2.40316 -1.52725e-06 5.30699C-1.52725e-06 6.50857 0.400359 7.61003 1.0009 8.41108C2.0018 6.70884 3.70334 5.50726 5.80523 5.50726Z" transform="translate(115.227 96.5413)" fill="#69655E"/>
<path d="M4.20378 5.0066C6.20559 5.0066 8.00721 3.80501 8.90802 2.2029C7.90712 0.901186 6.40577 1.52789e-06 4.70424 1.52789e-06C2.70243 1.52789e-06 0.900814 1.20158 3.05451e-06 2.80369C0.900814 4.1054 2.40216 5.0066 4.20378 5.0066Z" transform="translate(116.428 102.049)" fill="#E59E7D"/>
<path d="M26.0209 19.4256C19.0146 18.1239 11.9082 16.722 4.90193 15.4203C-2.60483 11.6153 -1.00339 0.901193 6.40328 6.11157e-06C14.3104 1.50198 22.3176 3.00396 30.2247 4.50594C21.9172 5.307 19.415 15.8208 26.0209 19.4256Z" transform="translate(192.398 188.362)" fill="#F5F2EB"/>
<path d="M2.20198 4.4058C3.4181 4.4058 4.40396 3.41953 4.40396 2.2029C4.40396 0.986276 3.4181 0 2.20198 0C0.985858 0 0 0.986276 0 2.2029C0 3.41953 0.985858 4.4058 2.20198 4.4058Z" transform="translate(244.743 108.257)" fill="#D66833"/>
<path d="M2.20198 4.4058C3.4181 4.4058 4.40397 3.41953 4.40397 2.2029C4.40397 0.986276 3.4181 0 2.20198 0C0.985855 0 1.2218e-05 0.986276 1.2218e-05 2.2029C1.2218e-05 3.41953 0.985855 4.4058 2.20198 4.4058Z" transform="translate(256.454 106.755)" fill="#87CDDC"/>
<path d="M2.20198 4.4058C3.4181 4.4058 4.40396 3.41953 4.40396 2.2029C4.40396 0.986276 3.4181 0 2.20198 0C0.985861 0 3.05451e-06 0.986276 3.05451e-06 2.2029C3.05451e-06 3.41953 0.985861 4.4058 2.20198 4.4058Z" transform="translate(250.548 106.755)" fill="#F3CD50"/>
<path d="M1.00805 13.2322C3.71049 12.7315 6.11266 14.8343 16.2218 10.1281C26.3309 5.42188 30.6347 5.72228 36.3399 7.52465C42.045 9.32703 44.9476 9.72755 48.3507 8.6261C51.7538 7.52465 59.3606 1.11621 69.8701 0.21502C80.3795 -0.686167 86.485 3.41925 91.8899 2.41793C97.2948 1.41661 104.101 -0.485902 107.003 0.11489C109.906 0.715681 111.608 3.6195 110.607 5.22162C109.606 6.72359 108.205 4.82109 105.602 4.2203C103 3.6195 92.2902 5.92254 91.0892 7.12412C89.8881 8.42584 88.7871 21.5431 79.4787 27.4509C70.1703 33.3587 59.761 28.6525 57.3588 27.1505C55.0567 25.7487 53.6555 23.6459 52.6546 20.7421C51.6537 17.8382 51.1532 13.9331 48.5509 13.3323C46.0486 12.7315 43.4463 13.4324 43.0459 15.9357C42.6455 18.439 43.2461 23.2454 38.8421 25.8488C34.4382 28.4522 29.3336 31.4562 21.8268 30.8554C14.3201 30.1545 12.1181 23.4456 12.1181 22.0438C12.1181 20.6419 12.6185 18.0385 11.1172 16.9371C9.61581 15.8356 6.91338 16.0359 4.21095 16.8369C1.60861 17.5378 -1.69438 13.7328 1.00805 13.2322Z" transform="translate(238.13 110.645)" fill="#69655E"/>
<path d="M12.3112 19.0248C19.1105 19.0248 24.6225 14.766 24.6225 9.51241C24.6225 4.25885 19.1105 3.05574e-06 12.3112 3.05574e-06C5.51192 3.05574e-06 0 4.25885 0 9.51241C0 14.766 5.51192 19.0248 12.3112 19.0248Z" transform="matrix(0.984688 -0.174471 0.174329 0.984713 252.293 123.272)" fill="white"/>
<path d="M14.7138 22.8292C22.84 22.8292 29.4275 17.7188 29.4275 11.4146C29.4275 5.1105 22.84 0 14.7138 0C6.58759 0 -6.10924e-06 5.1105 -6.10924e-06 11.4146C-6.10924e-06 17.7188 6.58759 22.8292 14.7138 22.8292Z" transform="matrix(0.955565 -0.294812 0.294588 0.955635 290.478 119.408)" fill="white"/>
<path d="M5.40487 10.8142C8.3899 10.8142 10.8097 8.39339 10.8097 5.40712C10.8097 2.42085 8.3899 0 5.40487 0C2.41985 0 1.2218e-05 2.42085 1.2218e-05 5.40712C1.2218e-05 8.39339 2.41985 10.8142 5.40487 10.8142Z" transform="translate(297.491 124.779)" fill="#433E36"/>
<path d="M5.40488 10.8142C8.3899 10.8142 10.8097 8.39339 10.8097 5.40712C10.8097 2.42085 8.3899 0 5.40488 0C2.41985 0 -1.2218e-05 2.42085 -1.2218e-05 5.40712C-1.2218e-05 8.39339 2.41985 10.8142 5.40488 10.8142Z" transform="translate(263.56 127.282)" fill="#433E36"/>
<path d="M145.231 14.0185H7.00631C3.20288 14.0185 -3.05451e-06 10.9144 -3.05451e-06 7.00923C-3.05451e-06 3.20422 3.10279 0 7.00631 0H145.231C149.034 0 152.237 3.10409 152.237 7.00923C152.237 10.9144 149.034 14.0185 145.231 14.0185Z" transform="translate(148.356 18.5386)" fill="white"/>
<path d="M1.03226 3.98981C0.231542 5.49179 -0.669269 8.29548 0.731993 9.69733C2.23334 11.0992 3.13415 11.4997 4.03497 9.99773C4.93578 8.49575 5.53632 4.49047 7.93848 4.5906C10.3406 4.69073 12.7428 5.39166 13.4434 7.79482C14.1441 10.2981 14.3442 11.5998 11.842 13.2019C9.33974 14.9042 7.7383 14.8041 7.83839 17.6077C7.93848 20.4114 7.83839 23.9161 8.43893 25.1176C9.03947 26.3192 10.4407 27.1203 11.6418 25.8186C12.7428 24.5169 12.0422 21.4128 12.3424 20.111C12.6427 18.8093 12.8429 17.9081 14.7446 16.8067C16.6463 15.7052 18.8483 13.0017 18.8483 10.198C18.8483 7.39429 19.1486 3.88968 15.7455 1.88704C12.3424 -0.115594 10.0404 -0.115597 7.43803 0.0846669C4.83569 0.284931 2.33343 1.48652 1.03226 3.98981Z" transform="translate(21.8111 55.6028)" fill="#F5F2EB"/>
<path d="M2.40216 4.80633C3.72884 4.80633 4.80433 3.7304 4.80433 2.40317C4.80433 1.07593 3.72884 0 2.40216 0C1.07548 0 0 1.07593 0 2.40317C0 3.7304 1.07548 4.80633 2.40216 4.80633Z" transform="translate(29.6495 86.7285)" fill="#F5F2EB"/>
<path d="M6.14155 15.42C3.93957 14.1183 2.33813 13.4173 1.13705 14.3185C-0.0640354 15.1196 -0.664576 17.6229 1.13705 20.1262C2.93867 22.7296 8.74391 28.1367 11.3462 29.9391C13.9486 31.7415 13.9486 31.341 17.1515 28.6374C20.3543 25.8337 29.3625 16.221 31.1641 12.7164C32.9657 9.2118 35.9684 5.40679 36.3688 3.80468C36.7691 2.20257 36.7691 -0.80139 34.1668 0.199929C31.5644 1.20125 22.9567 12.6163 20.9549 14.8192C18.9531 17.0221 16.5509 19.4253 15.6501 20.2263C14.8494 21.0274 14.0487 21.6282 12.3472 20.1262C10.7457 18.4239 7.34263 16.1209 6.14155 15.42Z" transform="translate(371.521 90.8342)" fill="#F5F2EB"/>
<path d="M40.3363 4.23073C26.3237 1.82757 6.80613 -7.98536 6.10902e-06 14.2439C9.90893 15.9462 21.5194 17.7485 31.4283 19.3506C30.3273 14.2439 33.5302 8.13588 40.3363 4.23073Z" transform="translate(255.853 135.568)" fill="#F5F2EB"/>
<g opacity="0.2">
<path opacity="0.2" d="M8.74642 88.4274C8.04579 88.5275 7.54533 87.8266 7.64542 87.0255C10.1477 58.4879 7.54533 29.5498 0.0385719 1.61303C-0.161608 0.811972 0.438935 0.11105 1.33975 0.0109182C2.24056 -0.0892137 3.24146 0.511581 3.44164 1.31264C10.6481 29.3496 12.9502 58.1875 10.1477 86.8253C10.0476 87.6263 9.44705 88.3273 8.74642 88.4274Z" transform="translate(74.6514 80.6094)" fill="#433E36"/>
</g>
<path opacity="0.2" d="M30.1271 -6.11157e-06C31.0279 -6.11157e-06 30.3273 10.4137 29.1262 16.9223C28.0252 23.4309 25.1226 36.448 22.7204 40.8538C20.3183 45.2596 9.60866 9.91306 1.2218e-05 9.31226C7.70695 8.51121 12.8115 9.71279 19.7177 13.0171C21.7195 7.30962 23.8214 0.200258 30.1271 -6.11157e-06Z" transform="translate(265.962 142.101)" fill="#433E36"/>
<g opacity="0.5">
<path opacity="0.2" d="M24.1217 1.90251C16.1145 1.70225 8.00722 1.00132 6.10902e-06 -3.05578e-06C0.500457 5.30699 4.40397 9.51253 9.20829 9.51253H22.8205C23.6213 7.30963 23.9215 5.0066 24.1217 1.90251Z" transform="translate(243.342 168.937)" fill="#433E36"/>
<path opacity="0.2" d="M45.2407 -3.05578e-06C49.3444 20.9276 48.4436 41.8551 42.4382 62.7827C40.4364 69.2913 33.1298 75.9 26.8242 77.0014C18.5167 78.4033 10.3093 79.4046 2.0018 79.9053C1.50135 83.0094 0.800715 85.6128 -6.10902e-06 88.016H38.1343C45.2407 88.016 51.4463 82.2083 51.7466 75.0989L54.8494 11.8156C55.1497 5.50725 51.046 0.70092 45.2407 -3.05578e-06Z" transform="translate(290.684 90.3333)" fill="#433E36"/>
</g>
<path opacity="0.2" d="M40.3363 0.700929C39.2353 0.500666 38.1343 0.30039 37.0333 -6.11157e-06C33.6303 5.30698 24.5221 9.112 13.7123 9.112C9.20828 9.112 4.90441 8.41109 1.30117 7.2095C0.800715 8.21082 0.400367 9.4124 6.10902e-06 10.614C9.90893 12.3162 21.5194 14.1186 31.4283 15.7207C30.3273 10.7141 33.5302 4.60607 40.3363 0.700929Z" transform="translate(255.853 139.097)" fill="#433E36"/>
<g opacity="0.2">
<path opacity="0.2" d="M22.4202 3.05578e-06C18.7169 1.80238 14.1127 2.90382 9.1082 2.90382C5.80523 2.90382 2.70243 2.40316 -6.10902e-06 1.6021C0.700625 3.40448 2.10189 5.00659 4.30387 6.10804C11.3102 7.40975 18.4166 8.8116 25.4229 10.1133C21.4193 8.11068 20.7187 3.50462 22.4202 3.05578e-06Z" transform="translate(193.097 197.574)" fill="#433E36"/>
<path opacity="0.2" d="M3.05176e-06 0.399997C0.400003 0.299997 0.699994 0.3 1.09999 0.2C0.799994 0.1 0.500006 0.100003 0.300006 3.05176e-06C0.200006 0.200003 0.100003 0.299997 3.05176e-06 0.399997Z" transform="translate(221.522 192.568)" fill="#433E36"/>
</g>
<path d="M49.7787 -7.63946e-07C38.3685 1.00132 26.9582 2.10277 15.5479 3.10409C9.84277 3.70488 3.03664 4.90646 0.734571 10.2135C-0.966961 14.2187 0.634484 18.7247 2.03575 22.9302C10.3432 47.3624 9.5425 73.7972 9.94286 99.6312C10.0429 103.837 10.143 108.243 12.1448 111.947C14.0466 115.652 18.3504 118.556 22.4541 117.555" transform="translate(80.3612 61.395)" stroke="#69655E" stroke-width="2" stroke-miterlimit="10" stroke-linecap="round"/>
<path d="M27.3246 0C31.5284 0.700923 34.9314 4.10541 36.7331 8.01055C38.5347 11.9157 38.9351 16.3215 39.3354 20.527C39.5356 22.7299 39.7358 24.8327 39.936 27.0356C40.2362 30.34 40.9369 33.5442 41.4373 36.8485C42.1379 41.9553 42.4382 46.9619 42.6384 52.0686C42.8386 57.2754 43.1388 62.4823 43.339 67.6892C43.6393 75.5996 44.0397 83.51 44.3399 91.4204C44.6402 98.9303 44.5401 107.642 38.7349 112.548C35.4319 115.352 31.0279 116.253 26.7241 116.854C17.9161 118.156 8.90802 118.656 0 118.456" transform="translate(105.618 61.5952)" stroke="#69655E" stroke-width="2" stroke-miterlimit="10" stroke-linecap="round"/>
<path d="M6.10902e-06 49.365C10.6096 35.4467 15.4139 17.3228 13.2119 7.63946e-07" transform="translate(146.755 47.7771)" stroke="#69655E" stroke-width="2" stroke-miterlimit="10" stroke-linecap="round"/>
<path d="M8.41604 1.52789e-06C5.71361 2.60343 4.11216 6.10804 2.91108 9.71279C-0.491981 19.8261 -0.892344 30.9408 1.60991 41.3545" transform="translate(75.9827 108.557)" stroke="#69655E" stroke-width="2" stroke-miterlimit="10" stroke-linecap="round"/>
<path d="M3.03605 -1.52789e-06C-2.16864 5.70752 0.433701 14.7194 2.63568 22.1291C7.64019 39.0514 9.34172 57.0752 7.33992 74.5983C6.63929 81.207 5.33812 87.8157 6.13884 94.4244C6.73938 99.3308 9.34172 104.838 14.2461 105.239" transform="translate(75.8578 70.2065)" stroke="#69655E" stroke-width="2" stroke-miterlimit="10" stroke-linecap="round"/>
<path d="M9.71348 -6.11157e-06C8.01195 5.50725 4.80906 14.1186 1.50609 18.8248C0.80546 19.8261 0.705371 19.8261 0.405101 21.0277C-0.0953499 22.6298 -0.0953468 22.7299 0.204924 24.332C0.605284 26.7352 1.30591 28.4375 1.70628 30.8406" transform="translate(99.8079 181.653)" stroke="#69655E" stroke-width="2" stroke-miterlimit="10" stroke-linecap="round"/>
<path d="M9.5569 0C7.55509 7.40976 4.75256 14.6193 1.04923 21.4282C0.648869 22.2293 0.148418 23.0303 0.0483283 23.9315C-0.251942 25.834 0.949142 27.6364 0.849052 29.5389" transform="translate(118.681 180.252)" stroke="#69655E" stroke-width="2" stroke-miterlimit="10" stroke-linecap="round"/>
<path d="M5.98589 3.05578e-06C3.48364 0.400531 1.38175 2.2029 0.380848 4.60606C0.0805771 5.40712 -0.119598 6.20818 0.0805818 7.00924C0.280762 8.11069 1.18157 9.01186 2.08238 9.61266C4.78482 11.3149 8.78842 10.9144 10.6901 8.41108C12.5918 5.90778 11.691 1.50198 8.68833 0.400525" transform="translate(114.846 163.53)" stroke="#C6C0B6" stroke-width="2" stroke-miterlimit="10" stroke-linecap="round"/>
<path d="M3.05451e-06 1.10409C13.6123 -0.0974937 27.3246 -0.297754 41.037 0.403169" transform="translate(102.915 159.121)" stroke="#C6C0B6" stroke-width="2" stroke-miterlimit="10" stroke-linecap="round"/>
<path d="M-1.52725e-06 1.11985C3.90351 0.218666 7.90712 -0.081728 11.9107 0.0184039" transform="translate(108.721 68.3857)" stroke="#C6C0B6" stroke-width="2" stroke-miterlimit="10" stroke-linecap="round"/>
<path d="M49.5683 7.63946e-07C35.2554 0.400528 28.149 0.300397 13.8361 0.700925C9.83252 0.801057 5.42856 1.10145 2.72612 4.00528C0.0236887 6.80897 -0.0764014 11.2148 0.0236887 15.1199C0.223869 25.3334 0.424049 35.4467 0.624229 45.6601C0.624229 48.2636 0.72432 51.0673 1.9254 53.4704C4.72792 59.178 12.2347 60.3795 18.5404 60.4797C29.0498 60.5798 39.4592 59.5785 49.7685 57.4757C52.2707 56.975 54.8731 56.3743 56.8749 54.7722C58.8767 53.17 60.2779 50.4665 59.3771 48.0633" transform="translate(1 42.2698)" stroke="#69655E" stroke-width="2" stroke-miterlimit="10" stroke-linecap="round"/>
<path d="M0 0.0278137C2.30207 -0.0723182 4.80433 0.0278136 6.50586 1.52979C8.20739 3.1319 8.40757 5.73533 8.50766 8.1385C8.70784 15.8487 8.90802 23.5588 9.1082 31.1688" transform="translate(53.571 42.342)" stroke="#69655E" stroke-width="2" stroke-miterlimit="10" stroke-linecap="round"/>
<path d="M0.10009 -1.52789e-06C3.30297 2.00264 6.10549 4.60606 8.30748 7.61002C8.50766 7.91042 8.70784 8.21081 8.70784 8.61134C8.60775 9.31226 7.70694 9.61266 7.00631 9.61266C4.70424 9.71279 2.30207 9.91306 1.52725e-06 10.0132" transform="translate(60.9777 76.7153)" stroke="#69655E" stroke-width="2" stroke-miterlimit="10" stroke-linecap="round"/>
<path d="M2.54157 1.34646C1.64076 2.64817 0.94013 4.05002 0.43968 5.552C0.0393192 6.85371 -0.260952 8.25556 0.339589 9.45714C0.84004 10.6587 2.44148 11.4598 3.54247 10.7589C5.34409 9.6574 4.84364 6.75358 6.345 5.2516C6.94554 4.65081 7.74626 4.55068 8.54698 4.55068C11.4496 4.55068 13.3513 6.55332 13.7517 9.45714C13.8518 10.3583 13.7517 11.3596 13.2512 12.1607C12.0501 13.9631 9.14752 14.1633 8.14662 16.0658C7.74626 16.967 7.74626 17.9684 7.84635 18.9697C7.94644 20.8722 8.14662 22.8748 8.24671 24.7773C8.24671 25.1778 8.3468 25.5784 8.44689 25.8788C9.04743 27.0804 11.0492 26.6798 11.7499 25.5784C12.4505 24.4769 12.3504 22.9749 12.2503 21.6732C12.2503 20.2714 12.2503 18.7694 13.2512 17.7681C13.6516 17.3676 14.2521 17.0672 14.7526 16.7668C18.8563 14.3636 20.3576 8.35569 17.8554 4.25028C15.3531 0.144874 9.3477 -1.25697 5.34409 1.24633" transform="translate(21.8031 55.5427)" stroke="#69655E" stroke-width="2" stroke-miterlimit="10" stroke-linecap="round"/>
<path d="M2.86585 0.104754C1.76485 -0.295773 0.363592 0.505282 0.0633219 1.60673C-0.236948 2.70818 0.563773 4.11003 1.76485 4.31029C2.3654 4.41042 2.86584 4.31029 3.46639 4.11003C4.3672 3.80963 5.26801 3.00858 5.3681 2.10739C5.46819 1.10607 4.3672 0.204886 3.56648 0.605414" transform="translate(29.386 86.9241)" stroke="#69655E" stroke-width="2" stroke-miterlimit="10" stroke-linecap="round"/>
<path d="M10.7409 0.271786C6.33695 0.071522 0.631815 1.27311 0.0312743 5.67891C-0.268996 8.28234 1.63272 10.6855 4.03488 11.787C6.43704 12.8884 9.13947 12.9885 11.7418 12.9885C55.0808 13.5893 98.4198 13.7896 141.759 12.8884C144.661 12.7883 147.564 12.6881 150.066 11.3864C152.569 9.98458 154.37 6.98062 153.469 4.27706C152.268 0.872577 147.664 0.271787 144.061 0.171655C99.5209 -0.228872 54.8807 0.0715231 10.3406 1.07284" transform="translate(146.924 17.5659)" stroke="#87847E" stroke-width="2" stroke-miterlimit="10" stroke-linecap="round"/>
<path d="M0 3.70488C0.600541 1.90251 3.20288 1.20158 4.70423 2.5033C5.30477 3.00396 5.70514 3.70488 6.30568 3.90514C8.40757 4.7062 9.90893 1.00132 12.1109 1.50198C13.6123 1.80237 14.1127 3.90514 15.514 4.30567C18.1163 5.0066 20.018 -0.200265 22.4202 1.00132C23.8214 1.70224 23.6213 4.00528 25.0225 4.7062C27.6249 6.10805 30.1271 -0.300395 32.5293 1.40185C33.5302 2.10277 33.4301 3.80501 34.3309 4.60607C35.6321 5.80765 37.734 4.4058 39.0351 3.10409C40.2362 1.80237 42.3381 0.300395 43.7394 1.50198C44.1397 1.80237 44.3399 2.30303 44.6402 2.70356C45.9414 4.30567 48.6438 4.20554 49.8449 2.60343C50.6456 1.60211 51.046 -7.63946e-07 52.3471 -7.63946e-07C54.2488 0.100131 54.0487 3.80501 55.9504 4.20554C56.651 4.30567 57.3516 3.90514 57.9522 3.40449C59.0532 2.5033 60.2543 1.60211 61.6555 1.40185C63.0568 1.20158 64.6582 2.2029 64.5581 3.60475" transform="translate(154.662 22.3435)" stroke="#69655E" stroke-width="2" stroke-miterlimit="10" stroke-linecap="round"/>
<path d="M4.60415 0C3.30298 1.10145 1.90172 2.10277 0.600544 3.20422C0.300273 3.40449 -3.05451e-06 3.70488 -3.05451e-06 4.00528C-3.05451e-06 4.4058 0.300273 4.7062 0.600544 5.0066C1.50135 5.80765 2.50225 6.50857 3.40306 7.30963" transform="translate(112.324 18.5386)" stroke="#87847E" stroke-width="2" stroke-miterlimit="10" stroke-linecap="round"/>
<path d="M1.52725e-06 3.81973e-07C1.80162 1.20158 3.30297 2.80369 4.30387 4.7062C2.90261 5.60739 1.70153 6.60871 0.700629 7.91042" transform="translate(121.032 18.6387)" stroke="#87847E" stroke-width="2" stroke-miterlimit="10" stroke-linecap="round"/>
<path d="M5.45171 0.415679C4.35072 -0.485508 2.6492 0.215415 1.6483 1.21673C0.247038 2.61858 -0.553695 4.92161 0.447206 6.62386C1.44811 8.3261 4.45081 8.62649 5.25153 6.72399" transform="translate(132.095 19.3245)" stroke="#87847E" stroke-width="2" stroke-miterlimit="10" stroke-linecap="round"/>
<path d="M0 0.479091C1.0009 0.0785637 2.1019 -0.1217 3.1028 0.0785641C3.70334 1.18001 4.0036 2.48173 4.20378 3.68331" transform="translate(135.645 23.3665)" stroke="#87847E" stroke-width="2" stroke-miterlimit="10" stroke-linecap="round"/>
<path d="M29.927 -2.38733e-08C24.2218 -2.38733e-08 18.5167 0.300396 12.8115 0.801055C9.20829 1.20158 5.30477 1.80237 2.90261 4.50594C0.500449 7.2095 0.30027 11.1146 0.30027 14.7194C0.10009 29.8393 -3.05451e-06 45.0594 -3.05451e-06 60.1793" transform="translate(104.317 1.41553)" stroke="#F4EBD3" stroke-width="2" stroke-miterlimit="10" stroke-linecap="round"/>
<path d="M-6.10902e-06 0.115622C58.0523 -0.284905 113.903 0.51615 171.955 0.115622C175.558 0.115622 179.662 0.315886 181.864 3.11958C183.365 5.12222 183.565 7.82578 183.565 10.3291C184.066 36.6638 183.465 62.9985 181.864 89.233" transform="translate(137.547 1)" stroke="#F4EBD3" stroke-width="2" stroke-miterlimit="10" stroke-linecap="round"/>
<path d="M-3.05451e-06 0.468753C29.6267 -0.031247 59.3534 -0.13125 88.9801 0.16875" transform="translate(151.359 148.541)" stroke="#F4EBD3" stroke-width="2" stroke-miterlimit="10" stroke-linecap="round"/>
<path d="M3.60325 3.05578e-06C1.70153 0.801058 0.300267 2.70356 -3.05451e-06 4.80633" transform="translate(98.8117 76.4148)" stroke="#69655E" stroke-width="2" stroke-miterlimit="10" stroke-linecap="round"/>
<path d="M-6.10902e-06 -3.05578e-06C2.40216 -3.05578e-06 4.50406 2.30304 4.40397 4.7062" transform="translate(130.54 72.3093)" stroke="#69655E" stroke-width="2" stroke-miterlimit="10" stroke-linecap="round"/>
<path d="M2.82084 0C4.92273 0 6.42408 2.60343 5.42318 4.40581C4.42228 6.20818 1.41958 6.30831 0.31859 4.50594C-0.682312 2.70356 0.81904 0.100132 2.82084 0Z" transform="translate(104.098 81.6216)" stroke="#69655E" stroke-width="2" stroke-miterlimit="10" stroke-linecap="round"/>
<path d="M2.82084 -1.52789e-06C4.92273 -1.52789e-06 6.42408 2.60343 5.42318 4.4058C4.42228 6.20818 1.41958 6.30831 0.318588 4.50593C-0.682313 2.70356 0.819039 -1.52789e-06 2.82084 -1.52789e-06Z" transform="translate(125.217 79.2185)" stroke="#69655E" stroke-width="2" stroke-miterlimit="10" stroke-linecap="round"/>
<path d="M7.40969 0.603197C6.3087 -0.598386 4.3069 0.202676 3.10582 1.20399C1.50438 2.50571 0.103108 4.30808 0.00301832 6.31072C-0.0970718 9.01428 2.30509 11.4174 4.90744 11.5176C7.60987 11.6177 10.012 9.31468 10.4124 6.71125C10.7127 4.10782 9.01113 1.30412 6.50888 0.402937" transform="translate(115.324 95.7378)" stroke="#69655E" stroke-width="2" stroke-miterlimit="10" stroke-linecap="round"/>
<path d="M1.52725e-06 1.41128C1.60144 0.710359 3.30297 0.109566 5.1046 0.00943378C6.90622 -0.0906981 8.90802 0.610227 9.60865 1.91194" transform="translate(115.527 102.34)" stroke="#69655E" stroke-width="2" stroke-miterlimit="10" stroke-linecap="round"/>
<path d="M6.10902e-06 14.4519C1.40127 7.94331 6.60596 2.43605 13.1118 0.733803C15.7142 0.0328799 18.4166 -0.0672489 21.119 0.032883C27.725 0.233147 34.2308 1.73512 40.3363 4.23842" transform="translate(254.852 135.36)" stroke="#69655E" stroke-width="2" stroke-miterlimit="10" stroke-linecap="round"/>
<path d="M-3.05451e-06 3.05578e-06C5.0045 0.300399 10.1091 0 15.1136 0.200264C20.1181 0.50066 25.3228 1.40185 29.5266 4.20554" transform="translate(255.953 151.013)" stroke="#69655E" stroke-width="2" stroke-miterlimit="10" stroke-linecap="round"/>
<path d="M70.9639 11.216C72.4653 6.10925 75.3679 -0.0989422 80.6726 0.00118967C80.9729 10.9156 79.4716 21.8299 76.4689 32.3438C74.5671 38.7522 71.9648 45.2608 67.1605 49.8669C62.9567 53.9723 57.3516 56.3755 51.7466 58.278C35.2317 63.8854 17.3156 65.5876 -3.05451e-06 63.0843" transform="translate(215.417 142.1)" stroke="#69655E" stroke-width="2" stroke-miterlimit="10" stroke-linecap="round"/>
<path d="M0 39.6522C11.4103 39.5521 22.7205 37.4493 33.33 33.3439C35.8323 32.3426 38.3345 31.2412 40.4364 29.5389C42.6384 27.7365 44.2398 25.3334 45.541 22.9302C49.2443 15.921 50.8458 7.81029 50.0451 0" transform="translate(217.218 163.229)" stroke="#69655E" stroke-width="2" stroke-miterlimit="10" stroke-linecap="round"/>
<path d="M-6.10352e-06 -6.11157e-06C0.799994 1.50197 1.19999 3.30435 0.899988 5.10673" transform="translate(265.662 152.115)" stroke="#69655E" stroke-width="2" stroke-miterlimit="10" stroke-linecap="round"/>
<path d="M0.677492 10.4297C-0.423499 7.72614 -0.223325 4.42179 1.5783 2.21889C3.37992 0.0159863 6.98316 -0.785072 9.28523 0.91717" transform="translate(214.639 194.755)" stroke="#69655E" stroke-width="2" stroke-miterlimit="10" stroke-linecap="round"/>
<path d="M0 0.218514C8.00721 -0.682673 16.4148 1.21983 23.2209 5.62563" transform="translate(200.203 189.045)" stroke="#69655E" stroke-width="2" stroke-miterlimit="10" stroke-linecap="round"/>
<path d="M8.63426 3.05578e-06C5.23119 1.20159 2.32857 3.80501 0.72713 7.10936C0.126589 8.31094 -0.273771 9.61267 0.226679 10.8143C0.82722 12.4164 2.52876 13.2174 4.1302 13.8182C10.2357 15.921 16.8416 16.722 23.3475 16.3215" transform="translate(191.669 189.564)" stroke="#69655E" stroke-width="2" stroke-miterlimit="10" stroke-linecap="round"/>
<path d="M6.10902e-06 0C5.80523 1.00132 11.7105 2.00264 17.5158 3.10409" transform="translate(263.36 145.205)" stroke="#69655E" stroke-width="2" stroke-miterlimit="10" stroke-linecap="round"/>
<path d="M1.2218e-05 0C5.40488 0.801055 10.8097 1.6021 16.2146 2.40316" transform="translate(267.964 141.2)" stroke="#69655E" stroke-width="2" stroke-miterlimit="10" stroke-linecap="round"/>
<path d="M1.2218e-05 -3.05578e-06C4.30389 0.70092 8.60776 1.40185 12.9116 2.10277" transform="translate(274.47 137.896)" stroke="#69655E" stroke-width="2" stroke-miterlimit="10" stroke-linecap="round"/>
<path d="M-6.10902e-06 3.05578e-06C3.10279 0.600794 6.20559 1.10145 9.2083 1.70224" transform="translate(201.604 194.07)" stroke="#69655E" stroke-width="2" stroke-miterlimit="10" stroke-linecap="round"/>
<path d="M-3.05451e-06 -3.05578e-06C3.50315 1.40184 7.20649 2.40317 11.0099 3.10409" transform="translate(198.401 198.976)" stroke="#69655E" stroke-width="2" stroke-miterlimit="10" stroke-linecap="round"/>
<path d="M86.4102 3.05578e-06C59.6862 3.40449 33.0622 7.91042 6.63839 13.4177C4.93686 13.7181 3.23533 14.2187 2.13434 15.5204C1.33362 16.4216 1.13343 17.6232 0.833162 18.8248C0.0324408 23.0303 -0.167736 27.336 0.132534 31.6417" transform="translate(240.607 90.9338)" stroke="#69655E" stroke-width="2" stroke-miterlimit="10" stroke-linecap="round"/>
<path d="M-6.10902e-06 6.11157e-06C4.60414 7.10937 13.4121 11.8156 20.6186 16.2214C21.0189 16.5218 21.4193 16.722 21.9197 16.8222C22.4202 16.9223 22.9206 16.722 23.4211 16.5218C26.8241 15.1199 27.4247 14.5191 30.1271 12.0158" transform="translate(241.64 144.304)" stroke="#69655E" stroke-width="2" stroke-miterlimit="10" stroke-linecap="round"/>
<path d="M6.10902e-06 23.6311C1.30118 25.7339 3.90351 26.6351 6.30567 26.6351C8.70783 26.535 11.11 25.6338 13.312 24.7326C27.725 18.8248 42.238 11.7154 52.4472 -3.05578e-06" transform="translate(290.384 133.39)" stroke="#69655E" stroke-width="2" stroke-miterlimit="10" stroke-linecap="round"/>
<path d="M4.80433 7.82281C6.20559 5.82017 6.00539 2.51582 4.00359 1.01384C2.9026 0.112651 1.40125 -0.187746 -1.2218e-05 0.11265" transform="translate(268.064 127.469)" stroke="#69655E" stroke-width="2" stroke-miterlimit="10" stroke-linecap="round"/>
<path d="M5.77831 0.0731982C2.67551 -0.527593 -0.527382 2.67662 0.0731585 5.78071C0.373429 7.28269 1.37434 8.48427 2.7756 9.18519" transform="translate(264.087 127.409)" stroke="#69655E" stroke-width="2" stroke-miterlimit="10" stroke-linecap="round"/>
<path d="M6.89754 0.151918C4.1951 -0.549005 0.992207 1.25337 0.191486 3.95693C-0.609235 6.6605 1.1924 9.86471 3.89483 10.6658C6.59727 11.4668 9.80016 9.66445 10.6009 6.96089C11.4016 4.25733 9.49987 1.0531 6.79744 0.352179" transform="translate(297.399 124.326)" stroke="#69655E" stroke-width="2" stroke-miterlimit="10" stroke-linecap="round"/>
<path d="M0 0.459981C3.50315 -0.240942 7.2065 -0.140807 10.7097 0.76038C11.8106 1.06078 13.0117 1.4613 13.7124 2.36249C14.413 3.16354 14.7132 4.26499 15.0135 5.36645C15.8142 8.87106 16.0144 12.5759 15.6141 16.1807" transform="translate(329.319 90.1736)" stroke="#69655E" stroke-width="2" stroke-miterlimit="10" stroke-linecap="round"/>
<path d="M0.0999878 -3.05578e-06C0.599988 2.90382 0.500012 5.90778 1.2207e-05 8.71148" transform="translate(343.032 118.871)" stroke="#69655E" stroke-width="2" stroke-miterlimit="10" stroke-linecap="round"/>
<path d="M50.3453 -3.05578e-06C51.046 9.51253 50.4454 19.1252 48.4436 28.5376C47.5428 32.9434 46.0414 37.7497 42.238 40.0528C39.5356 41.6549 36.3327 41.755 33.1298 41.8551C22.1199 42.1555 11.0099 42.3558 1.2218e-05 42.6562" transform="translate(292.486 137.395)" stroke="#69655E" stroke-width="2" stroke-miterlimit="10" stroke-linecap="round"/>
<path d="M-3.05451e-06 6.11157e-06C0.100087 3.30436 0.400364 6.70884 0.600544 10.0132C0.800724 13.4177 1.0009 16.9223 1.30117 20.3268C1.80162 25.9342 2.70243 31.5415 3.50315 37.1489C3.90351 39.7524 4.40397 42.5561 6.30568 44.2583C9.60865 47.2623 15.0135 45.4599 19.0171 47.2623" transform="translate(240.94 130.286)" stroke="#69655E" stroke-width="2" stroke-miterlimit="10" stroke-linecap="round"/>
<path d="M2.20199 0.400528C1.30117 -0.200264 6.10902e-06 0.801057 6.10902e-06 1.80238C6.10902e-06 2.90383 1.20108 3.70488 2.20199 3.60475C3.30298 3.50461 4.20378 2.70356 4.60414 1.70225C4.20378 0.801058 3.40307 0.200262 2.50226 -1.52789e-06" transform="translate(244.343 108.757)" stroke="#C6C0B6" stroke-width="2" stroke-miterlimit="10" stroke-linecap="round"/>
<path d="M1.54091 0.300397C0.239742 0.500661 -0.460901 2.40317 0.33982 3.40448C1.14054 4.50594 3.04226 4.30567 3.74289 3.20422C4.44352 2.10277 3.74289 0.300394 2.44172 -1.52789e-06" transform="translate(250.809 107.255)" stroke="#C6C0B6" stroke-width="2" stroke-miterlimit="10" stroke-linecap="round"/>
<path d="M1.77127 0.665361C0.670277 0.264833 -0.430721 1.86695 0.16982 2.9684C0.770361 3.96972 2.37181 4.06985 3.37272 3.46906C4.07335 3.06853 4.6739 2.16734 4.57381 1.36628C4.47372 0.565226 3.57289 -0.235825 2.77217 0.0645712" transform="translate(256.884 105.989)" stroke="#C6C0B6" stroke-width="2" stroke-miterlimit="10" stroke-linecap="round"/>
<path d="M-6.10902e-06 17.003C6.60594 15.9015 13.1118 14.1993 19.5176 12.0965C20.7186 11.696 22.1199 11.0952 22.6204 9.8936C23.1208 8.79215 22.7204 7.49043 23.0207 6.38898C23.6213 4.18608 26.3237 3.48516 28.5257 3.18476C32.9296 2.48384 37.3336 1.78292 41.7376 1.082C42.0379 2.9845 43.9395 4.38635 45.9413 4.68674C47.8431 4.98714 49.8449 4.48648 51.7466 4.08595C67.0604 0.581336 82.8746 -0.720383 98.5888 0.381068" transform="translate(242.141 99.8652)" stroke="#C6C0B6" stroke-width="2" stroke-miterlimit="10" stroke-linecap="round"/>
<path d="M6.10902e-06 17.5607C32.7295 8.54884 66.0595 -0.663295 100.09 0.0376281" transform="translate(241.841 103.213)" stroke="#C6C0B6" stroke-width="2" stroke-miterlimit="10" stroke-linecap="round"/>
<path d="M2.0018 6.11157e-06C2.40216 2.20291 2.70243 4.30568 3.10279 6.50858C3.40306 8.21082 3.70335 9.91305 3.30299 11.6153C2.90263 13.3175 1.70153 14.9197 -6.10902e-06 15.1199" transform="translate(294.688 180.852)" stroke="#69655E" stroke-width="2" stroke-miterlimit="10" stroke-linecap="round"/>
<path d="M3.10279 -3.05578e-06C3.30297 2.10277 4.30388 3.30435 3.30298 6.00791C2.60235 7.50989 1.10098 7.2095 -1.2218e-05 7.61003" transform="translate(284.579 188.462)" stroke="#69655E" stroke-width="2" stroke-miterlimit="10" stroke-linecap="round"/>
<path d="M11.9297 0.761305C22.5393 0.460909 27.2435 0.360781 37.8531 0.0603849C42.1569 -0.039747 46.4608 -0.139884 50.5645 0.861435C52.166 1.26196 53.7674 1.76262 54.8684 2.9642C56.3697 4.66645 56.5699 7.06962 56.7701 9.27252C57.5708 23.1909 57.8711 37.2093 57.771 51.1277C57.771 53.1303 57.6709 55.3332 56.5699 56.9353C54.9685 59.3385 51.7656 60.0394 48.863 60.4399C36.8522 61.8418 24.7413 60.8404 12.7304 59.8391C9.72774 59.6389 6.52486 59.3385 3.92252 57.7364C1.32018 56.2344 -0.681636 53.0302 0.219175 50.1263" transform="translate(360.028 72.3491)" stroke="#69655E" stroke-width="2" stroke-miterlimit="10" stroke-linecap="round"/>
<path d="M8.46932 0.0756911C7.06806 -0.0244408 5.66679 -0.124571 4.36562 0.47622C1.46301 1.77793 1.06267 6.384 0.762403 9.58822C0.161862 18.2997 -0.13842 26.911 0.0617601 35.6225" transform="translate(359.785 73.135)" stroke="#69655E" stroke-width="2" stroke-miterlimit="10" stroke-linecap="round"/>
<path d="M8.2074 -1.52789e-06C5.50496 2.2029 2.80252 4.50594 -6.10902e-06 6.70884C2.10189 7.5099 5.40487 8.31095 7.60685 8.01055" transform="translate(353.241 110.76)" stroke="#69655E" stroke-width="2" stroke-miterlimit="10" stroke-linecap="round"/>
<path d="M4.24667 15.7799C4.34676 14.4782 2.64524 13.577 1.54425 14.1778C0.343172 14.6784 -0.157278 16.1804 0.0429019 17.382C0.243082 18.6837 0.943695 19.7852 1.74442 20.7865C4.54694 24.5915 8.0501 27.8958 11.9536 30.3991C12.4541 30.6995 12.9545 30.9999 13.455 30.9999C14.0555 30.9999 14.6561 30.5994 15.0564 30.1989C23.7643 23.2898 30.9707 14.4782 35.9752 4.5651C36.3756 3.76404 36.776 2.96299 36.776 2.0618C36.776 1.16062 36.2755 0.259429 35.4748 0.059165C34.4739 -0.241231 33.473 0.659958 32.7724 1.46101C27.1673 7.66919 21.5623 13.9775 15.9572 20.1857C15.657 20.5862 15.2566 20.9867 14.7561 21.0869C14.0555 21.187 13.455 20.6863 12.9545 20.2858C10.2521 17.9828 7.34949 15.88 4.1466 14.1778" transform="translate(371.414 90.6746)" stroke="#69655E" stroke-width="2" stroke-miterlimit="10" stroke-linecap="round"/>
</svg>
