<svg width="560" height="320" viewBox="0 0 560 320" fill="none" xmlns="http://www.w3.org/2000/svg">
<path fill-rule="evenodd" clip-rule="evenodd" d="M0 10C0 4.47715 4.47715 0 10 0H550C555.523 0 560 4.47715 560 10V310C560 315.523 555.523 320 550 320H10C4.47715 320 0 315.523 0 310V10Z" fill="#F5D773"/>
<path d="M10 1H550C554.971 1 559 5.02944 559 10V310C559 314.971 554.971 319 550 319H10C5.02944 319 1 314.971 1 310V10C1 5.02944 5.02944 1 10 1Z" stroke="#FAE9B0" stroke-width="2"/>
<g clip-path="url(#clip0)">
<path fill-rule="evenodd" clip-rule="evenodd" d="M302.156 0C302.156 0 302.156 0 302.156 0C302.543 0 302.896 0.223345 303.061 0.573506C303.061 0.573574 303.061 0.573642 303.061 0.57371L315.451 26.8529C315.781 27.5532 316.485 28 317.26 28H1438C1439.1 28 1440 28.8954 1440 30V64C1440 65.1046 1439.1 66 1438 66H2C0.895431 66 0 65.1046 0 64V30C0 28.8954 0.895431 28 2 28H72.0146C72.7816 28 73.481 27.5614 73.815 26.8711L86.5428 0.564521C86.5428 0.564476 86.5428 0.56443 86.5428 0.564385C86.7099 0.21921 87.0595 0 87.443 0C87.443 0 87.443 0 87.443 0H302.156Z" transform="translate(0 9.28125)" fill="#F9E7A8"/>
<rect width="135" height="13" rx="6.5" transform="translate(95 19)" fill="#C2A440" fill-opacity="0.5"/>
<g filter="url(#filter0_d)">
<path fill-rule="evenodd" clip-rule="evenodd" d="M5 0H2C0.895447 0 0 0.895386 0 2V12C0 13.1046 0.895447 14 2 14H6C7.10455 14 8 13.1046 8 12V11H7V12C7 12.5522 6.55231 13 6 13H2C1.44769 13 1 12.5522 1 12V2C1 1.44775 1.44769 1 2 1H5V0Z" transform="translate(508 51)" fill="#A9A9A9"/>
<rect width="2" height="1" rx="0.5" transform="translate(511 62)" fill="#A9A9A9"/>
<rect width="2" height="1" rx="0.5" transform="translate(511 53)" fill="#A9A9A9"/>
<path fill-rule="evenodd" clip-rule="evenodd" d="M4 0C2.89545 0 2 0.895386 2 2V8L0 10H2C2 11.1046 2.89545 12 4 12H10C11.1046 12 12 11.1046 12 10V2C12 0.895386 11.1046 0 10 0H4Z" transform="translate(512 49)" fill="#4FB300"/>
<path fill-rule="evenodd" clip-rule="evenodd" d="M1.90909 3.95522L0.477273 2.38806L0 2.91045L1.90909 5L6 0.522388L5.52273 0L1.90909 3.95522Z" transform="translate(516 52)" fill="white"/>
<path d="M1.90909 3.95522L0.477273 2.38806L0 2.91045L1.90909 5L6 0.522388L5.52273 0L1.90909 3.95522Z" transform="translate(516 52)" stroke="white" stroke-width="0.75"/>
</g>
<path fill-rule="evenodd" clip-rule="evenodd" d="M0.574041 7.57456L6.03332 12.9136C6.42125 13.2929 7.04094 13.2937 7.42985 12.9154L7.44758 12.8981C7.85113 12.5055 7.85113 11.8572 7.44758 11.4646L3.47091 7.59558H12.7416C13.2939 7.59558 13.7416 7.14786 13.7416 6.59558V6.59558C13.7416 6.04329 13.2939 5.59558 12.7416 5.59558H3.47091L7.44758 1.72653C7.85113 1.33391 7.85113 0.685675 7.44758 0.293052L7.42863 0.27461C7.04021 -0.103296 6.42145 -0.103039 6.03335 0.275189L0.574041 5.59558V5.64087L0.316974 5.89097C-0.0865707 6.2836 -0.0865707 6.93183 0.316974 7.32445L0.574041 7.57456Z" transform="translate(11.7535 49.6857)" fill="#DCC167"/>
<path fill-rule="evenodd" clip-rule="evenodd" d="M0.574041 7.57456L6.03332 12.9136C6.42125 13.2929 7.04094 13.2937 7.42985 12.9154L7.44758 12.8981C7.85113 12.5055 7.85113 11.8572 7.44758 11.4646L3.47091 7.59558H12.743C13.2953 7.59558 13.743 7.14786 13.743 6.59558V6.59558C13.743 6.04329 13.2953 5.59558 12.743 5.59558H3.47091L7.44758 1.72653C7.85113 1.33391 7.85113 0.685675 7.44758 0.293052L7.42863 0.27461C7.04021 -0.103296 6.42145 -0.103039 6.03335 0.275189L0.574041 5.59558V5.64087L0.316974 5.89097C-0.0865707 6.2836 -0.0865707 6.93183 0.316974 7.32445L0.574041 7.57456Z" transform="translate(53.288 62.8768) rotate(-180)" fill="#DCC167"/>
<path fill-rule="evenodd" clip-rule="evenodd" d="M12.2822 2.05025L13.6587 0.710958C14.0623 0.318307 14.3894 0.450975 14.3894 0.990778V6H9.24088C8.67847 6 8.55252 5.67895 8.95327 5.28904L10.8286 3.46447C8.82167 1.51184 5.56778 1.51184 3.56084 3.46447C1.5539 5.41709 1.5539 8.58291 3.56084 10.5355C5.56778 12.4882 8.82167 12.4882 10.8286 10.5355C11.0857 10.2854 11.987 8.83212 12.0778 8.56273C12.2546 8.03793 12.8352 7.75199 13.3746 7.92406C13.914 8.09613 14.2079 8.66105 14.0311 9.18584C13.8415 9.74828 12.7715 11.4737 12.2822 11.9497C9.47245 14.6834 4.917 14.6834 2.10729 11.9497C-0.702428 9.21608 -0.702428 4.78392 2.10729 2.05025C4.917 -0.683418 9.47245 -0.683418 12.2822 2.05025V2.05025Z" transform="translate(66.8916 49.2812)" fill="#DCC167"/>
<path fill-rule="evenodd" clip-rule="evenodd" d="M0 3C0 1.34315 1.34315 0 3 0H393C394.657 0 396 1.34315 396 3V25C396 26.6569 394.657 28 393 28H3C1.34315 28 0 26.6569 0 25V3Z" transform="translate(93 42)" fill="#F7DF8F"/>
<path fill-rule="evenodd" clip-rule="evenodd" d="M6.86984 0L5.15238 5.57828L0 5.72945L4.09099 9.32828L2.62406 15L6.86984 11.6459L11.1156 15L9.64868 9.32828L13.7396 5.72945L8.5873 5.57828L6.86984 0Z" transform="translate(467.935 48)" fill="#F7DF8F"/>
<rect width="228.965" height="13" rx="6.5" transform="translate(104.906 49.7188)" fill="#C2A440" fill-opacity="0.5"/>
<path fill-rule="evenodd" clip-rule="evenodd" d="M6 12C9.31371 12 12 9.31371 12 6C12 2.68629 9.31371 0 6 0C2.68629 0 0 2.68629 0 6C0 9.31371 2.68629 12 6 12Z" transform="translate(13 14.2812)" fill="#FEEBA9"/>
<path fill-rule="evenodd" clip-rule="evenodd" d="M6 12C9.31371 12 12 9.31371 12 6C12 2.68629 9.31371 0 6 0C2.68629 0 0 2.68629 0 6C0 9.31371 2.68629 12 6 12Z" transform="translate(53 14.2812)" fill="#FEEBA9"/>
<path fill-rule="evenodd" clip-rule="evenodd" d="M6 12C9.31371 12 12 9.31371 12 6C12 2.68629 9.31371 0 6 0C2.68629 0 0 2.68629 0 6C0 9.31371 2.68629 12 6 12Z" transform="translate(33 14.2812)" fill="#FEEBA9"/>
<path fill-rule="evenodd" clip-rule="evenodd" d="M2.09581 5.74872C0.804377 3.09196 2.7393 0 5.69331 0H22.7982C24.3295 0 25.7263 0.874141 26.3957 2.25128L30.2845 10.2513C31.5759 12.908 29.641 16 26.687 16H9.58205C8.05083 16 6.65397 15.1259 5.98455 13.7487L2.09581 5.74872Z" transform="translate(312.392 17.2812)" fill="#FEEBA9"/>
<path fill-rule="evenodd" clip-rule="evenodd" d="M1.5 3C2.32837 3 3 2.32837 3 1.5C3 0.671631 2.32837 0 1.5 0C0.671631 0 0 0.671631 0 1.5C0 2.32837 0.671631 3 1.5 3ZM1.5 8C2.32837 8 3 7.32837 3 6.5C3 5.67163 2.32837 5 1.5 5C0.671631 5 0 5.67163 0 6.5C0 7.32837 0.671631 8 1.5 8ZM3 11.5C3 12.3284 2.32837 13 1.5 13C0.671631 13 0 12.3284 0 11.5C0 10.6716 0.671631 10 1.5 10C2.32837 10 3 10.6716 3 11.5Z" transform="translate(539.5 49.7812)" fill="#DCC167"/>
</g>
<defs>
<filter id="filter0_d" x="492" y="33" width="48" height="48" filterUnits="userSpaceOnUse" color-interpolation-filters="sRGB">
<feFlood flood-opacity="0" result="BackgroundImageFix"/>
<feColorMatrix in="SourceAlpha" type="matrix" values="0 0 0 0 0 0 0 0 0 0 0 0 0 0 0 0 0 0 255 0"/>
<feOffset/>
<feGaussianBlur stdDeviation="8"/>
<feColorMatrix type="matrix" values="0 0 0 0 1 0 0 0 0 1 0 0 0 0 1 0 0 0 1 0"/>
<feBlend mode="normal" in2="BackgroundImageFix" result="effect1_dropShadow"/>
<feBlend mode="normal" in="SourceGraphic" in2="effect1_dropShadow" result="shape"/>
</filter>
<clipPath id="clip0">
<rect width="560" height="80" fill="white"/>
</clipPath>
</defs>
</svg>
