<svg width="312" height="88" viewBox="0 0 312 88" fill="none" xmlns="http://www.w3.org/2000/svg">
<rect width="312" height="88" rx="6" fill="#FFF8E0"/>
<rect x="1" y="1" width="310" height="86" rx="5" stroke="#F9E7A8" stroke-width="2"/>
<rect width="188" height="16" rx="8" transform="translate(91 15)" fill="#E3D9B6"/>
<rect width="144" height="12" rx="6" transform="translate(91 38)" fill="#E3D9B6"/>
<path fill-rule="evenodd" clip-rule="evenodd" d="M20.6818 39.2705H19.7498C15.4976 39.2705 13.3686 34.1177 16.3748 31.1042L20.6818 26.7874V12H11C8.79083 12 7 13.7908 7 16V44C7 46.2092 8.79083 48 11 48H25C25.9263 48 26.779 47.6853 27.4571 47.1567C23.6231 46.5857 20.6818 43.2725 20.6818 39.2705ZM32 47.2437V54C32 55.1045 31.1046 56 30 56H6C4.89545 56 4 55.1045 4 54V6C4 4.89551 4.89545 4 6 4H20.6818V1.00024C20.6818 0.661377 20.7028 0.327637 20.7437 0H6C2.68628 0 0 2.68628 0 6V54C0 57.3137 2.68628 60 6 60H30C33.3137 60 36 57.3137 36 54V47.2437H32ZM20.6818 7.01099C20.6222 7.00391 20.5615 7 20.5 7H15.5C14.6716 7 14 7.67163 14 8.5C14 9.32837 14.6716 10 15.5 10H20.5C20.5615 10 20.6222 9.99609 20.6818 9.98901V7.01099ZM15.5 50C14.6716 50 14 50.6716 14 51.5C14 52.3284 14.6716 53 15.5 53H20.5C21.3284 53 22 52.3284 22 51.5C22 50.6716 21.3284 50 20.5 50H15.5Z" transform="translate(14 16)" fill="#A9A9A9"/>
<path fill-rule="evenodd" clip-rule="evenodd" d="M11.1756 0C7.86188 0 5.1756 2.68628 5.1756 6L5.17557 32L0.589788 36.5857C-0.67013 37.8457 0.222204 40 2.004 40H5.17557L5.1756 42C5.1756 45.3137 7.86188 48 11.1756 48H39.1756C42.4893 48 45.1756 45.3137 45.1756 42V6C45.1756 2.68628 42.4893 0 39.1756 0H11.1756Z" transform="translate(32.8244 12)" fill="#4FB300"/>
<path d="M4.60384 16C4.47918 16 4.37151 15.9603 4.28084 15.881C4.20151 15.8017 4.16184 15.6997 4.16184 15.575V14.368C4.16184 14.028 4.30351 13.7503 4.58684 13.535L6.35484 11.801C7.38618 11.0077 8.16818 10.39 8.70084 9.948C9.23351 9.506 9.63584 9.10367 9.90784 8.741C10.1798 8.37833 10.3158 8.03267 10.3158 7.704C10.3158 6.80867 9.87384 6.361 8.98984 6.361C8.52518 6.361 8.16818 6.50267 7.91884 6.786C7.66951 7.058 7.50518 7.40367 7.42584 7.823C7.35784 8.08367 7.16518 8.214 6.84784 8.214H4.72284C4.62084 8.214 4.53584 8.18 4.46784 8.112C4.39984 8.044 4.36584 7.959 4.36584 7.857C4.38851 7.13167 4.58684 6.46867 4.96084 5.868C5.34618 5.256 5.88451 4.77433 6.57584 4.423C7.27851 4.06033 8.08318 3.879 8.98984 3.879C9.94184 3.879 10.7578 4.032 11.4378 4.338C12.1178 4.644 12.6335 5.07467 12.9848 5.63C13.3362 6.18533 13.5118 6.83133 13.5118 7.568C13.5118 8.36133 13.2625 9.08667 12.7638 9.744C12.2765 10.39 11.5285 11.0927 10.5198 11.852L8.95584 13.433H13.3248C13.4495 13.433 13.5515 13.4727 13.6308 13.552C13.7215 13.6313 13.7668 13.7333 13.7668 13.858V15.575C13.7668 15.6997 13.7215 15.8017 13.6308 15.881C13.5515 15.9603 13.4495 16 13.3248 16H4.60384ZM16.1365 16C16.0232 16 15.9212 15.9603 15.8305 15.881C15.7512 15.7903 15.7115 15.6883 15.7115 15.575V4.525C15.7115 4.40033 15.7512 4.29833 15.8305 4.219C15.9212 4.13967 16.0232 4.1 16.1365 4.1H23.9565C24.0812 4.1 24.1832 4.13967 24.2625 4.219C24.3418 4.29833 24.3815 4.40033 24.3815 4.525V6.242C24.3815 6.35533 24.3418 6.45733 24.2625 6.548C24.1832 6.62733 24.0812 6.667 23.9565 6.667H18.7035V9.166H23.6165C23.7412 9.166 23.8432 9.21133 23.9225 9.302C24.0018 9.38133 24.0415 9.48333 24.0415 9.608V11.308C24.0415 11.4213 24.0018 11.5233 23.9225 11.614C23.8432 11.6933 23.7412 11.733 23.6165 11.733H18.7035V15.575C18.7035 15.6997 18.6638 15.8017 18.5845 15.881C18.5052 15.9603 18.4032 16 18.2785 16H16.1365ZM24.8762 16C24.7855 16 24.7005 15.966 24.6212 15.898C24.5532 15.8187 24.5192 15.7337 24.5192 15.643C24.5192 15.575 24.5249 15.524 24.5362 15.49L28.5312 4.576C28.5652 4.44 28.6389 4.32667 28.7522 4.236C28.8655 4.14533 29.0129 4.1 29.1942 4.1H31.7102C31.8915 4.1 32.0389 4.14533 32.1522 4.236C32.2655 4.32667 32.3392 4.44 32.3732 4.576L36.3512 15.49L36.3852 15.643C36.3852 15.7337 36.3455 15.8187 36.2662 15.898C36.1982 15.966 36.1132 16 36.0112 16H33.9202C33.6482 16 33.4669 15.881 33.3762 15.643L32.7132 13.909H28.1742L27.5282 15.643C27.4375 15.881 27.2505 16 26.9672 16H24.8762ZM32.0332 11.461L30.4522 6.973L28.8712 11.461H32.0332Z" transform="translate(38 36)" fill="white"/>
<path opacity="0.7" fill-rule="evenodd" clip-rule="evenodd" d="M8.26138 11.7511C7.47703 12.5524 6.18731 12.5524 5.40295 11.7511L2.58028 8.86758C2.10159 8.37857 1.31449 8.37857 0.835807 8.86758V8.86758C0.371348 9.34205 0.371348 10.1008 0.835807 10.5752L5.40295 15.2408C6.18731 16.0421 7.47703 16.0421 8.26138 15.2408L20.6367 2.59869C21.1012 2.12422 21.1012 1.36551 20.6367 0.89104V0.89104C20.158 0.402037 19.3709 0.402037 18.8923 0.89104L8.26138 11.7511Z" transform="translate(49.3699 19.1575)" fill="white"/>
</svg>
