<svg width="347" height="260" viewBox="0 0 347 260" fill="none" xmlns="http://www.w3.org/2000/svg">
<rect x="3" y="3" width="300" height="172" rx="86" transform="translate(0 82)" fill="#F9E7A8" stroke="white" stroke-width="6"/>
<g clip-path="url(#clip0)">
<path fill-rule="evenodd" clip-rule="evenodd" d="M15 0H6C2.68628 0 0 2.68628 0 6V36C0 39.3137 2.68628 42 6 42H18C21.3137 42 24 39.3137 24 36V33H21V36C21 37.6567 19.6569 39 18 39H6C4.34314 39 3 37.6567 3 36V6C3 4.34326 4.34314 3 6 3H15V0Z" transform="translate(195 124.413)" fill="#A9A9A9"/>
<rect width="6" height="3" rx="1.5" transform="translate(204 157.413)" fill="#A9A9A9"/>
<rect width="6" height="3" rx="1.5" transform="translate(204 130.413)" fill="#A9A9A9"/>
<path fill-rule="evenodd" clip-rule="evenodd" d="M6 6C6 2.68628 8.68628 0 12 0H30C33.3137 0 36 2.68628 36 6V30C36 33.3137 33.3137 36 30 36H12C8.68628 36 6 33.3137 6 30H0L6 24V6ZM13.5 21C12.6716 21 12 21.6716 12 22.5C12 23.3284 12.6716 24 13.5 24H28.5C29.3284 24 30 23.3284 30 22.5C30 21.6716 29.3284 21 28.5 21H13.5ZM12 13.5C12 12.6716 12.6716 12 13.5 12H16.5C17.3284 12 18 12.6716 18 13.5C18 14.3284 17.3284 15 16.5 15H13.5C12.6716 15 12 14.3284 12 13.5ZM25.5 12C24.6716 12 24 12.6716 24 13.5C24 14.3284 24.6716 15 25.5 15H28.5C29.3284 15 30 14.3284 30 13.5C30 12.6716 29.3284 12 28.5 12H25.5Z" transform="translate(207 118.413)" fill="#A9A9A9"/>
</g>
<g clip-path="url(#clip1)">
<path fill-rule="evenodd" clip-rule="evenodd" d="M15 0H6C2.68628 0 0 2.68628 0 6V36C0 39.3137 2.68628 42 6 42H18C21.3137 42 24 39.3137 24 36V33H21V36C21 37.6567 19.6569 39 18 39H6C4.34314 39 3 37.6567 3 36V6C3 4.34326 4.34314 3 6 3H15V0Z" transform="translate(78 124.413)" fill="#A9A9A9"/>
<rect width="6" height="3" rx="1.5" transform="translate(87 157.413)" fill="#A9A9A9"/>
<rect width="6" height="3" rx="1.5" transform="translate(87 130.413)" fill="#A9A9A9"/>
<path fill-rule="evenodd" clip-rule="evenodd" d="M12 0C8.68628 0 6 2.68628 6 6V24L0 30H6C6 33.3137 8.68628 36 12 36H30C33.3137 36 36 33.3137 36 30V6C36 2.68628 33.3137 0 30 0H12Z" transform="translate(90 118.413)" fill="#4FB300"/>
<path fill-rule="evenodd" clip-rule="evenodd" d="M5.72727 11.8657L1.43182 7.16418L0 8.73134L5.72727 15L18 1.56716L16.5682 0L5.72727 11.8657Z" transform="translate(102 127.413)" fill="white" stroke="white" stroke-width="2.25"/>
</g>
<path d="M4.95859 17C4.83859 17 4.73659 16.958 4.65259 16.874C4.56859 16.79 4.52659 16.688 4.52659 16.568V6.614H1.19659C1.07659 6.614 0.974586 6.572 0.890586 6.488C0.806586 6.404 0.764586 6.302 0.764586 6.182V4.85C0.764586 4.718 0.800586 4.61 0.872586 4.526C0.956586 4.442 1.06459 4.4 1.19659 4.4H10.3766C10.5086 4.4 10.6166 4.442 10.7006 4.526C10.7846 4.61 10.8266 4.718 10.8266 4.85V6.182C10.8266 6.302 10.7846 6.404 10.7006 6.488C10.6166 6.572 10.5086 6.614 10.3766 6.614H7.06459V16.568C7.06459 16.688 7.02259 16.79 6.93859 16.874C6.85459 16.958 6.74659 17 6.61459 17H4.95859ZM12.5706 17C12.4506 17 12.3486 16.958 12.2646 16.874C12.1806 16.79 12.1386 16.688 12.1386 16.568V4.652C12.1386 4.52 12.1806 4.418 12.2646 4.346C12.3486 4.262 12.4506 4.22 12.5706 4.22H14.1726C14.3046 4.22 14.4066 4.262 14.4786 4.346C14.5626 4.418 14.6046 4.52 14.6046 4.652V8.756C15.3246 7.892 16.2966 7.46 17.5206 7.46C18.6246 7.46 19.5066 7.826 20.1666 8.558C20.8266 9.278 21.1566 10.262 21.1566 11.51V16.568C21.1566 16.688 21.1146 16.79 21.0306 16.874C20.9586 16.958 20.8566 17 20.7246 17H19.1046C18.9846 17 18.8826 16.958 18.7986 16.874C18.7146 16.79 18.6726 16.688 18.6726 16.568V11.618C18.6726 10.91 18.4986 10.364 18.1506 9.98C17.8146 9.584 17.3226 9.386 16.6746 9.386C16.0386 9.386 15.5346 9.584 15.1626 9.98C14.7906 10.376 14.6046 10.922 14.6046 11.618V16.568C14.6046 16.688 14.5626 16.79 14.4786 16.874C14.4066 16.958 14.3046 17 14.1726 17H12.5706ZM23.8009 6.092C23.6809 6.092 23.5789 6.05 23.4949 5.966C23.4109 5.882 23.3689 5.78 23.3689 5.66V4.364C23.3689 4.244 23.4109 4.142 23.4949 4.058C23.5789 3.974 23.6809 3.932 23.8009 3.932H25.4389C25.5589 3.932 25.6609 3.974 25.7449 4.058C25.8409 4.142 25.8889 4.244 25.8889 4.364V5.66C25.8889 5.78 25.8469 5.882 25.7629 5.966C25.6789 6.05 25.5709 6.092 25.4389 6.092H23.8009ZM23.8729 17C23.7529 17 23.6509 16.958 23.5669 16.874C23.4829 16.79 23.4409 16.688 23.4409 16.568V8.072C23.4409 7.952 23.4829 7.85 23.5669 7.766C23.6509 7.682 23.7529 7.64 23.8729 7.64H25.3669C25.4989 7.64 25.6009 7.682 25.6729 7.766C25.7569 7.838 25.7989 7.94 25.7989 8.072V16.568C25.7989 16.688 25.7569 16.79 25.6729 16.874C25.6009 16.958 25.4989 17 25.3669 17H23.8729ZM31.733 17.18C30.833 17.18 30.077 17.048 29.465 16.784C28.853 16.508 28.397 16.19 28.097 15.83C27.809 15.458 27.665 15.14 27.665 14.876C27.665 14.756 27.707 14.66 27.791 14.588C27.875 14.516 27.971 14.48 28.079 14.48H29.501C29.609 14.48 29.699 14.522 29.771 14.606C29.819 14.642 29.945 14.75 30.149 14.93C30.353 15.122 30.593 15.272 30.869 15.38C31.145 15.488 31.451 15.542 31.787 15.542C32.267 15.542 32.663 15.446 32.975 15.254C33.287 15.062 33.443 14.798 33.443 14.462C33.443 14.21 33.371 14.006 33.227 13.85C33.095 13.694 32.849 13.556 32.489 13.436C32.129 13.304 31.595 13.166 30.887 13.022C29.867 12.806 29.111 12.476 28.619 12.032C28.139 11.588 27.899 11 27.899 10.268C27.899 9.788 28.043 9.338 28.331 8.918C28.619 8.486 29.045 8.138 29.609 7.874C30.185 7.598 30.869 7.46 31.661 7.46C32.465 7.46 33.161 7.592 33.749 7.856C34.337 8.108 34.781 8.414 35.081 8.774C35.393 9.122 35.549 9.434 35.549 9.71C35.549 9.818 35.507 9.914 35.423 9.998C35.351 10.07 35.261 10.106 35.153 10.106H33.821C33.725 10.106 33.623 10.064 33.515 9.98C33.431 9.92 33.299 9.806 33.119 9.638C32.939 9.47 32.729 9.338 32.489 9.242C32.249 9.146 31.967 9.098 31.643 9.098C31.199 9.098 30.851 9.194 30.599 9.386C30.359 9.578 30.239 9.83 30.239 10.142C30.239 10.37 30.299 10.556 30.419 10.7C30.539 10.844 30.773 10.982 31.121 11.114C31.469 11.246 31.991 11.378 32.687 11.51C33.839 11.738 34.661 12.092 35.153 12.572C35.657 13.052 35.909 13.64 35.909 14.336C35.909 15.176 35.543 15.86 34.811 16.388C34.079 16.916 33.053 17.18 31.733 17.18ZM44.0321 17C43.8761 17 43.7501 16.964 43.6541 16.892C43.5701 16.808 43.4981 16.694 43.4381 16.55L40.8641 8.198C40.8521 8.162 40.8461 8.108 40.8461 8.036C40.8461 7.928 40.8821 7.838 40.9541 7.766C41.0381 7.682 41.1281 7.64 41.2241 7.64H42.5561C42.6881 7.64 42.7961 7.676 42.8801 7.748C42.9641 7.82 43.0181 7.898 43.0421 7.982L44.8061 13.94L46.6781 8.036C46.7141 7.928 46.7741 7.838 46.8581 7.766C46.9541 7.682 47.0741 7.64 47.2181 7.64H48.1181C48.2621 7.64 48.3761 7.682 48.4601 7.766C48.5561 7.838 48.6221 7.928 48.6581 8.036L50.5301 13.94L52.2941 7.982C52.3061 7.898 52.3541 7.82 52.4381 7.748C52.5341 7.676 52.6421 7.64 52.7621 7.64H54.0941C54.2021 7.64 54.2921 7.682 54.3641 7.766C54.4481 7.838 54.4901 7.928 54.4901 8.036L54.4541 8.198L51.8801 16.55C51.8321 16.694 51.7601 16.808 51.6641 16.892C51.5801 16.964 51.4601 17 51.3041 17H50.1341C49.8221 17 49.6241 16.85 49.5401 16.55L47.6681 10.862L45.7961 16.55C45.7001 16.85 45.4961 17 45.1841 17H44.0321ZM60.01 17.18C58.678 17.18 57.616 16.796 56.824 16.028C56.044 15.248 55.63 14.156 55.582 12.752L55.564 12.302L55.582 11.852C55.642 10.484 56.062 9.41 56.842 8.63C57.634 7.85 58.69 7.46 60.01 7.46C61.426 7.46 62.518 7.892 63.286 8.756C64.066 9.62 64.456 10.772 64.456 12.212V12.59C64.456 12.71 64.414 12.812 64.33 12.896C64.246 12.98 64.138 13.022 64.006 13.022H58.03V13.166C58.054 13.826 58.234 14.384 58.57 14.84C58.918 15.284 59.392 15.506 59.992 15.506C60.7 15.506 61.27 15.23 61.702 14.678C61.81 14.546 61.894 14.462 61.954 14.426C62.026 14.39 62.128 14.372 62.26 14.372H63.808C63.916 14.372 64.006 14.408 64.078 14.48C64.162 14.54 64.204 14.618 64.204 14.714C64.204 15.002 64.03 15.344 63.682 15.74C63.346 16.124 62.86 16.46 62.224 16.748C61.588 17.036 60.85 17.18 60.01 17.18ZM62.008 11.51V11.456C62.008 10.748 61.828 10.178 61.468 9.746C61.12 9.314 60.634 9.098 60.01 9.098C59.386 9.098 58.9 9.314 58.552 9.746C58.204 10.178 58.03 10.748 58.03 11.456V11.51H62.008ZM71.5507 17.18C70.3147 17.18 69.3547 16.754 68.6707 15.902V16.568C68.6707 16.688 68.6287 16.79 68.5447 16.874C68.4727 16.958 68.3707 17 68.2387 17H66.8167C66.6967 17 66.5947 16.958 66.5107 16.874C66.4267 16.79 66.3847 16.688 66.3847 16.568V4.652C66.3847 4.52 66.4267 4.418 66.5107 4.346C66.5947 4.262 66.6967 4.22 66.8167 4.22H68.3467C68.4787 4.22 68.5807 4.262 68.6527 4.346C68.7367 4.418 68.7787 4.52 68.7787 4.652V8.648C69.4627 7.856 70.3867 7.46 71.5507 7.46C72.7627 7.46 73.6927 7.856 74.3407 8.648C74.9887 9.44 75.3367 10.466 75.3847 11.726C75.3967 11.87 75.4027 12.062 75.4027 12.302C75.4027 12.554 75.3967 12.752 75.3847 12.896C75.3367 14.192 74.9887 15.23 74.3407 16.01C73.6927 16.79 72.7627 17.18 71.5507 17.18ZM70.8847 15.254C72.1807 15.254 72.8707 14.456 72.9547 12.86C72.9667 12.74 72.9727 12.56 72.9727 12.32C72.9727 12.08 72.9667 11.9 72.9547 11.78C72.8707 10.184 72.1807 9.386 70.8847 9.386C70.2127 9.386 69.6967 9.602 69.3367 10.034C68.9887 10.454 68.8027 10.964 68.7787 11.564L68.7607 12.248L68.7787 12.95C68.8147 13.598 69.0007 14.144 69.3367 14.588C69.6727 15.032 70.1887 15.254 70.8847 15.254ZM80.9518 17.18C80.0518 17.18 79.2958 17.048 78.6838 16.784C78.0718 16.508 77.6158 16.19 77.3158 15.83C77.0278 15.458 76.8838 15.14 76.8838 14.876C76.8838 14.756 76.9258 14.66 77.0098 14.588C77.0938 14.516 77.1898 14.48 77.2978 14.48H78.7198C78.8278 14.48 78.9178 14.522 78.9898 14.606C79.0378 14.642 79.1638 14.75 79.3678 14.93C79.5718 15.122 79.8118 15.272 80.0878 15.38C80.3638 15.488 80.6698 15.542 81.0058 15.542C81.4858 15.542 81.8818 15.446 82.1938 15.254C82.5058 15.062 82.6618 14.798 82.6618 14.462C82.6618 14.21 82.5898 14.006 82.4458 13.85C82.3138 13.694 82.0678 13.556 81.7078 13.436C81.3478 13.304 80.8138 13.166 80.1058 13.022C79.0858 12.806 78.3298 12.476 77.8378 12.032C77.3578 11.588 77.1178 11 77.1178 10.268C77.1178 9.788 77.2618 9.338 77.5498 8.918C77.8378 8.486 78.2638 8.138 78.8278 7.874C79.4038 7.598 80.0878 7.46 80.8798 7.46C81.6838 7.46 82.3798 7.592 82.9678 7.856C83.5558 8.108 83.9998 8.414 84.2998 8.774C84.6118 9.122 84.7678 9.434 84.7678 9.71C84.7678 9.818 84.7258 9.914 84.6418 9.998C84.5698 10.07 84.4798 10.106 84.3718 10.106H83.0398C82.9438 10.106 82.8418 10.064 82.7338 9.98C82.6498 9.92 82.5178 9.806 82.3378 9.638C82.1578 9.47 81.9478 9.338 81.7078 9.242C81.4678 9.146 81.1858 9.098 80.8618 9.098C80.4178 9.098 80.0698 9.194 79.8178 9.386C79.5778 9.578 79.4578 9.83 79.4578 10.142C79.4578 10.37 79.5178 10.556 79.6378 10.7C79.7578 10.844 79.9918 10.982 80.3398 11.114C80.6878 11.246 81.2098 11.378 81.9058 11.51C83.0578 11.738 83.8798 12.092 84.3718 12.572C84.8758 13.052 85.1278 13.64 85.1278 14.336C85.1278 15.176 84.7618 15.86 84.0298 16.388C83.2978 16.916 82.2718 17.18 80.9518 17.18ZM87.3459 6.092C87.2259 6.092 87.1239 6.05 87.0399 5.966C86.9559 5.882 86.9139 5.78 86.9139 5.66V4.364C86.9139 4.244 86.9559 4.142 87.0399 4.058C87.1239 3.974 87.2259 3.932 87.3459 3.932H88.9839C89.1039 3.932 89.2059 3.974 89.2899 4.058C89.3859 4.142 89.4339 4.244 89.4339 4.364V5.66C89.4339 5.78 89.3919 5.882 89.3079 5.966C89.2239 6.05 89.1159 6.092 88.9839 6.092H87.3459ZM87.4179 17C87.2979 17 87.1959 16.958 87.1119 16.874C87.0279 16.79 86.9859 16.688 86.9859 16.568V8.072C86.9859 7.952 87.0279 7.85 87.1119 7.766C87.1959 7.682 87.2979 7.64 87.4179 7.64H88.9119C89.0439 7.64 89.1459 7.682 89.2179 7.766C89.3019 7.838 89.3439 7.94 89.3439 8.072V16.568C89.3439 16.688 89.3019 16.79 89.2179 16.874C89.1459 16.958 89.0439 17 88.9119 17H87.4179ZM95.9619 17C94.8699 17 94.0479 16.718 93.4959 16.154C92.9559 15.578 92.6859 14.738 92.6859 13.634V9.548H91.2639C91.1439 9.548 91.0419 9.506 90.9579 9.422C90.8739 9.326 90.8319 9.218 90.8319 9.098V8.072C90.8319 7.952 90.8739 7.85 90.9579 7.766C91.0419 7.682 91.1439 7.64 91.2639 7.64H92.6859V4.652C92.6859 4.52 92.7279 4.418 92.8119 4.346C92.8959 4.262 92.9979 4.22 93.1179 4.22H94.5759C94.7079 4.22 94.8099 4.262 94.8819 4.346C94.9659 4.418 95.0079 4.52 95.0079 4.652V7.64H97.2579C97.3899 7.64 97.4919 7.682 97.5639 7.766C97.6479 7.838 97.6899 7.94 97.6899 8.072V9.098C97.6899 9.23 97.6479 9.338 97.5639 9.422C97.4799 9.506 97.3779 9.548 97.2579 9.548H95.0079V13.454C95.0079 13.97 95.0979 14.36 95.2779 14.624C95.4579 14.888 95.7579 15.02 96.1779 15.02H97.4199C97.5399 15.02 97.6419 15.062 97.7259 15.146C97.8099 15.23 97.8519 15.332 97.8519 15.452V16.568C97.8519 16.688 97.8099 16.79 97.7259 16.874C97.6539 16.958 97.5519 17 97.4199 17H95.9619ZM103.481 17.18C102.149 17.18 101.087 16.796 100.295 16.028C99.5147 15.248 99.1007 14.156 99.0527 12.752L99.0347 12.302L99.0527 11.852C99.1127 10.484 99.5327 9.41 100.313 8.63C101.105 7.85 102.161 7.46 103.481 7.46C104.897 7.46 105.989 7.892 106.757 8.756C107.537 9.62 107.927 10.772 107.927 12.212V12.59C107.927 12.71 107.885 12.812 107.801 12.896C107.717 12.98 107.609 13.022 107.477 13.022H101.501V13.166C101.525 13.826 101.705 14.384 102.041 14.84C102.389 15.284 102.863 15.506 103.463 15.506C104.171 15.506 104.741 15.23 105.173 14.678C105.281 14.546 105.365 14.462 105.425 14.426C105.497 14.39 105.599 14.372 105.731 14.372H107.279C107.387 14.372 107.477 14.408 107.549 14.48C107.633 14.54 107.675 14.618 107.675 14.714C107.675 15.002 107.501 15.344 107.153 15.74C106.817 16.124 106.331 16.46 105.695 16.748C105.059 17.036 104.321 17.18 103.481 17.18ZM105.479 11.51V11.456C105.479 10.748 105.299 10.178 104.939 9.746C104.591 9.314 104.105 9.098 103.481 9.098C102.857 9.098 102.371 9.314 102.023 9.746C101.675 10.178 101.501 10.748 101.501 11.456V11.51H105.479ZM21.6409 34C21.5209 34 21.4189 33.958 21.3349 33.874C21.2509 33.79 21.2089 33.688 21.2089 33.568V21.652C21.2089 21.52 21.2509 21.418 21.3349 21.346C21.4189 21.262 21.5209 21.22 21.6409 21.22H23.2429C23.3749 21.22 23.4769 21.262 23.5489 21.346C23.6329 21.418 23.6749 21.52 23.6749 21.652V25.756C24.3949 24.892 25.3669 24.46 26.5909 24.46C27.6949 24.46 28.5769 24.826 29.2369 25.558C29.8969 26.278 30.2269 27.262 30.2269 28.51V33.568C30.2269 33.688 30.1849 33.79 30.1009 33.874C30.0289 33.958 29.9269 34 29.7949 34H28.1749C28.0549 34 27.9529 33.958 27.8689 33.874C27.7849 33.79 27.7429 33.688 27.7429 33.568V28.618C27.7429 27.91 27.5689 27.364 27.2209 26.98C26.8849 26.584 26.3929 26.386 25.7449 26.386C25.1089 26.386 24.6049 26.584 24.2329 26.98C23.8609 27.376 23.6749 27.922 23.6749 28.618V33.568C23.6749 33.688 23.6329 33.79 23.5489 33.874C23.4769 33.958 23.3749 34 23.2429 34H21.6409ZM35.2292 34.18C34.6172 34.18 34.0532 34.06 33.5372 33.82C33.0332 33.568 32.6312 33.232 32.3312 32.812C32.0432 32.392 31.8992 31.93 31.8992 31.426C31.8992 30.61 32.2292 29.95 32.8892 29.446C33.5492 28.942 34.4552 28.6 35.6072 28.42L38.0732 28.06V27.682C38.0732 27.154 37.9412 26.758 37.6772 26.494C37.4132 26.23 36.9872 26.098 36.3992 26.098C36.0032 26.098 35.6792 26.176 35.4272 26.332C35.1872 26.476 34.9952 26.62 34.8512 26.764C34.7072 26.92 34.6112 27.022 34.5632 27.07C34.5152 27.214 34.4252 27.286 34.2932 27.286H32.9072C32.7992 27.286 32.7032 27.25 32.6192 27.178C32.5472 27.106 32.5112 27.01 32.5112 26.89C32.5232 26.59 32.6672 26.248 32.9432 25.864C33.2312 25.48 33.6692 25.15 34.2572 24.874C34.8452 24.598 35.5652 24.46 36.4172 24.46C37.8332 24.46 38.8652 24.778 39.5132 25.414C40.1612 26.05 40.4852 26.884 40.4852 27.916V33.568C40.4852 33.688 40.4432 33.79 40.3592 33.874C40.2872 33.958 40.1852 34 40.0532 34H38.5952C38.4752 34 38.3732 33.958 38.2892 33.874C38.2052 33.79 38.1632 33.688 38.1632 33.568V32.866C37.8992 33.25 37.5212 33.568 37.0292 33.82C36.5492 34.06 35.9492 34.18 35.2292 34.18ZM35.8412 32.47C36.5012 32.47 37.0412 32.254 37.4612 31.822C37.8812 31.39 38.0912 30.76 38.0912 29.932V29.554L36.2912 29.842C35.5952 29.95 35.0672 30.124 34.7072 30.364C34.3592 30.604 34.1852 30.898 34.1852 31.246C34.1852 31.63 34.3472 31.93 34.6712 32.146C34.9952 32.362 35.3852 32.47 35.8412 32.47ZM46.3404 34.18C45.4404 34.18 44.6844 34.048 44.0724 33.784C43.4604 33.508 43.0044 33.19 42.7044 32.83C42.4164 32.458 42.2724 32.14 42.2724 31.876C42.2724 31.756 42.3144 31.66 42.3984 31.588C42.4824 31.516 42.5784 31.48 42.6864 31.48H44.1084C44.2164 31.48 44.3064 31.522 44.3784 31.606C44.4264 31.642 44.5524 31.75 44.7564 31.93C44.9604 32.122 45.2004 32.272 45.4764 32.38C45.7524 32.488 46.0584 32.542 46.3944 32.542C46.8744 32.542 47.2704 32.446 47.5824 32.254C47.8944 32.062 48.0504 31.798 48.0504 31.462C48.0504 31.21 47.9784 31.006 47.8344 30.85C47.7024 30.694 47.4564 30.556 47.0964 30.436C46.7364 30.304 46.2024 30.166 45.4944 30.022C44.4744 29.806 43.7184 29.476 43.2264 29.032C42.7464 28.588 42.5064 28 42.5064 27.268C42.5064 26.788 42.6504 26.338 42.9384 25.918C43.2264 25.486 43.6524 25.138 44.2164 24.874C44.7924 24.598 45.4764 24.46 46.2684 24.46C47.0724 24.46 47.7684 24.592 48.3564 24.856C48.9444 25.108 49.3884 25.414 49.6884 25.774C50.0004 26.122 50.1564 26.434 50.1564 26.71C50.1564 26.818 50.1144 26.914 50.0304 26.998C49.9584 27.07 49.8684 27.106 49.7604 27.106H48.4284C48.3324 27.106 48.2304 27.064 48.1224 26.98C48.0384 26.92 47.9064 26.806 47.7264 26.638C47.5464 26.47 47.3364 26.338 47.0964 26.242C46.8564 26.146 46.5744 26.098 46.2504 26.098C45.8064 26.098 45.4584 26.194 45.2064 26.386C44.9664 26.578 44.8464 26.83 44.8464 27.142C44.8464 27.37 44.9064 27.556 45.0264 27.7C45.1464 27.844 45.3804 27.982 45.7284 28.114C46.0764 28.246 46.5984 28.378 47.2944 28.51C48.4464 28.738 49.2684 29.092 49.7604 29.572C50.2644 30.052 50.5164 30.64 50.5164 31.336C50.5164 32.176 50.1504 32.86 49.4184 33.388C48.6864 33.916 47.6604 34.18 46.3404 34.18ZM56.5418 34C56.4218 34 56.3198 33.958 56.2358 33.874C56.1518 33.79 56.1098 33.688 56.1098 33.568V32.65C56.1098 32.326 56.2598 32.044 56.5598 31.804L59.4038 28.978C60.6398 28.006 61.4978 27.25 61.9778 26.71C62.4698 26.158 62.7158 25.618 62.7158 25.09C62.7158 24.526 62.5598 24.082 62.2478 23.758C61.9478 23.434 61.4918 23.272 60.8798 23.272C60.2798 23.272 59.8058 23.452 59.4578 23.812C59.1098 24.16 58.8938 24.616 58.8098 25.18C58.7738 25.324 58.7078 25.432 58.6118 25.504C58.5158 25.564 58.4078 25.594 58.2878 25.594H56.6858C56.5778 25.594 56.4878 25.558 56.4158 25.486C56.3438 25.414 56.3078 25.33 56.3078 25.234C56.3318 24.526 56.5238 23.866 56.8838 23.254C57.2438 22.63 57.7658 22.132 58.4498 21.76C59.1338 21.376 59.9378 21.184 60.8618 21.184C61.8218 21.184 62.6318 21.352 63.2918 21.688C63.9638 22.012 64.4678 22.462 64.8038 23.038C65.1398 23.614 65.3078 24.268 65.3078 25C65.3078 25.804 65.0798 26.53 64.6238 27.178C64.1798 27.826 63.4958 28.522 62.5718 29.266L60.0158 31.858H65.1458C65.2778 31.858 65.3798 31.9 65.4518 31.984C65.5358 32.056 65.5778 32.158 65.5778 32.29V33.568C65.5778 33.688 65.5358 33.79 65.4518 33.874C65.3798 33.958 65.2778 34 65.1458 34H56.5418ZM68.2803 34C68.1603 34 68.0583 33.958 67.9743 33.874C67.8903 33.79 67.8483 33.688 67.8483 33.568V21.85C67.8483 21.718 67.8843 21.61 67.9563 21.526C68.0403 21.442 68.1483 21.4 68.2803 21.4H76.0923C76.2243 21.4 76.3323 21.442 76.4163 21.526C76.5003 21.61 76.5423 21.718 76.5423 21.85V23.11C76.5423 23.242 76.5003 23.35 76.4163 23.434C76.3323 23.506 76.2243 23.542 76.0923 23.542H70.3143V26.962H75.7323C75.8643 26.962 75.9723 27.004 76.0563 27.088C76.1403 27.172 76.1823 27.28 76.1823 27.412V28.672C76.1823 28.804 76.1403 28.912 76.0563 28.996C75.9723 29.068 75.8643 29.104 75.7323 29.104H70.3143V33.568C70.3143 33.7 70.2723 33.808 70.1883 33.892C70.1043 33.964 69.9963 34 69.8643 34H68.2803ZM77.1466 34C77.0506 34 76.9606 33.964 76.8766 33.892C76.8046 33.82 76.7686 33.73 76.7686 33.622L76.8046 33.46L81.1426 21.85C81.2266 21.55 81.4366 21.4 81.7726 21.4H83.7346C84.0466 21.4 84.2566 21.55 84.3646 21.85L88.7026 33.46C88.7146 33.496 88.7206 33.55 88.7206 33.622C88.7206 33.73 88.6846 33.82 88.6126 33.892C88.5406 33.964 88.4566 34 88.3606 34H86.7946C86.6386 34 86.5186 33.964 86.4346 33.892C86.3506 33.82 86.2966 33.742 86.2726 33.658L85.4266 31.462H80.0806L79.2346 33.658C79.1386 33.886 78.9646 34 78.7126 34H77.1466ZM84.7966 29.392L82.7446 23.83L80.7106 29.392H84.7966Z" transform="translate(47 181.413)" fill="#4FB300"/>
<path d="M10.9786 17C10.8586 17 10.7566 16.958 10.6726 16.874C10.5886 16.79 10.5466 16.688 10.5466 16.568V4.85C10.5466 4.718 10.5826 4.61 10.6546 4.526C10.7386 4.442 10.8466 4.4 10.9786 4.4H12.3646C12.5086 4.4 12.6166 4.43 12.6886 4.49C12.7606 4.538 12.8266 4.604 12.8866 4.688L18.0706 12.752V4.85C18.0706 4.718 18.1066 4.61 18.1786 4.526C18.2626 4.442 18.3706 4.4 18.5026 4.4H20.0146C20.1466 4.4 20.2546 4.442 20.3386 4.526C20.4226 4.61 20.4646 4.718 20.4646 4.85V16.55C20.4646 16.682 20.4226 16.79 20.3386 16.874C20.2546 16.958 20.1526 17 20.0326 17H18.6286C18.4246 17 18.2506 16.904 18.1066 16.712L12.9406 8.828V16.568C12.9406 16.7 12.8986 16.808 12.8146 16.892C12.7306 16.964 12.6226 17 12.4906 17H10.9786ZM27.1971 17.18C25.7931 17.18 24.7071 16.82 23.9391 16.1C23.1711 15.368 22.7571 14.372 22.6971 13.112L22.6791 12.32L22.6971 11.528C22.7571 10.28 23.1771 9.29 23.9571 8.558C24.7371 7.826 25.8171 7.46 27.1971 7.46C28.5771 7.46 29.6571 7.826 30.4371 8.558C31.2171 9.29 31.6371 10.28 31.6971 11.528C31.7091 11.672 31.7151 11.936 31.7151 12.32C31.7151 12.704 31.7091 12.968 31.6971 13.112C31.6371 14.372 31.2231 15.368 30.4551 16.1C29.6871 16.82 28.6011 17.18 27.1971 17.18ZM27.1971 15.398C27.8331 15.398 28.3251 15.2 28.6731 14.804C29.0211 14.396 29.2131 13.802 29.2491 13.022C29.2611 12.902 29.2671 12.668 29.2671 12.32C29.2671 11.972 29.2611 11.738 29.2491 11.618C29.2131 10.838 29.0211 10.25 28.6731 9.854C28.3251 9.446 27.8331 9.242 27.1971 9.242C26.5611 9.242 26.0691 9.446 25.7211 9.854C25.3731 10.25 25.1811 10.838 25.1451 11.618L25.1271 12.32L25.1451 13.022C25.1811 13.802 25.3731 14.396 25.7211 14.804C26.0691 15.2 26.5611 15.398 27.1971 15.398ZM37.8768 17C37.7568 17 37.6548 16.958 37.5708 16.874C37.4868 16.79 37.4448 16.688 37.4448 16.568V15.65C37.4448 15.326 37.5948 15.044 37.8948 14.804L40.7388 11.978C41.9748 11.006 42.8328 10.25 43.3128 9.71C43.8048 9.158 44.0508 8.618 44.0508 8.09C44.0508 7.526 43.8948 7.082 43.5828 6.758C43.2828 6.434 42.8268 6.272 42.2148 6.272C41.6148 6.272 41.1408 6.452 40.7928 6.812C40.4448 7.16 40.2288 7.616 40.1448 8.18C40.1088 8.324 40.0428 8.432 39.9468 8.504C39.8508 8.564 39.7428 8.594 39.6228 8.594H38.0208C37.9128 8.594 37.8228 8.558 37.7508 8.486C37.6788 8.414 37.6428 8.33 37.6428 8.234C37.6668 7.526 37.8588 6.866 38.2188 6.254C38.5788 5.63 39.1008 5.132 39.7848 4.76C40.4688 4.376 41.2728 4.184 42.1968 4.184C43.1568 4.184 43.9668 4.352 44.6268 4.688C45.2988 5.012 45.8028 5.462 46.1388 6.038C46.4748 6.614 46.6428 7.268 46.6428 8C46.6428 8.804 46.4148 9.53 45.9588 10.178C45.5148 10.826 44.8308 11.522 43.9068 12.266L41.3508 14.858H46.4808C46.6128 14.858 46.7148 14.9 46.7868 14.984C46.8708 15.056 46.9128 15.158 46.9128 15.29V16.568C46.9128 16.688 46.8708 16.79 46.7868 16.874C46.7148 16.958 46.6128 17 46.4808 17H37.8768ZM49.6153 17C49.4953 17 49.3933 16.958 49.3093 16.874C49.2253 16.79 49.1833 16.688 49.1833 16.568V4.85C49.1833 4.718 49.2193 4.61 49.2913 4.526C49.3753 4.442 49.4833 4.4 49.6153 4.4H57.4273C57.5593 4.4 57.6673 4.442 57.7513 4.526C57.8353 4.61 57.8773 4.718 57.8773 4.85V6.11C57.8773 6.242 57.8353 6.35 57.7513 6.434C57.6673 6.506 57.5593 6.542 57.4273 6.542H51.6493V9.962H57.0673C57.1993 9.962 57.3073 10.004 57.3913 10.088C57.4753 10.172 57.5173 10.28 57.5173 10.412V11.672C57.5173 11.804 57.4753 11.912 57.3913 11.996C57.3073 12.068 57.1993 12.104 57.0673 12.104H51.6493V16.568C51.6493 16.7 51.6073 16.808 51.5233 16.892C51.4393 16.964 51.3313 17 51.1993 17H49.6153ZM58.4816 17C58.3856 17 58.2956 16.964 58.2116 16.892C58.1396 16.82 58.1036 16.73 58.1036 16.622L58.1396 16.46L62.4776 4.85C62.5616 4.55 62.7716 4.4 63.1076 4.4H65.0696C65.3816 4.4 65.5916 4.55 65.6996 4.85L70.0376 16.46C70.0496 16.496 70.0556 16.55 70.0556 16.622C70.0556 16.73 70.0196 16.82 69.9476 16.892C69.8756 16.964 69.7916 17 69.6956 17H68.1296C67.9736 17 67.8536 16.964 67.7696 16.892C67.6856 16.82 67.6316 16.742 67.6076 16.658L66.7616 14.462H61.4156L60.5696 16.658C60.4736 16.886 60.2996 17 60.0476 17H58.4816ZM66.1316 12.392L64.0796 6.83L62.0456 12.392H66.1316ZM21.3978 34C21.2778 34 21.1758 33.958 21.0918 33.874C21.0078 33.79 20.9658 33.688 20.9658 33.568V21.652C20.9658 21.52 21.0078 21.418 21.0918 21.346C21.1758 21.262 21.2778 21.22 21.3978 21.22H22.9998C23.1318 21.22 23.2338 21.262 23.3058 21.346C23.3898 21.418 23.4318 21.52 23.4318 21.652V25.756C24.1518 24.892 25.1238 24.46 26.3478 24.46C27.4518 24.46 28.3338 24.826 28.9938 25.558C29.6538 26.278 29.9838 27.262 29.9838 28.51V33.568C29.9838 33.688 29.9418 33.79 29.8578 33.874C29.7858 33.958 29.6838 34 29.5518 34H27.9318C27.8118 34 27.7098 33.958 27.6258 33.874C27.5418 33.79 27.4998 33.688 27.4998 33.568V28.618C27.4998 27.91 27.3258 27.364 26.9778 26.98C26.6418 26.584 26.1498 26.386 25.5018 26.386C24.8658 26.386 24.3618 26.584 23.9898 26.98C23.6178 27.376 23.4318 27.922 23.4318 28.618V33.568C23.4318 33.688 23.3898 33.79 23.3058 33.874C23.2338 33.958 23.1318 34 22.9998 34H21.3978ZM36.3001 34.18C34.9681 34.18 33.9061 33.796 33.1141 33.028C32.3341 32.248 31.9201 31.156 31.8721 29.752L31.8541 29.302L31.8721 28.852C31.9321 27.484 32.3521 26.41 33.1321 25.63C33.9241 24.85 34.9801 24.46 36.3001 24.46C37.7161 24.46 38.8081 24.892 39.5761 25.756C40.3561 26.62 40.7461 27.772 40.7461 29.212V29.59C40.7461 29.71 40.7041 29.812 40.6201 29.896C40.5361 29.98 40.4281 30.022 40.2961 30.022H34.3201V30.166C34.3441 30.826 34.5241 31.384 34.8601 31.84C35.2081 32.284 35.6821 32.506 36.2821 32.506C36.9901 32.506 37.5601 32.23 37.9921 31.678C38.1001 31.546 38.1841 31.462 38.2441 31.426C38.3161 31.39 38.4181 31.372 38.5501 31.372H40.0981C40.2061 31.372 40.2961 31.408 40.3681 31.48C40.4521 31.54 40.4941 31.618 40.4941 31.714C40.4941 32.002 40.3201 32.344 39.9721 32.74C39.6361 33.124 39.1501 33.46 38.5141 33.748C37.8781 34.036 37.1401 34.18 36.3001 34.18ZM38.2981 28.51V28.456C38.2981 27.748 38.1181 27.178 37.7581 26.746C37.4101 26.314 36.9241 26.098 36.3001 26.098C35.6761 26.098 35.1901 26.314 34.8421 26.746C34.4941 27.178 34.3201 27.748 34.3201 28.456V28.51H38.2981ZM43.0888 34C42.9688 34 42.8667 33.958 42.7827 33.874C42.6987 33.79 42.6567 33.688 42.6567 33.568V25.09C42.6567 24.97 42.6987 24.868 42.7827 24.784C42.8667 24.688 42.9688 24.64 43.0888 24.64H44.5468C44.6787 24.64 44.7867 24.682 44.8707 24.766C44.9547 24.85 44.9967 24.958 44.9967 25.09V25.828C45.2847 25.444 45.6448 25.15 46.0768 24.946C46.5208 24.742 47.0248 24.64 47.5888 24.64H48.3268C48.4587 24.64 48.5607 24.682 48.6328 24.766C48.7168 24.838 48.7588 24.94 48.7588 25.072V26.368C48.7588 26.488 48.7168 26.59 48.6328 26.674C48.5607 26.758 48.4587 26.8 48.3268 26.8H46.9228C46.3588 26.8 45.9148 26.962 45.5908 27.286C45.2668 27.61 45.1048 28.054 45.1048 28.618V33.568C45.1048 33.688 45.0628 33.79 44.9787 33.874C44.8947 33.958 44.7867 34 44.6548 34H43.0888ZM54.0716 34.18C52.7396 34.18 51.6776 33.796 50.8856 33.028C50.1056 32.248 49.6916 31.156 49.6436 29.752L49.6256 29.302L49.6436 28.852C49.7036 27.484 50.1236 26.41 50.9036 25.63C51.6956 24.85 52.7516 24.46 54.0716 24.46C55.4876 24.46 56.5796 24.892 57.3476 25.756C58.1276 26.62 58.5176 27.772 58.5176 29.212V29.59C58.5176 29.71 58.4756 29.812 58.3916 29.896C58.3076 29.98 58.1996 30.022 58.0676 30.022H52.0916V30.166C52.1156 30.826 52.2956 31.384 52.6316 31.84C52.9796 32.284 53.4536 32.506 54.0536 32.506C54.7616 32.506 55.3316 32.23 55.7636 31.678C55.8716 31.546 55.9556 31.462 56.0156 31.426C56.0876 31.39 56.1896 31.372 56.3216 31.372H57.8696C57.9776 31.372 58.0676 31.408 58.1396 31.48C58.2236 31.54 58.2656 31.618 58.2656 31.714C58.2656 32.002 58.0916 32.344 57.7436 32.74C57.4076 33.124 56.9216 33.46 56.2856 33.748C55.6496 34.036 54.9116 34.18 54.0716 34.18ZM56.0696 28.51V28.456C56.0696 27.748 55.8896 27.178 55.5296 26.746C55.1816 26.314 54.6956 26.098 54.0716 26.098C53.4476 26.098 52.9616 26.314 52.6136 26.746C52.2656 27.178 52.0916 27.748 52.0916 28.456V28.51H56.0696Z" transform="translate(176 181.413)" fill="#A9A9A9"/>
<circle cx="25" cy="25" r="22" transform="translate(256)" stroke="white" stroke-width="6"/>
<path d="M0 35.5537L212.408 0Z" transform="translate(58.6091 51.636) rotate(-11.9988)" stroke="white" stroke-width="6" stroke-dasharray="6 8"/>
<path d="M0 145.109L41.7661 0Z" transform="translate(262.864 35.9651) rotate(-16.057)" stroke="white" stroke-width="6" stroke-dasharray="6 8"/>
<defs>
<clipPath id="clip0">
<rect width="48" height="48" fill="white" transform="translate(195 118.413)"/>
</clipPath>
<clipPath id="clip1">
<rect width="48" height="48" fill="white" transform="translate(78 118.413)"/>
</clipPath>
</defs>
</svg>
