<svg width="330" height="234" viewBox="0 0 330 234" fill="none" xmlns="http://www.w3.org/2000/svg">
<path d="M24.2681 39.2541C14.8624 43.0541 5.45668 38.4541 3.85571 30.5541L0.153457 13.0541C-0.847151 8.65413 3.15528 3.55413 8.95882 1.25413C14.7623 -1.04587 21.1662 -0.145868 23.5677 3.65413L32.9734 18.8541C37.276 25.7541 33.6739 35.4541 24.2681 39.2541Z" transform="translate(252.087 1.51294)" fill="white"/>
<path d="M3.05522 27.4493C8.75869 21.8493 18.4646 17.3493 30.4719 14.9493L23.4676 3.74929C21.1662 -0.150714 14.6623 -1.05071 8.95882 1.24929C3.15528 3.54929 -0.847151 8.64929 0.153457 13.1493L3.05522 27.4493Z" transform="translate(252.087 1.51782)" fill="#87847E"/>
<path d="M32.2041 57.0759C18.1956 61.5759 5.18764 54.2759 3.58666 42.6759L0.0845314 17.3759C-0.816017 10.9759 5.58788 3.97593 14.0931 1.27593C22.5982 -1.52407 31.9039 0.375932 34.9057 6.07593L46.913 28.5759C52.4164 38.8759 46.2126 52.4759 32.2041 57.0759Z" transform="translate(257.659 27.5911)" fill="white"/>
<path d="M0.200123 11.7098C1.8011 23.2098 14.809 30.6098 28.8175 26.1098C39.0237 22.7098 45.1275 14.5098 45.5277 6.40975C45.7278 2.70975 42.4258 -0.190245 38.7236 0.00975528C23.8145 1.00976 10.3063 4.80976 0 10.6098L0.200123 11.7098Z" transform="translate(261.046 58.5574)" fill="#87847E"/>
<path d="M2.10128 8.60227C1.50091 8.90227 0.700426 9.10227 0 9.10227L0.500304 12.6023C11.9072 6.90227 26.7163 3.40227 42.8261 3.30227L41.125 0.102269C27.7169 -0.597731 14.2086 2.30227 2.10128 8.60227Z" transform="translate(259.545 48.8647)" fill="#87847E"/>
<path d="M35.5216 0C23.8145 0.2 12.1074 3.1 1.50091 8.6C1.00061 8.8 0.500305 9 3.81702e-07 9.1C3.81702e-07 9.5 7.60422e-07 9.9 0.100062 10.3L0.500305 13.5C12.4075 7.8 25.3154 5 38.2233 5.1L35.5216 0Z" transform="translate(257.643 34.7671)" fill="#87847E"/>
<path d="M35.5216 7.07593L34.9213 6.07593C31.9194 0.37593 22.6138 -1.52407 14.1086 1.27593C6.10371 3.87593 3.81702e-07 10.1759 3.81702e-07 16.1759C0.500305 16.0759 1.00061 15.9759 1.50091 15.6759C12.1074 10.1759 23.7144 7.27593 35.5216 7.07593Z" transform="translate(257.643 27.6912)" fill="#69655E"/>
<path d="M3.81702e-07 8.30259L1.40085 18.1026C2.10128 18.1026 2.80171 17.9026 3.50213 17.6026C15.6095 11.3026 29.1177 8.40259 42.5259 9.10259L37.723 0.00258519C24.8151 -0.0974148 11.9072 2.70259 3.81702e-07 8.30259Z" transform="translate(258.144 39.8645)" fill="#69655E"/>
<path d="M2.50152 4C3.88307 4 5.00304 3.10457 5.00304 2C5.00304 0.89543 3.88307 0 2.50152 0C1.11997 0 0 0.89543 0 2C0 3.10457 1.11997 4 2.50152 4Z" transform="translate(239.732 7.26709)" fill="#B2DFE9"/>
<path d="M3.00151 4.00043C4.65919 4.00043 6.00302 3.1049 6.00302 2.00021C6.00302 0.895526 4.65919 0 3.00151 0C1.34382 0 0 0.895526 0 2.00021C0 3.1049 1.34382 4.00043 3.00151 4.00043Z" transform="translate(238.168 15.7153) rotate(-24.7019)" fill="#B2DFE9"/>
<path d="M1.90058 2.40073C2.95024 2.40073 3.80116 1.86331 3.80116 1.20036C3.80116 0.537421 2.95024 0 1.90058 0C0.850918 0 0 0.537421 0 1.20036C0 1.86331 0.850918 2.40073 1.90058 2.40073Z" transform="translate(246.257 31.1311) scale(1.00029 0.999686) rotate(-45)" fill="#B2DFE9"/>
<path d="M1.50091 3C2.32985 3 3.00183 2.32843 3.00183 1.5C3.00183 0.671573 2.32985 0 1.50091 0C0.671982 0 0 0.671573 0 1.5C0 2.32843 0.671982 3 1.50091 3Z" transform="translate(264.748 13.2671)" fill="#F5F2EB"/>
<path d="M1.50091 3C2.32985 3 3.00183 2.32843 3.00183 1.5C3.00183 0.671573 2.32985 0 1.50091 0C0.671982 0 0 0.671573 0 1.5C0 2.32843 0.671982 3 1.50091 3Z" transform="translate(271.752 11.2671)" fill="#F5F2EB"/>
<path opacity="0.3" d="M21.5131 11C33.3944 11 43.0262 8.53757 43.0262 5.5C43.0262 2.46243 33.3944 0 21.5131 0C9.63174 0 0 2.46243 0 5.5C0 8.53757 9.63174 11 21.5131 11Z" transform="translate(244.736 93.2671)" fill="#87847E"/>
<path opacity="0.2" d="M32.6888 38.8048C16.9792 38.8048 4.17145 22.0048 4.17145 1.30478C4.17145 0.00477779 2.47042 -0.495223 1.76999 0.604777C0.469199 2.80478 -0.231226 5.20478 0.068957 7.60478L3.57109 32.9048C5.27212 44.3048 18.28 51.7048 32.2886 47.2048C38.0921 45.3048 42.4948 41.9048 45.3965 37.8048C46.197 36.7048 44.8962 35.3048 43.6955 36.0048C40.2934 37.8048 36.5912 38.8048 32.6888 38.8048Z" transform="translate(257.575 36.4622)" fill="#433E36"/>
<path opacity="0.2" d="M5.75516 14.2C5.75516 9.1 6.25546 4.3 7.25607 -4.76837e-08C2.45315 2.6 -0.748801 7.1 0.151747 11.1L3.854 28.6C4.55442 32.1 6.75576 34.9 9.85765 36.7C7.35613 30.6 5.75516 22.8 5.75516 14.2Z" transform="translate(251.988 3.56689)" fill="#433E36"/>
<path d="M9.15349 34.167C6.55191 29.667 3.45002 25.567 2.04917 20.367C0.84844 15.967 1.14862 11.367 3.34996 7.36701C5.5513 3.46701 9.35362 1.06701 13.8564 1.36701C18.8594 1.76701 23.162 5.16701 25.9637 9.16701C29.3658 14.067 31.2669 19.767 33.3682 25.267C33.6684 26.067 34.9692 25.667 34.669 24.867C30.8667 15.367 26.8643 2.16701 15.1571 0.167008C5.15106 -1.43299 -1.05272 8.76701 0.148014 17.767C0.948501 23.867 4.35057 30.167 8.55313 34.667C8.85331 35.067 9.45368 34.567 9.15349 34.167Z" transform="translate(250.291)" fill="#69655E"/>
<path d="M28.9375 0.0797951C26.3359 -0.220205 23.4342 0.379797 20.9327 0.979797C18.1309 1.5798 15.3292 2.3798 12.6276 3.4798C8.12486 5.2798 2.82163 7.3798 0.119986 11.5798C-0.380319 12.2798 0.82041 12.9798 1.22065 12.2798C2.62151 10.1798 4.62272 8.8798 6.724 7.6798C9.0254 6.3798 11.5269 5.2798 14.0284 4.3798C16.3298 3.4798 18.7313 2.7798 21.2328 2.2798C23.8344 1.6798 26.436 1.4798 29.0376 0.879796C29.5379 0.679796 29.3378 0.0797951 28.9375 0.0797951Z" transform="translate(257.624 25.9873)" fill="#69655E"/>
<path d="M-7.63404e-07 11.5314C-7.63404e-07 16.8314 0.300183 22.1314 0.700426 27.3314C1.00061 32.3314 1.40085 37.4314 2.10128 42.4314C2.70164 46.5314 4.00243 50.1314 7.50457 52.5314C10.8066 54.8314 15.1092 55.8314 19.0116 56.3314C27.3166 57.5314 36.5222 56.4314 42.8261 50.4314C45.5277 47.8314 47.629 44.5314 48.5295 40.8314C49.4301 36.7314 48.5295 32.8314 46.7284 29.0314C44.427 24.0314 41.4252 19.3314 38.5234 14.7314C35.5216 9.83137 32.3197 5.03137 29.0177 0.33137C28.4173 -0.46863 27.1165 0.331371 27.7169 1.13137C33.0201 8.63137 37.9231 16.4314 42.5259 24.4314C44.7272 28.1314 47.1287 32.1314 47.4289 36.5314C47.629 40.2314 46.3282 43.9314 44.2269 46.8314C39.1238 53.8314 30.5186 55.9314 22.3136 55.3314C18.4112 55.0314 14.1086 54.2314 10.5064 52.6314C8.80536 51.8314 7.20438 50.8314 6.00365 49.3314C4.6028 47.6314 3.90237 45.5314 3.50213 43.4314C2.50152 38.2314 2.20134 32.8314 1.8011 27.6314C1.40085 22.3314 1.10067 16.9314 0.900549 11.5314C0.900549 11.0314 -7.63404e-07 10.9314 -7.63404e-07 11.5314Z" transform="translate(258.344 26.7356)" fill="#69655E"/>
<path d="M18.0304 0.0128702C16.0292 -0.0871298 13.9279 0.412872 12.0268 0.912872C10.2257 1.41287 8.62469 1.91287 7.3239 3.41287C6.12317 4.91287 5.0225 6.61287 3.92183 8.21287C2.62104 10.1129 1.32025 11.9129 0.119517 13.8129C-0.380787 14.5129 0.819943 15.2129 1.32025 14.5129C3.62165 11.5129 5.62287 8.21287 7.82421 5.11287C10.1256 1.81287 14.5283 1.91287 18.1305 0.912872C18.6308 0.812872 18.5307 0.0128702 18.0304 0.0128702Z" transform="translate(243.415 39.5542)" fill="#69655E"/>
<path d="M0.229917 11.2705C3.43187 13.4705 7.63442 11.7705 10.5362 9.87047C13.8382 7.67047 17.3403 4.57047 19.2415 1.07047C19.6417 0.370473 18.6411 -0.429526 18.1408 0.270474C15.8394 3.17047 13.6381 5.87047 10.6363 8.07047C7.83455 10.1705 4.13229 12.0705 0.630158 10.3705C0.129854 10.1705 -0.270388 10.9705 0.229917 11.2705Z" transform="translate(292.735 26.4966)" fill="#69655E"/>
<path d="M0.781556 12.6208C2.08235 11.0208 3.38314 9.62085 5.18423 8.52085C6.98533 7.42085 8.88649 6.52085 10.7876 5.62085C14.9902 3.82085 19.3929 2.32085 23.8956 1.32085C24.7962 1.12085 24.3959 -0.179154 23.4954 0.0208461C18.7925 1.12085 14.1897 2.62085 9.8871 4.62085C6.2849 6.22085 1.88223 8.32085 0.0811307 12.0208C-0.219052 12.5208 0.381312 13.1208 0.781556 12.6208Z" transform="translate(255.661 16.2461)" fill="#69655E"/>
<path d="M3.30831 0.161926C1.60727 -0.538074 0.106358 1.16193 0.00629755 2.76193C-0.0937633 4.46193 1.00691 6.16193 2.70794 6.46193C4.40898 6.76193 6.21007 5.56193 6.41019 3.86193C6.61032 2.16193 5.20946 0.461926 3.40837 0.561926C3.00812 0.561926 3.00812 1.16193 3.40837 1.16193C4.70916 1.26193 5.90989 2.36193 5.70977 3.76193C5.50965 5.06193 4.20886 5.86193 3.00812 5.76193C-0.193824 5.56193 0.00629832 -0.238074 3.20825 0.561926C3.40837 0.561926 3.50843 0.161926 3.30831 0.161926Z" transform="translate(263.941 11.405)" fill="#F5F2EB"/>
<path d="M2.62341 0.0157855C1.02243 0.315785 -0.178302 2.01579 0.0218202 3.61579C0.221942 5.21579 1.72286 6.11579 3.22377 6.11579C4.72468 6.01579 6.02547 4.91579 6.02547 3.41579C6.02547 1.91579 4.9248 0.415786 3.32383 0.415786C2.92359 0.415786 2.82353 1.01579 3.22377 1.01579C5.92541 1.41579 6.02548 5.41579 3.12371 5.51579C-0.0782384 5.51579 0.0218209 1.31579 2.72346 0.515785C3.02365 0.315785 2.82353 -0.0842145 2.62341 0.0157855Z" transform="translate(271.33 9.15112)" fill="#F5F2EB"/>
<path d="M1.25744 0.0647578C0.156773 1.06476 -0.343531 2.76476 0.256834 4.16476C0.456956 4.56476 1.05732 4.36476 0.957259 3.96476C0.557016 2.66476 0.757138 1.46476 1.65769 0.464758C1.85781 0.164758 1.55763 -0.135242 1.25744 0.0647578Z" transform="translate(258.988 9.40234)" fill="#F5F2EB"/>
<path d="M7.6283 1.82623C6.12738 0.82623 0.523973 -1.67377 0.0236689 1.72623C-0.176453 3.02623 0.924217 4.02623 2.12495 4.22623C4.12617 4.52623 5.8272 3.02623 7.6283 2.62623C8.02854 2.52623 7.82842 1.82623 7.42818 1.92623C6.52763 2.12623 5.72714 2.52623 4.92665 2.92623C3.82598 3.42623 0.323852 4.22623 0.924217 1.72623C1.52458 -0.673769 6.12738 1.42623 7.32811 2.22623C7.72836 2.42623 7.92848 2.02623 7.6283 1.82623Z" transform="translate(238.708 7.14087)" fill="#87CDDC"/>
<path d="M6.99095 0.613125C5.38997 -0.186875 3.58888 -0.186875 1.9879 0.513125C0.787174 1.11313 -0.613679 2.51312 0.286869 3.91312C1.08736 5.11312 2.78839 5.21313 3.98912 4.81313C5.49004 4.31313 6.69077 3.11313 7.19107 1.61313C7.29113 1.21313 6.69077 1.01313 6.59071 1.41313C5.89028 3.21313 3.38876 5.31312 1.38754 4.01312C-0.613679 2.71312 2.38815 1.11313 3.48882 0.813125C4.68955 0.513125 5.79022 0.713125 6.89089 1.11313C7.09101 1.11313 7.29113 0.713125 6.99095 0.613125Z" transform="translate(238.145 14.1538)" fill="#87CDDC"/>
<path d="M2.85679 0.0201269C1.75612 0.620127 0.655451 1.72013 0.155146 2.82013C-0.245097 3.72013 0.155146 4.52013 1.05569 4.72013C3.15697 5.02013 4.3577 2.52013 3.65728 0.820126C3.45716 0.420126 2.95685 0.820127 3.15697 1.12013C3.65728 2.22013 2.85679 4.32013 1.35588 4.12013C-0.745402 3.92013 2.55661 0.720126 3.15697 0.320126C3.35709 0.220126 3.05691 -0.0798731 2.85679 0.0201269Z" transform="translate(246.382 27.8469)" fill="#87CDDC"/>
<path d="M0.513101 4.26398C4.81572 2.76398 8.81815 1.06398 13.521 0.963981C17.7236 0.863981 21.9261 1.86398 25.7284 3.76398C29.7309 5.66398 33.133 8.26398 35.9347 11.664C38.2361 14.564 40.3373 17.864 43.4392 20.064C44.0396 20.464 44.8401 19.564 44.2397 19.064C42.6387 17.664 41.1378 16.164 39.737 14.564C38.5362 13.064 37.4356 11.464 36.1348 9.96398C33.133 6.46398 29.3306 4.06398 25.1281 2.26398C17.1232 -1.13602 7.71749 -0.736022 0.212919 3.66398C-0.187324 3.76398 0.0127969 4.36398 0.513101 4.26398Z" transform="translate(285.548 73.803)" fill="#69655E"/>
<path d="M20.5367 0.0935518C17.835 3.09355 15.4336 6.09355 11.8314 7.99355C9.63005 9.19355 7.32865 10.1936 5.02725 11.2936C2.92597 12.3936 0.624571 13.6936 0.0242058 16.0936C-0.175916 16.8936 0.924754 17.0936 1.12488 16.3936C2.22555 13.7936 4.92719 12.6936 7.32865 11.5936C9.32987 10.5936 11.4311 9.59355 13.4324 8.49355C16.7344 6.49355 18.9357 3.49355 21.2371 0.493553C21.3372 0.293553 20.7368 -0.206448 20.5367 0.0935518Z" transform="translate(251.015 80.8735)" fill="#69655E"/>
<path d="M0.585715 9.90642C5.28858 8.10642 9.89138 6.20642 14.6943 4.70642C19.4972 3.20642 24.4002 2.00642 29.3032 1.10642C30.0036 1.00642 29.7034 -0.0935825 29.003 0.0064175C19.197 1.80642 9.19095 4.60642 0.185472 9.20642C-0.214772 9.30642 0.0854106 10.1064 0.585715 9.90642Z" transform="translate(261.56 53.8606)" fill="#69655E"/>
<path d="M0.418288 12.1064C10.4244 8.20642 19.8301 2.40642 30.7367 1.10642C31.4372 1.00642 31.4372 -0.093581 30.7367 0.00641903C25.4335 0.606419 20.4305 2.30642 15.5275 4.30642C10.3243 6.50642 5.12115 8.80642 0.218168 11.5064C-0.182076 11.7064 0.0180446 12.3064 0.418288 12.1064Z" transform="translate(261.027 56.7605)" fill="#69655E"/>
<path d="M0.40288 0.289623C-0.297546 2.48962 -0.0974238 4.98962 1.10331 6.98962C1.50355 7.58962 2.4041 7.08962 2.10392 6.38962C1.10331 4.48962 0.803125 2.48962 1.30343 0.489624C1.40349 -0.0103762 0.603002 -0.210377 0.40288 0.289623Z" transform="translate(292.162 52.6775)" fill="#69655E"/>
<path d="M0.37891 1.72725C1.27946 1.52725 2.18 1.32725 3.08055 1.22725C3.38073 1.12725 4.38134 0.927254 4.78159 1.02725C5.58207 1.32725 5.68214 2.12725 5.68214 2.82725C5.58208 5.02725 3.78098 6.32725 1.6797 6.22725C0.979275 6.22725 0.979275 7.22725 1.6797 7.32725C4.38134 7.62725 6.88287 5.42726 6.7828 2.62726C6.7828 1.62726 6.48262 0.227253 5.38195 0.0272535C4.78159 -0.0727465 3.9811 0.127254 3.38074 0.227254C2.28007 0.427254 1.37952 0.727256 0.37891 1.12726C-0.221455 1.22726 -0.0213333 1.82725 0.37891 1.72725Z" transform="translate(292.586 52.5398)" fill="#69655E"/>
<path d="M0.58374 2.00701C1.68441 1.70701 2.68502 1.50701 3.68563 1.10701C4.286 0.907009 4.08587 -0.0929935 3.38544 0.00700651C2.28477 0.307007 1.28417 0.707009 0.283558 1.10701C-0.216746 1.30701 -0.016625 2.10701 0.58374 2.00701Z" transform="translate(298.785 51.8601)" fill="#69655E"/>
<path d="M0.489921 1.66083C2.0909 1.16083 3.79193 1.06083 5.3929 1.16083C6.09333 1.26083 6.09333 0.160823 5.3929 0.0608235C3.59181 -0.139177 1.89077 0.160827 0.289799 0.860827C-0.210506 1.06083 -0.0103833 1.86083 0.489921 1.66083Z" transform="translate(298.779 55.3062)" fill="#69655E"/>
<path d="M7.63404e-07 2C7.63404e-07 0.9 3.60219 0 8.00487 0" transform="translate(271.252 21.7671)" stroke="#69655E" stroke-miterlimit="10" stroke-linecap="round"/>
<path d="M61.8642 154.628L17.7097 156.42C8.13689 156.779 0.119658 149.608 0.119658 140.526L0 13.8547C0 4.53361 8.13689 -1.56097 17.7097 0.351058L62.3429 8.95517C70.4798 10.5087 77.0611 18.5153 76.9414 26.8804L76.4628 139.331C76.4628 147.338 70.0011 154.269 61.8642 154.628Z" transform="translate(129.233 44)" fill="white"/>
<path d="M74.8362 92.5249C51.9811 91.4494 29.2457 90.3739 6.39062 89.1788C-1.98558 88.8203 -1.50694 83.8013 4.23674 76.0337C17.9976 57.7499 19.1942 32.5351 7.22825 12.9369C2.32218 4.69127 2.32218 -0.447299 10.6984 0.0307072C33.5535 1.10622 56.2889 2.18173 79.1439 3.37675C87.4005 3.73525 100.922 9.47133 105.828 17.7169C117.674 37.3152 116.478 62.4105 102.837 80.8137C97.0929 88.5813 83.0927 93.0029 74.8362 92.5249Z" transform="translate(0.908066 88.1775)" fill="white"/>
<path d="M53.4911 112.74L11.3708 113.696C7.42203 113.816 4.19121 110.828 3.95189 107.124L0.00310646 6.86177C-0.116554 2.55971 3.23393 -0.427828 7.42203 0.0501784L52.8928 5.90575C56.6023 6.38376 59.5938 9.9688 59.5938 13.9124V106.407C59.7135 109.872 56.9613 112.74 53.4911 112.74Z" transform="translate(141.315 61.6287)" fill="#F5F2EB"/>
<path d="M16.1541 19.7203L6.10267 20.9153C2.75218 21.2738 -3.65173e-06 19.4812 -3.65173e-06 16.3742L0.239322 8.60661C0.358982 4.06555 4.66675 -0.117002 9.45315 0.00249983L23.2141 0.361006C26.8039 0.480507 28.0004 3.94605 26.3252 7.7701L23.2141 14.4622C21.8978 17.2107 18.9063 19.3618 16.1541 19.7203Z" transform="translate(146.225 67.7708)" fill="#87CDDC"/>
<path d="M7.26493 18.2967L15.8804 19.6112C18.6326 20.0892 21.1455 18.2967 21.3848 15.5481L22.1028 8.61705C22.4617 4.793 19.7096 0.96895 16.0001 0.729947L4.3931 0.012937C1.16227 -0.226066 -0.632626 2.88097 0.204994 6.46602L1.76056 12.9191C2.47852 15.6676 4.87173 17.9382 7.26493 18.2967Z" transform="translate(180.003 71.9429)" fill="#87CDDC"/>
<path d="M6.5813 15.5352C10.2161 15.5352 13.1626 12.0575 13.1626 7.7676C13.1626 3.47767 10.2161 0 6.5813 0C2.94655 0 0 3.47767 0 7.7676C0 12.0575 2.94655 15.5352 6.5813 15.5352Z" transform="translate(151.968 104.938)" fill="#F3CD50"/>
<path d="M12.8036 141.721L8.85484 18.7543C8.61552 11.9427 12.5643 5.96763 18.4276 3.09959C19.7439 2.50209 19.5046 0.590061 18.0687 0.351058H17.8293C8.13688 -1.56097 0 4.53361 0 13.8547L0.119658 140.526C0.119658 149.728 8.13689 156.779 17.7097 156.42C19.0259 156.42 19.6242 154.747 18.5473 153.911C15.1968 150.923 12.9233 146.621 12.8036 141.721Z" transform="translate(129.233 45.1951)" fill="#87CDDC"/>
<path d="M67.5731 6.8963L4.99088 34.0231C3.19598 34.8597 1.0421 34.0232 0.324145 32.1111C-0.513476 30.3186 0.324143 28.1676 2.2387 27.4506L64.8209 0.323714C66.6158 -0.512796 68.7697 0.323717 69.4876 2.23574C70.2056 4.02826 69.368 6.17929 67.5731 6.8963Z" transform="translate(148.653 109.753)" fill="#BCB9B5"/>
<path d="M7.84433 19.6646L0.425409 5.20491C-0.531871 3.41238 0.186093 1.26135 1.98099 0.424844C3.77589 -0.531168 5.92977 0.185845 6.76739 1.97837L14.1863 16.4381C15.1436 18.2306 14.4256 20.3816 12.6307 21.2181C10.9555 22.0546 8.68195 21.3376 7.84433 19.6646Z" transform="translate(167.697 130.326)" fill="#BCB9B5"/>
<path d="M92.5534 28.0874C66.4675 22.3513 38.2277 19.2443 8.43239 18.7663C5.08191 18.7663 1.97075 16.4957 1.49211 13.8667C1.01347 10.8792 0.53483 7.89161 0.0561902 4.90407C-0.42245 2.15554 2.21007 -0.114988 5.91953 0.00451346C38.2277 0.960526 68.7411 5.02358 96.7415 11.7157C99.733 12.4327 101.528 14.9422 100.93 17.3322C100.212 19.9613 99.4937 22.4708 98.7757 24.9803C98.0578 27.2509 95.3056 28.6849 92.5534 28.0874Z" transform="translate(7.961 88.6816)" fill="#F5F2EB"/>
<path d="M2.9915 5.97508C4.64366 5.97508 5.983 4.63751 5.983 2.98754C5.983 1.33757 4.64366 0 2.9915 0C1.33934 0 0 1.33757 0 2.98754C0 4.63751 1.33934 5.97508 2.9915 5.97508Z" transform="translate(88.5484 127.644)" fill="#69655E"/>
<path d="M2.9915 5.97508C4.64366 5.97508 5.983 4.63751 5.983 2.98754C5.983 1.33757 4.64366 0 2.9915 0C1.33934 0 0 1.33757 0 2.98754C0 4.63751 1.33934 5.97508 2.9915 5.97508Z" transform="translate(50.2572 127.644)" fill="#69655E"/>
<path d="M11.725 5.97508L13.2806 3.46555C14.2379 1.91203 13.0413 0 11.3661 0H2.27189C0.476994 0 -0.599949 1.91203 0.357331 3.46555L1.79325 5.97508C3.94713 9.67962 9.45149 9.67962 11.725 5.97508Z" transform="translate(46.0708 132.424)" fill="#BCB9B5"/>
<path d="M13.7609 4.0033L10.6497 0.537755C10.0514 -0.179254 8.85484 -0.179254 8.25654 0.537755C6.46164 2.68878 3.47014 4.1228 0 4.48131C0.11966 4.72031 0.239319 4.83981 0.358979 5.07882L5.983 11.2929C8.13688 13.6829 11.8463 13.6829 14.0002 11.2929C15.7951 9.26137 15.6755 6.03483 13.7609 4.0033Z" transform="translate(75.9841 145.748)" fill="#E59E7D"/>
<path d="M2.63252 5.25807C4.08642 5.25807 5.26504 4.08101 5.26504 2.62903C5.26504 1.17706 4.08642 0 2.63252 0C1.17862 0 0 1.17706 0 2.62903C0 4.08101 1.17862 5.25807 2.63252 5.25807Z" transform="translate(13.1626 94.1831)" fill="#D66833"/>
<path d="M2.63252 5.25807C4.08642 5.25807 5.26504 4.08101 5.26504 2.62903C5.26504 1.17706 4.08642 0 2.63252 0C1.17862 0 0 1.17706 0 2.62903C0 4.08101 1.17862 5.25807 2.63252 5.25807Z" transform="translate(27.0431 92.5103)" fill="#87CDDC"/>
<path d="M2.63252 5.25807C4.08642 5.25807 5.26504 4.08101 5.26504 2.62903C5.26504 1.17706 4.08642 0 2.63252 0C1.17862 0 0 1.17706 0 2.62903C0 4.08101 1.17862 5.25807 2.63252 5.25807Z" transform="translate(20.1029 92.5103)" fill="#F3CD50"/>
<path d="M0 0C0 2.62903 2.63252 4.78006 5.983 4.78006" transform="translate(153.165 137.204)" stroke="white" stroke-miterlimit="10"/>
<path d="M0 0C0 2.62903 2.63252 4.78006 5.983 4.78006" transform="translate(156.755 134.814)" stroke="white" stroke-miterlimit="10"/>
<path d="M0 0C0 2.62903 2.63252 4.78006 5.983 4.78006" transform="translate(160.344 133.619)" stroke="white" stroke-miterlimit="10"/>
<path d="M7.30347e-06 3.22655C2.39321 4.42156 5.50435 2.98754 6.94027 -1.82345e-06" transform="translate(174.225 145.091)" stroke="white" stroke-miterlimit="10"/>
<path d="M7.30347e-06 3.22655C2.39321 4.42156 5.50435 2.98754 6.94027 -1.82345e-06" transform="translate(175.422 147.481)" stroke="white" stroke-miterlimit="10"/>
<path d="M7.30347e-06 3.22655C2.39321 4.42156 5.50435 2.98754 6.94027 -1.82345e-06" transform="translate(173.028 142.701)" stroke="white" stroke-miterlimit="10"/>
<path opacity="0.3" d="M25.7269 13.1452C39.9355 13.1452 51.4538 10.2025 51.4538 6.57258C51.4538 2.94265 39.9355 0 25.7269 0C11.5183 0 0 2.94265 0 6.57258C0 10.2025 11.5183 13.1452 25.7269 13.1452Z" transform="translate(141.199 220.855)" fill="#87847E"/>
<path opacity="0.3" d="M25.7269 13.1452C39.9355 13.1452 51.4538 10.2025 51.4538 6.57258C51.4538 2.94265 39.9355 0 25.7269 0C11.5183 0 0 2.94265 0 6.57258C0 10.2025 11.5183 13.1452 25.7269 13.1452Z" transform="translate(0 200.54)" fill="#87847E"/>
<path opacity="0.2" d="M5.62402 136.71C4.42742 136.71 3.35048 135.754 3.23082 134.439L3.65173e-06 2.39003C3.65173e-06 1.19502 0.957277 0.119502 2.27354 4.55862e-07C3.47014 4.55862e-07 4.54708 0.956012 4.66674 2.27053L7.89756 134.32C7.89756 135.634 6.82062 136.71 5.62402 136.71Z" transform="translate(127.797 55.4646)" fill="#433E36"/>
<path opacity="0.2" d="M64.5885 0.689096C64.8278 1.2866 64.5885 1.88411 63.9902 2.24262L1.64729 29.25C1.04899 29.489 0.450688 29.25 0.0917083 28.6525C-0.147612 28.055 0.0917082 27.4574 0.690008 27.0989L63.0329 0.0915886C63.6312 -0.147414 64.3491 0.0915886 64.5885 0.689096Z" transform="translate(152.475 114.885)" fill="#433E36"/>
<path opacity="0.2" d="M6.43369 0.689091L7.51064 3.19863C7.74996 3.79614 7.51064 4.39364 6.91234 4.75214L2.72424 6.54467C2.12594 6.78367 1.52763 6.54467 1.16865 5.94716L0.091701 3.43763C-0.147619 2.84012 0.091701 2.24261 0.690001 1.88411L4.8781 0.0915831C5.4764 -0.14742 6.19437 0.0915831 6.43369 0.689091Z" transform="translate(169.108 134.364)" fill="#433E36"/>
<path opacity="0.2" d="M11.248 1.07551L11.3677 3.70455C11.3677 4.30205 10.8891 4.89956 10.2908 4.89956L1.31626 5.13857C0.717956 5.13857 0.119656 4.66056 0.119656 4.06305L7.30347e-06 1.43402C7.30347e-06 0.836512 0.47864 0.239005 1.07694 0.239005L10.0514 9.11724e-07C10.6497 9.11724e-07 11.248 0.478004 11.248 1.07551Z" transform="translate(171.832 92.0322)" fill="#433E36"/>
<path opacity="0.2" d="M7.1796 0.158239C5.86334 -0.200265 4.30777 0.0387342 3.11117 0.994747L0 3.26528L7.1796 0.158239Z" transform="translate(160.344 129.756)" fill="#433E36"/>
<path opacity="0.2" d="M4.09732 7.4091C2.6614 8.0066 0.986171 7.6481 0.0288903 6.57259C-0.0907697 7.7676 0.148554 9.08212 0.986174 10.1576C2.54175 12.3087 5.65292 12.7867 7.92646 11.2331L19.8925 2.39003C20.7301 1.79253 21.3284 0.956016 21.6874 3.6469e-06L4.09732 7.4091Z" transform="translate(149.546 136.367)" fill="#433E36"/>
<path opacity="0.1" d="M51.3828 80.2035C31.2799 78.65 16.2027 61.0833 17.6387 41.007L18.4763 30.0129C19.4336 17.5847 26.6132 7.06859 36.6646 1.21302C28.0491 0.854515 19.4336 0.376509 10.6984 0.0180039C2.32218 -0.340501 2.32218 4.67857 7.22824 12.9242C19.0746 32.5224 17.878 57.6177 4.23674 76.021C-1.50694 83.7886 -1.98558 88.8076 6.39062 89.1662C29.2457 90.2417 51.9811 91.3172 74.8362 92.5122C81.8961 92.8707 93.1441 89.6442 99.8451 83.9081L51.3828 80.2035Z" transform="translate(0.908066 88.3096)" fill="#433E36"/>
<path d="M70.5917 61.7823C71.0704 54.7317 71.0703 47.5616 71.0703 40.3915C71.0703 36.8065 70.9507 33.1019 70.831 29.5169C70.7114 26.5293 70.7114 23.5418 70.2327 20.6738C69.7541 18.1642 68.9165 15.6547 67.1216 13.6232C65.3267 11.5916 62.9335 10.3966 60.4206 9.44062C54.3179 6.93109 47.976 5.13857 41.5143 3.58505C35.1723 2.15103 28.8304 1.07551 22.3687 0.478006C19.1379 0.239003 15.7874 0 12.5566 0C10.283 0 7.77019 0.239003 5.73597 1.31452C3.46243 2.50953 2.38549 4.78006 1.66753 7.17009C0.829908 10.2771 0.351264 13.3842 0.111944 16.6107C-0.247036 23.1833 0.351266 29.7559 0.590586 36.3285C0.949566 48.0396 0.710244 59.8703 0.710244 71.5814C0.710244 72.6569 2.26583 72.6569 2.26583 71.5814C2.26583 61.9018 2.50515 52.2222 2.26583 42.423C2.14617 36.8065 1.90685 31.3094 1.78719 25.6928C1.54787 19.4787 1.54787 12.9062 3.46243 6.93109C4.41971 4.06305 6.21461 2.50953 9.08645 1.91202C11.719 1.43402 14.5908 1.67302 17.343 1.79252C23.685 2.15103 29.9073 2.86804 36.1296 4.06305C42.2323 5.25807 48.2153 6.81159 54.0786 8.72361C59.4633 10.5161 65.925 12.3087 67.8395 18.2837C68.7968 21.3908 68.9165 24.6173 69.0361 27.8439C69.1558 31.5484 69.2754 35.253 69.2754 38.9575C69.3951 46.4861 69.2754 54.0147 69.3951 61.5433C69.6344 62.3798 70.5917 62.3798 70.5917 61.7823Z" transform="translate(135.941 45.1875)" fill="#69655E"/>
<path d="M0.00766943 0.559404C0.72563 12.1511 1.68292 23.6232 2.6402 35.2149C3.11884 40.9509 3.47781 46.687 3.95645 52.4231C4.31543 57.2031 4.67441 62.2222 7.06761 66.5242C9.22149 70.4678 13.4096 73.6943 18.0763 73.3358C19.0336 73.2163 19.1533 71.7823 18.0763 71.7823C13.5292 71.9018 9.81979 68.9143 7.90523 64.9707C5.75135 60.4297 5.63169 55.2911 5.27271 50.3915C4.43509 39.8754 3.59747 29.3593 2.87951 18.8431C2.40087 12.8681 1.92224 6.77348 1.4436 0.798403C1.20428 -0.157609 -0.111991 -0.277107 0.00766943 0.559404Z" transform="translate(137.123 128.16)" fill="#69655E"/>
<path d="M11.8164 0.00346438C7.62833 -0.116037 4.03853 2.8715 2.24363 6.57605C-0.0299113 11.2366 0.209405 16.7337 0.089745 21.7527C-0.029915 33.8224 -0.029915 45.8921 0.089745 57.9617C0.329065 82.101 0.927369 106.24 2.24363 130.38C2.60261 136.116 2.36329 142.33 5.23513 147.468C7.38901 151.531 11.6968 154.519 16.4832 153.802C17.4404 153.682 16.9618 152.248 16.1242 152.368C11.0985 153.085 7.03002 148.902 5.5941 144.481C4.03852 139.701 4.15818 134.323 3.91886 129.424C3.32056 118.429 2.84193 107.316 2.48295 96.3217C1.76499 74.3334 1.64533 52.3451 1.64533 30.3569C1.64533 24.3818 1.16668 18.1677 2.12396 12.1926C2.96158 7.05405 6.07275 1.55698 11.8164 1.07898C12.5344 1.19848 12.5344 0.122966 11.8164 0.00346438Z" transform="translate(127.946 44.7061)" fill="#69655E"/>
<path d="M50.4367 0.537759C49.5991 7.58835 49.5991 14.8779 49.2401 22.048C48.8811 28.9791 48.6418 35.9102 48.2828 42.8413C48.0435 47.9799 47.4452 54.0744 43.3768 57.8985C41.1032 60.0495 37.9921 61.0055 34.8809 61.7225C31.5304 62.4395 28.1799 63.0371 24.7098 63.5151C16.8122 64.7101 8.91467 65.3076 0.897447 65.4271C-0.299154 65.4271 -0.299154 67.2196 0.897447 67.2196C8.19671 67.1001 15.496 66.6221 22.7952 65.5466C26.6244 65.0686 30.3338 64.3516 34.0433 63.6346C36.9151 63.0371 39.9066 62.3201 42.4195 60.7665C47.0862 57.779 48.7615 52.5209 49.4794 47.2629C50.317 40.3318 50.317 33.2812 50.5564 26.3501C50.7957 22.048 50.9153 17.746 51.035 13.4439C51.1547 9.14186 51.5136 4.83981 51.394 0.537759C51.5136 -0.17925 50.5564 -0.17925 50.4367 0.537759Z" transform="translate(156.097 134.754)" fill="#69655E"/>
<path d="M26.8338 4.78006C27.6714 2.50953 23.4833 1.67302 22.0474 1.31452C18.9362 0.478006 15.5857 -4.55862e-07 12.3549 -4.55862e-07C7.44883 -4.55862e-07 1.34617 1.19502 0.269233 6.81159C0.0299132 8.24561 0.0299168 9.56012 0.0299168 10.9941C0.0299168 12.6672 -0.089745 14.3402 0.149575 15.8937C0.388895 18.1642 0.987197 20.4348 3.02142 21.7493C5.29496 23.1833 8.52577 23.1833 11.1583 23.0638C13.9105 22.8248 16.7823 22.1078 19.1755 20.7933C24.6799 17.9252 28.3893 11.8307 27.791 5.61657C27.6714 4.42156 25.8765 4.42156 25.9961 5.61657C26.4748 10.1576 24.4406 14.5792 20.9704 17.4472C17.3806 20.4348 12.4746 21.5103 7.92748 21.1518C5.41462 20.9128 3.14108 20.3153 2.42312 17.6862C1.70516 15.5352 1.94448 13.0257 1.94448 10.8746C1.94448 8.48461 1.70516 5.85557 3.50006 4.06305C4.93598 2.50953 7.20951 1.91202 9.36339 1.67302C11.9959 1.31452 14.7481 1.43402 17.3806 1.79252C18.8165 2.03153 20.2525 2.27053 21.6884 2.62903C22.4063 2.86804 25.7568 3.34604 25.8765 4.42156C25.7568 5.25807 26.5944 5.37757 26.8338 4.78006Z" transform="translate(145.237 65.981)" fill="#69655E"/>
<path d="M0.871065 2.05559C2.54631 1.69709 3.98223 1.69709 5.77713 1.93609C6.73441 2.05559 7.21305 0.741075 6.25577 0.382571C4.46087 -0.214937 2.307 -0.0954346 0.512099 0.621575C-0.325521 0.860578 -0.0862157 2.29459 0.871065 2.05559Z" transform="translate(173.713 70.3784)" fill="#69655E"/>
<path d="M0.628219 1.31452C2.1838 1.55352 3.61972 1.67302 5.1753 1.67302C6.13258 1.67302 6.01292 0.358505 5.1753 0.239004C3.61972 0.119502 2.1838 -4.55862e-07 0.628219 -4.55862e-07C-0.209401 0.119501 -0.209401 1.19502 0.628219 1.31452Z" transform="translate(173.836 74.3459)" fill="#69655E"/>
<path d="M0.57253 3.37096C1.64947 3.37096 2.72641 2.89295 3.68369 2.53444C4.76063 2.17594 5.95723 1.81744 7.15383 1.57843C8.11111 1.33943 7.75213 -0.214092 6.67519 0.0249109C5.47859 0.263914 4.16233 0.622418 2.96573 1.10042C2.00845 1.45893 0.811848 1.69793 0.0938882 2.53444C-0.145432 2.77345 0.09389 3.37096 0.57253 3.37096Z" transform="translate(137.395 70.7361)" fill="#69655E"/>
<path d="M0.602022 1.59049C1.79862 1.59049 2.87557 1.8295 3.95251 1.8295C4.90979 1.8295 4.90978 0.634481 4.19182 0.275977C2.99522 -0.20203 1.67896 0.0369734 0.482355 0.275977C-0.235605 0.51498 -0.115938 1.71 0.602022 1.59049Z" transform="translate(201.623 78.8501)" fill="#69655E"/>
<path d="M3.14278 1.08391C6.01462 1.20342 9.00613 1.56192 11.878 2.03993C14.1515 2.51793 17.0233 2.87644 19.0576 4.19095C21.0918 5.62497 20.7328 8.73201 20.6132 10.883C20.4935 12.9146 20.2542 15.1851 19.1772 16.9776C16.3054 21.9967 10.0831 20.2042 6.61291 16.9776C3.26243 13.7511 1.34788 8.97102 1.94618 4.42996C2.06584 3.35444 0.3906 2.75693 0.15128 3.95195C-0.44702 8.25401 0.749576 12.6756 3.3821 16.1411C6.01462 19.4871 9.96339 22.3552 14.3908 21.8772C18.4593 21.3992 20.9721 18.2921 21.6901 14.5876C22.1687 12.5561 22.1687 10.405 22.1687 8.37351C22.1687 6.46148 21.8097 4.54946 20.2542 3.35444C18.2199 1.68142 14.9891 1.32292 12.5959 0.844912C9.48475 0.247404 6.3736 0.00840033 3.14278 0.00840033C2.30516 -0.111101 2.30516 1.08391 3.14278 1.08391Z" transform="translate(179.937 70.8721)" fill="#69655E"/>
<path d="M12.7136 2.52865C12.8332 0.975131 10.9187 -0.458888 9.48275 0.13862C8.76479 0.377623 8.28615 0.975129 7.68785 1.45313C6.49125 2.40915 5.05533 3.24566 3.49975 3.12616C1.94417 3.00666 0.388596 1.93114 0.268936 0.377624C-0.568684 2.64815 0.627923 5.27719 2.7818 6.5917C4.93568 7.90622 7.44855 7.78672 9.72209 6.95021C11.6366 6.1137 13.6709 4.67968 15.7051 5.51619C16.9017 5.99419 17.7393 7.30871 19.0556 7.66722C20.8505 8.14522 22.406 6.71121 23.6026 5.39669C22.406 5.8747 20.9701 5.75519 19.8932 4.91868C19.1752 4.32117 18.6966 3.36516 18.0983 2.52865C17.5 1.69214 16.782 0.855629 15.8247 0.736128C14.8675 0.616626 13.6709 1.33363 13.7905 2.28965" transform="translate(163.904 88.667)" fill="#777777"/>
<path d="M14.2566 3.38712C14.3763 1.23609 12.1028 -0.556436 10.0685 0.160574C8.75227 0.519078 7.91466 1.7141 6.83772 2.4311C5.16248 3.38712 2.4103 3.38712 2.05132 0.997085C1.93166 0.041073 0.495736 0.160575 0.256415 0.997085C-0.461545 3.26761 0.376083 5.77715 2.17098 7.45017C4.2052 9.24269 7.07703 9.7207 9.70955 9.00369C11.1455 8.64518 12.4617 7.80867 13.778 7.33067C15.8122 6.61366 16.6498 7.56967 18.2054 8.64518C20.7183 10.4377 23.2311 8.76468 25.026 6.73316C25.5047 6.13565 25.026 5.06014 24.1884 5.41864C20.5986 6.73316 20.2396 2.1921 17.7268 0.997085C16.0515 0.160575 13.778 1.11659 13.778 3.14811C13.778 4.22363 15.4532 4.22363 15.5729 3.14811C15.5729 1.83359 17.1285 2.5506 17.4875 2.90911C17.8464 3.26761 18.2054 3.74562 18.4447 4.10412C18.9234 4.82113 19.402 5.65765 20.2396 6.25515C21.5559 7.21117 23.1115 7.45017 24.6671 6.85266C24.4277 6.37466 24.1884 5.89665 23.8294 5.53814C22.8722 6.49415 21.5559 7.92817 20.0003 7.56967C18.9234 7.33067 18.2054 6.25515 17.2481 5.65765C15.5729 4.70163 13.778 5.29914 12.1028 6.01615C9.82921 6.97216 7.55568 8.04768 5.04282 7.21117C2.64962 6.37465 1.21369 3.98463 1.93165 1.47509C1.33335 1.47509 0.735048 1.47509 0.136748 1.47509C0.495728 3.86512 3.0086 5.17964 5.4018 4.82113C6.71806 4.58213 7.91465 3.98462 8.87193 3.14811C9.47023 2.67011 10.1882 1.8336 11.0258 1.8336C11.9831 1.8336 12.5814 2.78961 12.8207 3.62612C12.9404 4.46263 14.2566 4.22363 14.2566 3.38712Z" transform="translate(163.079 87.8086)" fill="#69655E"/>
<path d="M0.119909 0.921178C3.35073 6.41825 7.89781 11.4373 12.4449 15.8589C17.2313 20.2804 22.4963 24.1045 28.1204 27.331C29.0776 27.809 29.9153 26.375 28.958 25.897C23.4536 22.79 18.1886 19.0854 13.5218 14.7834C8.73544 10.3618 5.02597 5.46224 1.19685 0.32367C0.718211 -0.393339 -0.358731 0.204169 0.119909 0.921178Z" transform="translate(131.028 114.175)" fill="#69655E"/>
<path d="M0.0421073 0.840495C0.879728 3.11102 3.39259 4.54505 5.78579 4.66455C6.74307 4.78405 7.34138 4.54505 7.93968 5.38156C8.41832 6.09857 8.7773 7.05458 9.13628 7.89109C9.9739 9.68361 10.6919 11.7151 11.8885 13.2687C12.3671 13.9857 13.5637 13.5077 13.3244 12.6711C12.7261 10.8786 11.7688 9.20561 10.9312 7.53259C10.3329 6.33757 9.73458 4.18655 8.65764 3.35003C7.70036 2.63303 6.26443 3.11103 5.18749 2.87203C3.39259 2.51352 2.31566 1.438 1.11906 0.123488C0.640418 -0.235017 -0.197213 0.242987 0.0421073 0.840495Z" transform="translate(197.876 119.872)" fill="#69655E"/>
<path d="M0.624475 29.2188C3.61598 28.2628 6.48781 26.8288 9.35965 25.6338C12.3512 24.3193 15.4623 23.0048 18.4538 21.6902C24.4368 19.0612 30.3002 16.4322 36.2832 13.9226C42.2662 11.2936 48.1295 8.66457 54.1125 6.03554C57.104 4.72102 60.2152 3.048 63.3263 2.09199C64.8819 1.61398 66.6768 1.37498 68.2324 2.09199C69.5486 2.809 70.6256 4.12351 70.3863 5.67703C70.2666 6.63305 71.7025 7.11105 71.8222 6.03554C72.5401 1.97248 68.2324 -0.417546 64.6426 0.0604601C62.2494 0.418965 59.9759 1.61398 57.7023 2.57C55.0698 3.76501 52.4373 4.84052 49.8047 6.03554C39.2747 10.6961 28.6249 15.2372 18.0948 20.0172C15.1033 21.3317 12.1118 22.6463 9.12034 24.0803C6.12884 25.3948 3.01767 26.5898 0.145833 28.2628C-0.213147 28.6213 0.145835 29.4578 0.624475 29.2188Z" transform="translate(148.233 109.419)" fill="#69655E"/>
<path d="M3.65173e-06 22.4001C0.119664 26.4632 4.54708 27.4192 7.77791 26.5827C10.1711 25.8657 12.4446 24.6706 14.7182 23.5951C17.2311 22.5196 19.6242 21.3246 22.1371 20.2491C32.0689 15.8275 42.1203 11.645 52.1718 7.82093C57.9154 5.6699 63.6591 3.51886 69.4028 1.60684C70.3601 1.24834 70.0011 -0.305184 68.9242 0.0533209C57.1975 4.11637 45.5905 8.65743 34.2228 13.4375C28.5987 15.8275 23.0944 18.2176 17.4704 20.7271C14.7182 21.9221 12.0857 23.2366 9.33349 24.4316C6.82063 25.5071 1.55558 26.5827 1.07694 22.4001C1.07694 21.5636 3.65173e-06 21.5636 3.65173e-06 22.4001Z" transform="translate(148.139 117.194)" fill="#69655E"/>
<path d="M0.0380951 3.81204C0.636395 5.60456 1.59367 7.27759 2.31163 8.95061C3.14925 10.7431 3.86722 12.5356 4.8245 14.2087C6.0211 16.3597 8.53395 18.1522 11.0468 16.9572C13.6793 15.7622 13.2007 12.0576 12.722 9.78711C12.0041 6.32157 10.0895 3.09503 7.93565 0.346492C7.33735 -0.490018 6.0211 0.346498 6.6194 1.18301C8.05532 3.21453 9.49123 5.48506 10.3288 7.87509C10.9271 9.54811 12.4827 14.4477 10.2092 15.5232C7.57668 16.7182 5.90143 13.0137 5.06381 11.2211C3.74755 8.5921 2.6706 5.72406 0.995361 3.33403C0.756041 2.73652 -0.201225 3.09503 0.0380951 3.81204Z" transform="translate(169.401 135.184)" fill="#69655E"/>
<path d="M5.40289 0.0358386C2.77037 -0.322666 0.257512 2.06736 0.0181922 4.57689C-0.221128 7.32543 1.93276 10.074 4.56528 10.552C7.31746 11.03 10.5483 9.23746 11.6252 6.60842C12.5825 4.21839 11.2662 1.11135 8.63371 0.752846C7.67643 0.633344 7.1978 2.06737 8.15508 2.30637C10.309 2.78438 10.7876 5.1744 9.71066 6.84742C8.63372 8.40094 6.24051 9.47646 4.44561 8.87895C2.53105 8.28145 1.2148 6.24992 1.57378 4.33789C1.93276 2.30637 3.72766 1.23085 5.52256 0.752846C6.0012 0.752846 5.76187 0.15534 5.40289 0.0358386Z" transform="translate(170.138 183.056)" fill="#C6C0B6"/>
<path d="M0.53847 1.91202C7.47875 1.79252 14.2994 1.31451 21.2397 1.43401C28.1799 1.43401 35.0006 2.03153 41.9409 2.15103C42.8981 2.15103 42.7785 0.836509 41.9409 0.717007C35.1202 -1.85194e-06 28.0603 0 21.2397 0C14.419 0 7.35909 -1.85194e-06 0.53847 0.717007C-0.17949 0.717007 -0.17949 1.91202 0.53847 1.91202Z" transform="translate(152.028 177.834)" fill="#C6C0B6"/>
<path d="M2.8553 0.319906C1.89802 1.75392 0.940734 3.18794 0.103114 4.74146C-0.375527 5.57797 0.940741 6.41449 1.41938 5.57798C2.37666 4.14396 3.21428 2.59043 4.0519 1.03691C4.41088 0.200403 3.33394 -0.397103 2.8553 0.319906Z" transform="translate(156.293 104.021)" fill="#69655E"/>
<path d="M0.658134 1.44109C2.21371 1.68009 3.76929 1.91909 5.32487 2.3971C6.28215 2.6361 6.7608 1.20208 5.80352 0.843579C4.12828 0.365572 2.45303 0.00706686 0.777792 0.00706686C-0.299148 -0.112435 -0.179486 1.32158 0.658134 1.44109Z" transform="translate(152.267 108.516)" fill="#69655E"/>
<path d="M0.0791928 1.04207C0.916813 2.47609 1.99376 3.79061 3.19036 4.86612C3.90832 5.58313 4.98525 4.38811 4.26729 3.7906C3.07069 2.71509 1.99376 1.52007 1.03648 0.205557C0.677497 -0.39195 -0.279787 0.444561 0.0791928 1.04207Z" transform="translate(151.889 108.915)" fill="#69655E"/>
<path d="M1.92379 0.274586C1.56481 1.1111 1.20583 1.82811 0.846848 2.66462C0.487868 3.50113 0.128891 4.21813 0.00923128 5.17415C-0.110429 5.89116 0.96651 6.01066 1.32549 5.53265C1.80413 4.93514 2.04345 3.97913 2.28277 3.26212C2.64175 2.42561 2.88107 1.5891 3.12039 0.752589C3.35971 0.155082 2.28277 -0.322922 1.92379 0.274586Z" transform="translate(151.839 112.67)" fill="#69655E"/>
<path d="M0.363829 3.4568C1.20145 3.5763 1.79975 2.97879 2.51771 2.62028C3.35533 2.14228 4.07329 1.78378 4.91091 1.30577C5.74853 0.827763 5.03057 -0.367252 4.19295 0.110754C3.47499 0.58876 2.63737 0.947263 1.91941 1.42527C1.32111 1.78377 0.483492 2.14228 0.124512 2.85929C-0.114808 3.21779 0.00484843 3.4568 0.363829 3.4568Z" transform="translate(153.399 115.224)" fill="#69655E"/>
<path d="M0.125328 0.923958C0.843289 1.64097 1.4416 2.35798 2.15956 3.07499C2.87752 3.6725 3.47581 4.38951 4.31343 4.86751C5.03139 5.34552 5.6297 4.3895 5.15106 3.792C4.55276 3.07499 3.71514 2.47748 2.99718 1.76047C2.27922 1.16296 1.56125 0.565457 0.723629 0.0874511C0.244988 -0.271053 -0.233652 0.565454 0.125328 0.923958Z" transform="translate(157.706 115.487)" fill="#69655E"/>
<path d="M0.110907 1.08989C0.469887 1.8069 0.828853 2.52391 1.06817 3.36042C1.30749 4.07743 1.3075 4.79444 1.78614 5.27245C2.14512 5.63095 2.62376 5.39195 2.74342 5.03344C2.98274 4.31643 2.62376 3.36042 2.38444 2.64341C2.14512 1.8069 1.78615 1.08989 1.30751 0.372879C0.828867 -0.463632 -0.367733 0.25338 0.110907 1.08989Z" transform="translate(160.952 114.484)" fill="#69655E"/>
<path d="M0.885463 4.89082C1.9624 3.4568 3.15901 2.38128 4.59493 1.30577C5.31289 0.827764 4.71458 -0.367251 3.87696 0.110755C2.32138 1.06677 0.885467 2.62028 0.0478464 4.1738C-0.191474 4.77131 0.526483 5.36882 0.885463 4.89082Z" transform="translate(161.493 110.683)" fill="#69655E"/>
<path d="M0.433505 1.21766C1.63011 1.45666 2.70704 1.81517 3.90364 2.29317C4.74126 2.65168 4.98058 1.45667 4.50194 0.97866C3.425 0.26165 1.98908 -0.0968578 0.672822 0.0226438C-0.0451386 0.0226438 -0.284455 1.09816 0.433505 1.21766Z" transform="translate(160.27 109.815)" fill="#69655E"/>
<path d="M0.0102994 0.671931C0.249619 2.10595 0.488943 3.53997 0.967583 4.85448C1.32656 5.691 2.52316 5.33249 2.4035 4.49598C2.16418 3.06196 1.68555 1.74744 1.08725 0.432927C0.847931 -0.284082 -0.109361 -0.0450779 0.0102994 0.671931Z" transform="translate(159.975 105.7)" fill="#69655E"/>
<path d="M3.21428 -1.82345e-06C1.77836 0.239001 0.701419 1.19501 0.103119 2.39003C-0.375521 3.22654 0.940737 4.06305 1.41938 3.10704C1.89802 2.15103 2.73563 1.43402 3.69291 0.956014C4.41087 0.836513 3.81258 -1.82345e-06 3.21428 -1.82345e-06Z" transform="translate(152.942 104.46)" fill="#69655E"/>
<path d="M0.0132002 0.390289C-0.10646 1.3463 0.6115 2.54132 1.2098 3.25833C1.68844 3.85584 3.0047 3.49733 2.64572 2.66082C2.28674 1.70481 1.68843 0.509791 0.731149 0.0317849C0.372169 -0.0877167 0.13286 0.151285 0.0132002 0.390289Z" transform="translate(162.844 105.863)" fill="#69655E"/>
<path d="M0.211088 0.470802C-0.267552 1.54632 0.091424 2.98033 1.0487 3.81684C1.76666 4.41435 2.72395 3.45834 2.12565 2.74133C1.64701 2.14382 1.40769 1.42682 1.52735 0.709806C1.64701 -0.126705 0.450408 -0.246207 0.211088 0.470802Z" transform="translate(149.843 111.638)" fill="#69655E"/>
<path d="M0.195367 1.11757C1.15265 1.83458 2.4689 2.19309 3.6655 1.71508C4.38346 1.47608 3.90482 0.400564 3.30652 0.400564C2.82788 0.400564 2.46891 0.520066 1.99027 0.400564C1.63129 0.281063 1.15265 0.161562 0.793667 0.0420607C0.195367 -0.196942 -0.283273 0.639566 0.195367 1.11757Z" transform="translate(155.722 119.117)" fill="#69655E"/>
<path d="M1.28278 0.601226C1.28278 1.55724 0.923787 2.15474 0.205826 2.75225C-0.392474 3.23026 0.445143 4.30577 1.04344 3.82777C2.24004 3.11076 2.71869 1.67674 2.35971 0.481722C2.35971 -0.235288 1.28278 -0.115783 1.28278 0.601226Z" transform="translate(164.566 113.539)" fill="#69655E"/>
<g opacity="0.4">
<g opacity="0.4">
<path opacity="0.4" d="M5.8948 0.157637C3.38194 2.42817 1.22807 5.53521 0.0314682 8.64225C-0.207852 9.35926 0.988748 9.83726 1.22807 9.12025C2.78365 6.13271 4.33923 3.38418 6.61277 0.874647C7.09141 0.396641 6.37344 -0.320369 5.8948 0.157637Z" transform="translate(151.937 72.8738)" fill="#54868E"/>
</g>
</g>
<g opacity="0.4">
<g opacity="0.4">
<path opacity="0.4" d="M4.17935 0.175735C2.74343 2.08776 1.3075 4.11929 0.110896 6.15081C-0.367744 6.86782 0.828856 7.58483 1.3075 6.86782C2.62376 4.8363 3.82036 2.92427 5.01696 0.773243C5.13662 0.295236 4.53833 -0.302271 4.17935 0.175735Z" transform="translate(156.285 75.6042)" fill="#54868E"/>
</g>
</g>
<g opacity="0.4">
<g opacity="0.4">
<path opacity="0.4" d="M3.18309 0.274586C1.98649 1.94761 0.909541 3.62063 0.0719208 5.41315C-0.287059 6.13016 0.789881 6.84717 1.26852 6.13016C2.34546 4.45714 3.30275 2.54511 4.14037 0.752592C4.37969 0.155084 3.54207 -0.322922 3.18309 0.274586Z" transform="translate(187.675 78.6123)" fill="#54868E"/>
</g>
</g>
<g opacity="0.4">
<g opacity="0.4">
<path opacity="0.4" d="M2.39319 0.221506C1.31625 1.77503 0.119653 3.80655 -7.30347e-06 5.71857C-7.30347e-06 6.31608 0.957273 6.55509 1.19659 6.07708C1.55557 5.24057 1.79491 4.40406 2.03423 3.56755C2.39321 2.61154 2.75219 1.65552 3.23083 0.699512C3.47015 0.102004 2.75217 -0.2565 2.39319 0.221506Z" transform="translate(191.935 80.219)" fill="#54868E"/>
</g>
</g>
<path d="M0.269231 0.497028C1.34617 0.61653 2.1838 1.09454 3.14108 1.69204C3.50006 1.93105 3.85903 1.45304 3.50005 1.21404C2.66243 0.377525 1.46583 0.0190205 0.269231 0.0190205C-0.0897487 -0.100481 -0.0897487 0.377527 0.269231 0.497028Z" transform="translate(214.76 123.323)" fill="#87CDDC"/>
<path d="M0.0789235 0.437325C0.557564 0.915332 1.0362 1.51283 1.51484 1.99084C1.87382 2.22984 2.23281 1.87135 1.99349 1.51284C1.51485 1.03483 1.03621 0.556823 0.437907 0.0788172C0.198587 -0.160186 -0.160397 0.198322 0.0789235 0.437325Z" transform="translate(214.711 127.087)" fill="#87CDDC"/>
<path d="M0.177466 0.597511C0.536228 0.717013 0.775413 1.07551 0.655826 1.43402C0.655826 1.91202 1.25375 1.91202 1.37334 1.43402C1.49293 0.717009 1.01457 0.239007 0.416637 3.6469e-06C0.0578754 3.6469e-06 -0.181295 0.47801 0.177466 0.597511Z" transform="translate(213.655 132.185)" fill="#87CDDC"/>
<path d="M0.0318316 0.338C3.26265 3.80355 6.25414 7.26909 9.12598 11.0931C9.3653 11.3321 9.72429 11.0931 9.60463 10.8541C6.97211 7.03009 3.86096 3.32554 0.390815 0.0989965C0.151495 -0.140007 -0.0878284 0.0989974 0.0318316 0.338Z" transform="translate(199.561 95.3987)" fill="#87CDDC"/>
<path d="M0.0805074 0.437323C1.99507 2.82735 3.43098 5.45639 4.50792 8.20492C4.62758 8.44393 5.10622 8.32443 4.98656 8.08542C3.78996 5.21739 2.35404 2.58835 0.319824 0.078819C0.200164 -0.160184 -0.158813 0.19832 0.0805074 0.437323Z" transform="translate(198.316 100.677)" fill="#87CDDC"/>
<path d="M0.0326124 0.382557C1.22921 1.81658 1.94718 3.3701 2.54548 5.16262C2.66514 5.40162 3.02411 5.28212 3.02411 5.04311C2.54547 3.25059 1.46853 1.57757 0.271929 0.0240533C0.152269 -0.0954482 -0.0870476 0.263056 0.0326124 0.382557Z" transform="translate(196.808 104.795)" fill="#87CDDC"/>
<path d="M1.02068 0.64318C0.781355 3.51122 0.542046 6.25976 0.302726 9.1278C0.0634058 11.5178 -0.175922 13.9079 0.183059 16.1784C0.661699 19.7634 3.17455 23.707 7.24299 23.5875C8.20027 23.5875 8.20027 22.1535 7.24299 22.034C2.81557 21.556 1.61898 16.8954 1.61898 13.0714C1.73864 8.8888 2.21727 4.70624 2.45659 0.523689C2.45659 -0.19332 1.14034 -0.193331 1.02068 0.64318Z" transform="translate(158.965 202.525)" fill="#69655E"/>
<path d="M0.189589 0.464312C0.428909 3.33235 0.428909 6.08089 0.189589 8.94893C0.0699291 11.339 -0.169391 13.729 0.189589 16.119C0.668229 19.5846 2.5828 24.1256 6.41192 25.2011C7.24955 25.4401 7.60853 24.3646 7.01023 23.8866C5.21532 22.8111 3.89905 21.7356 2.94177 19.8236C2.10415 18.031 1.62552 16.119 1.50586 14.207C1.26654 9.66593 2.5828 4.76638 1.02722 0.344822C1.02722 -0.133185 0.189589 -0.133195 0.189589 0.464312Z" transform="translate(176.788 200.912)" fill="#69655E"/>
<path d="M0.236771 1.36907C1.79235 3.16159 3.58725 4.83461 5.26249 6.50763C6.33943 7.58314 7.53603 8.53915 9.21127 8.41965C12.4421 8.06115 15.5533 4.2371 16.0319 1.24956C16.1516 0.532549 15.0746 -0.0649583 14.7156 0.652051C14.1173 1.84707 13.6387 3.04208 12.8011 4.1176C11.8438 5.19311 10.4079 6.74663 8.85229 6.62713C7.29671 6.50763 6.10011 4.83461 5.02317 3.7591C3.82657 2.56408 2.62997 1.36907 1.31371 0.174052C0.595753 -0.423456 -0.48119 0.652058 0.236771 1.36907Z" transform="translate(44.0374 132.608)" fill="#69655E"/>
<path d="M1.02764 4.10056C1.02764 2.54704 2.46356 0.874011 4.1388 1.47152C5.45506 1.94952 5.93371 3.50305 5.45506 4.69807C5.09608 5.65408 6.65166 6.01258 6.89098 5.05656C7.7286 2.90554 6.29268 0.396009 4.01914 0.0375041C1.62594 -0.321001 -0.408276 1.94953 0.0703638 4.33956C0.190024 4.81756 1.02764 4.69807 1.02764 4.10056Z" transform="translate(49.4689 126.889)" fill="#69655E"/>
<path d="M0.628217 1.64314C2.30346 1.76265 4.21802 1.88215 5.89326 1.64314C6.85054 1.52364 6.85054 0.209131 5.89326 0.0896298C4.21802 -0.0298717 2.30346 -0.0298717 0.628217 0.0896298C-0.209403 0.209131 -0.209403 1.52364 0.628217 1.64314Z" transform="translate(49.5093 130.9)" fill="#69655E"/>
<path d="M3.23082 1.21245C5.3847 1.57096 5.86334 5.15601 3.23082 5.03651C2.27354 5.03651 1.55558 4.31949 1.67524 3.36348C1.7949 2.28797 2.51286 1.92947 3.35048 1.45146C4.06844 0.973453 3.70946 0.136937 2.9915 0.0174353C1.1966 -0.221568 -3.65173e-06 2.04896 -3.65173e-06 3.60248C-3.65173e-06 5.395 1.55558 6.70952 3.35048 6.70952C5.14538 6.70952 6.70097 5.39501 6.70097 3.48298C6.70097 1.69046 5.14538 0.136942 3.35048 0.256444C2.87184 0.256444 2.75218 1.09295 3.23082 1.21245Z" transform="translate(88.1895 127.746)" fill="#69655E"/>
<path d="M1.00482 7.19894C2.20142 6.00392 3.1587 4.9284 4.47496 3.85289C5.79122 2.89688 7.22714 2.17987 8.66306 1.46286C9.38102 1.10436 8.90238 -0.210162 8.06476 0.0288406C4.9536 0.984853 1.60311 3.49438 0.0475343 6.36242C-0.191786 7.07943 0.526178 7.67694 1.00482 7.19894Z" transform="translate(45.543 114.231)" fill="#69655E"/>
<path d="M0.300473 1.26685C1.13809 1.74486 1.97571 2.34236 2.69367 2.93987C3.41163 3.53738 4.00994 4.25438 4.7279 4.73239C5.3262 5.0909 6.04415 4.37389 5.68517 3.77638C5.20653 2.93987 4.24926 2.22286 3.5313 1.62535C2.69368 1.02785 1.85605 0.430338 0.898773 0.0718338C0.300473 -0.286671 -0.417488 0.788843 0.300473 1.26685Z" transform="translate(92.0771 117.056)" fill="#69655E"/>
<path d="M0.27495 7.51935C8.41183 11.7019 18.4633 6.20484 24.9249 1.42477C25.6429 0.827266 25.0446 -0.367747 24.207 0.110259C20.4975 2.26129 17.147 4.89032 13.0786 6.32434C9.01013 7.75835 4.94169 7.87785 0.753588 6.56333C0.155287 6.20483 -0.32335 7.16085 0.27495 7.51935Z" transform="translate(63.3842 142.83)" fill="#69655E"/>
<path d="M0.0544812 5.49707C0.892101 6.93109 2.08871 8.1261 3.16565 9.44062C4.24259 10.5161 5.19987 11.7111 6.39647 12.5477C8.55035 13.9817 11.1829 13.9817 12.9778 12.0697C14.7727 10.1576 15.1316 7.6481 14.1744 5.25807C13.4564 3.22654 11.3025 0.119498 8.90933 -3.6469e-06C8.19136 -3.6469e-06 8.07171 1.07551 8.78967 1.19501C10.8239 1.67302 12.6188 4.30206 13.2171 6.21408C13.8154 8.24561 13.2171 10.6356 11.1829 11.7112C9.02899 12.9062 6.99476 11.3526 5.43918 9.79913C3.8836 8.12611 2.56735 6.33359 0.892107 4.89957C0.413467 4.54106 -0.184839 5.01907 0.0544812 5.49707Z" transform="translate(77.3656 145.808)" fill="#69655E"/>
<path d="M0.346564 0.879006C2.0218 1.47651 3.45773 2.31302 4.41501 3.86654C4.89365 4.46405 5.97058 3.86654 5.49194 3.26904C4.415 1.59601 2.6201 0.281492 0.58588 0.0424893C-0.0124199 -0.196514 -0.251736 0.640002 0.346564 0.879006Z" transform="translate(82.0992 148.633)" fill="#69655E"/>
<path d="M1.31626 0.0962079C0.598304 1.05222 -3.65173e-06 2.12773 -3.65173e-06 3.32275C-3.65173e-06 3.80075 0.598304 3.80075 0.717964 3.32275C0.837624 2.24723 1.1966 1.29122 1.7949 0.454707C1.91456 0.0962024 1.43592 -0.142795 1.31626 0.0962079Z" transform="translate(82.2065 160.888)" fill="#87CDDC"/>
<path d="M0.0157282 0.36335C0.135315 1.31936 0.374488 2.39488 0.73325 3.35089C0.852837 3.70939 1.45077 3.70939 1.45077 3.23138C1.33118 2.15587 0.972426 1.19986 0.613664 0.124342C0.494077 -0.114661 -0.103859 0.00484564 0.0157282 0.36335Z" transform="translate(87.0968 162.294)" fill="#87CDDC"/>
<path d="M0.0789254 0.616368C0.557565 0.974873 1.0362 1.45288 1.6345 1.81138C1.99348 2.05039 2.35246 1.57238 1.99348 1.21388C1.51484 0.73587 0.91654 0.496867 0.4379 0.0188607C0.19858 -0.100641 -0.160395 0.377365 0.0789254 0.616368Z" transform="translate(93.1362 160.727)" fill="#87CDDC"/>
<path d="M0.336409 0.746826C1.29369 0.627324 2.01165 0.985832 2.84927 1.10533C3.20825 1.22484 3.44757 0.746829 3.08859 0.507826C2.25097 -0.0896816 1.17403 -0.0896852 0.216751 0.149318C-0.142229 0.149318 -0.0225711 0.746826 0.336409 0.746826Z" transform="translate(94.3147 156.175)" fill="#87CDDC"/>
<path d="M0.124507 0.526438C1.20145 1.00444 2.27839 1.00444 3.35533 0.645938C3.71431 0.526436 3.59465 -0.190573 3.23567 0.0484302C2.27839 0.406935 1.32111 0.406942 0.363832 0.167939C0.00485206 -0.0710641 -0.114813 0.406937 0.124507 0.526438Z" transform="translate(95.1249 151.734)" fill="#87CDDC"/>
<path d="M5.87825 0.868153C9.70737 10.6673 11.9809 20.7054 12.3399 31.102C12.5792 41.3792 11.0236 51.6563 7.67315 61.4554C5.75859 67.072 3.12607 72.4496 0.134567 77.4686C-0.463733 78.4246 1.09185 79.3807 1.69015 78.4247C12.6989 60.3799 16.4083 38.1526 12.4595 17.3594C11.3826 11.5038 9.58771 5.76772 7.19451 0.270645C6.71587 -0.326863 5.51927 0.151143 5.87825 0.868153Z" transform="translate(1.18098 92.1201)" fill="#69655E"/>
<path d="M0.193625 69.4391C7.85187 76.4897 19.6982 76.0117 29.3907 76.6092C41.8353 77.4457 54.28 78.5212 66.6049 78.8797C76.8957 79.2383 87.5454 77.9237 95.3234 70.6341C99.2721 66.9296 102.503 62.3885 105.255 57.6085C108.007 52.8284 109.802 47.6898 110.281 42.0733C110.879 35.2617 109.922 28.3306 108.965 21.519C108.007 14.4684 106.571 7.41783 104.657 0.606245C104.418 -0.469269 102.742 0.00873468 102.982 1.08425C105.853 12.5564 108.127 24.387 108.606 36.2177C108.845 42.0733 108.007 47.8094 105.614 53.1869C103.46 57.967 100.469 62.508 96.9986 66.4516C93.6481 70.3951 89.46 73.5022 84.5539 75.1752C79.6479 76.8482 74.5025 77.2067 69.3571 77.2067C63.8528 77.2067 58.4681 76.7287 52.9637 76.3702C46.9807 76.0117 40.9977 75.6532 35.0147 75.2947C28.7924 74.9362 22.4504 74.6972 16.2281 73.9802C10.7237 73.3827 5.09969 72.0682 0.791925 68.3636C0.552605 68.0051 -0.404675 68.8416 0.193625 69.4391Z" transform="translate(2.31921 103.615)" fill="#69655E"/>
<path d="M0.833796 5.02198C12.7998 0.480918 25.6034 0.958922 37.9284 3.34895C44.39 4.54397 50.732 6.09749 57.074 7.53151C63.2963 8.96552 69.399 10.041 75.6213 11.1166C78.9718 11.7141 82.3223 12.4311 85.6728 13.2676C89.1429 14.2236 92.4934 15.4186 95.9635 16.6136C96.8011 16.8526 97.2798 15.6576 96.5618 15.2991C90.9378 12.5506 84.4761 11.2361 78.2538 10.041C71.9118 8.84602 65.4502 7.77051 59.2279 6.33649C46.4243 3.46845 33.501 -0.116591 20.3384 0.0029109C13.5178 0.122412 6.57748 1.19793 0.355156 3.82696C-0.362804 4.18547 0.115836 5.26098 0.833796 5.02198Z" transform="translate(8.73904 87.2493)" fill="#69655E"/>
<g opacity="0.4">
<g opacity="0.4">
<path opacity="0.4" d="M3.7357 0.726226C2.06046 0.128719 0.385219 1.44324 0.026239 3.11626C-0.213081 4.78928 1.22284 6.1038 2.77842 6.3428C4.45366 6.4623 5.88958 5.38679 6.1289 3.71376C6.36822 2.16024 5.29128 0.128721 3.49638 0.00921905C2.77842 -0.110282 2.5391 0.96523 3.1374 1.32373C3.97502 1.80174 4.57332 2.39925 4.57332 3.35526C4.57332 4.19177 3.97502 4.90878 3.1374 4.90878C2.29978 5.02828 1.3425 4.55028 1.3425 3.71376C1.22284 2.63825 2.41944 1.68224 3.37672 1.80174C4.09468 1.92124 4.334 0.965229 3.7357 0.726226Z" transform="translate(12.6577 92.8594)" fill="#69655E"/>
</g>
</g>
<g opacity="0.4">
<g opacity="0.4">
<path opacity="0.4" d="M4.23843 1.23289C3.04183 0.157381 1.24693 0.635387 0.409311 1.8304C-0.547969 3.26442 0.289651 4.93745 1.72557 5.53495C3.28115 6.13246 4.95639 5.53495 5.55469 3.98143C6.03333 2.54742 5.43503 0.515886 3.87945 0.0378796C3.28115 -0.201123 2.68285 0.754891 3.28115 1.1134C3.87945 1.7109 4.47775 2.30841 4.23843 3.26442C4.11877 4.10093 3.28115 4.57894 2.44353 4.33994C1.72557 4.10093 1.00761 3.38393 1.36659 2.54741C1.72557 1.83041 2.80251 1.3524 3.64013 1.8304C4.11877 2.18891 4.59741 1.5914 4.23843 1.23289Z" transform="translate(19.6936 92.4724)" fill="#69655E"/>
</g>
</g>
<g opacity="0.4">
<g opacity="0.4">
<path opacity="0.4" d="M3.68553 1.55352C3.68553 0.836509 3.20689 0.358505 2.60859 0.239003C1.89063 0 1.05301 0.358503 0.574368 0.95601C-0.382913 2.15103 -0.143592 4.18256 1.29233 4.89956C2.60859 5.61657 4.64281 4.89956 5.12145 3.46555C5.60009 1.91203 4.40349 -9.11724e-07 2.72825 -9.11724e-07C2.01029 -9.11724e-07 1.77097 1.19502 2.48893 1.31452C3.20689 1.43402 3.80519 1.91202 3.80519 2.74853C3.68553 3.34604 3.08723 3.70455 2.48893 3.70455C1.77097 3.58505 1.53165 2.98754 1.53165 2.39003C1.53165 2.15103 1.65131 1.79252 1.89063 1.67302C2.01029 1.55352 2.72825 1.31452 2.84791 1.67302C2.96757 2.15103 3.68553 2.15103 3.68553 1.55352Z" transform="translate(26.8278 92.7493)" fill="#69655E"/>
</g>
</g>
<path d="M0.464931 3.14812C6.20861 2.78961 11.9523 1.95311 17.8156 1.7141C23.5593 1.4751 29.4227 1.3556 35.1663 1.4751C46.7734 1.7141 58.3804 2.90912 69.8677 4.82114C76.3294 6.01616 82.791 7.45017 89.133 9.00369C89.851 9.2427 90.21 8.04768 89.492 7.80868C78.3636 4.58214 66.6369 2.67011 55.1496 1.35559C43.4229 0.0410767 31.5765 -0.317425 19.8499 0.280083C13.3882 0.638587 6.68725 0.758089 0.345272 2.07261C-0.133368 2.31161 -0.133369 3.14812 0.464931 3.14812Z" transform="translate(14.3729 106.092)" fill="#C6C0B6"/>
<path d="M0.50022 9.73026C3.97036 9.61076 7.4405 9.13276 10.9106 8.65475C12.5859 8.53525 14.1415 8.29625 15.8167 8.17675C16.8936 8.05724 18.0902 7.93774 19.0475 7.22073C19.8851 6.50372 20.2441 5.42821 20.9621 4.5917C21.7997 3.39668 23.116 2.67967 24.5519 2.32117C26.9451 1.60416 29.5776 1.60416 32.0905 1.60416C35.4409 1.60416 38.7914 1.84317 41.6633 3.63569C44.0565 5.06971 46.0907 6.86223 48.8429 7.81824C51.7147 8.77425 54.9455 9.25226 57.937 9.73026C61.4072 10.4473 64.7577 11.0448 68.2278 11.7618C75.886 13.3153 83.5443 14.7493 91.0829 16.1833C91.9205 16.3029 92.2795 14.9883 91.4418 14.8688C84.6212 13.5543 77.8006 12.1203 70.98 10.8058C64.3987 9.49126 57.5781 8.53525 50.9968 6.86223C47.7659 6.02572 45.4924 4.23319 42.7402 2.56017C40.347 1.00665 37.5948 0.409145 34.723 0.170142C30.2956 -0.068861 24.0732 -0.546866 20.6031 2.79918C19.5262 3.75519 19.1672 5.54771 17.8509 6.26472C16.2953 7.22073 13.5432 6.98173 11.7483 7.22073C7.91914 7.69874 4.09002 7.93774 0.260899 8.53525C-0.217741 8.77425 0.0215799 9.73026 0.50022 9.73026Z" transform="translate(12.782 93.7742)" fill="#C6C0B6"/>
<path d="M0.110402 1.014C2.5036 4.71855 4.77714 8.6621 7.40966 12.2471C9.56354 15.2347 12.1961 17.3857 15.9055 17.8637C19.615 18.3417 23.4441 17.2662 26.9142 15.9517C30.7434 14.5177 34.9315 12.7252 38.282 10.3351C39.1196 9.73762 38.4016 8.4231 37.4443 8.9011C31.222 12.2471 24.0424 16.7882 16.6235 16.1907C12.6747 15.8322 10.1618 13.4422 8.12762 10.3351C5.85408 6.98908 3.7002 3.64304 1.42666 0.296995C0.828361 -0.420014 -0.368238 0.296993 0.110402 1.014Z" transform="translate(14.6078 132.724)" fill="#69655E"/>
<path d="M1.20816 28.2183C3.96035 23.6773 6.71253 18.8972 8.86641 13.9976C9.82369 11.8466 10.6613 9.69557 11.2596 7.54455C11.7382 5.51302 12.4562 2.64499 11.7382 0.493959C11.4989 -0.103549 10.5416 -0.22305 10.3023 0.493959C10.063 1.56947 10.1827 2.64499 10.063 3.7205C9.94335 4.91552 9.70403 6.11053 9.46471 7.30555C8.86641 9.69558 7.90912 11.9661 6.83218 14.2366C4.6783 18.7777 2.16544 23.0797 0.011564 27.6208C-0.108096 28.3378 0.729524 28.8158 1.20816 28.2183Z" transform="translate(111.153 102.891)" fill="#69655E"/>
<path d="M14.5985 0.267685C12.8036 2.77722 11.4874 5.52575 9.81212 8.03528C8.13688 10.6643 6.46164 13.1739 4.7864 15.6834C3.94878 16.8784 2.9915 18.1929 2.15388 19.3879C1.43592 20.3439 -4.56467e-07 21.539 -4.56467e-07 22.734C-4.56467e-07 23.69 0.837621 24.2875 1.55558 24.7655C2.63252 25.602 3.5898 26.558 4.7864 27.275C5.50436 27.753 6.34198 26.6775 5.74368 26.08C4.7864 25.2435 3.82912 24.407 2.75218 23.5705C1.91456 22.8535 1.67524 22.8535 2.27354 21.8975C2.51286 21.4195 2.9915 20.9415 3.35048 20.4634C4.90606 18.3124 6.46164 16.1614 7.89756 13.8909C10.6497 9.58881 13.7609 5.16725 15.6755 0.387185C15.6755 0.0286804 14.8378 -0.210321 14.5985 0.267685Z" transform="translate(24.4107 181.032)" fill="#69655E"/>
<path d="M15.5869 0.173699C11.6382 4.59526 8.40733 9.73382 4.81753 14.5139C3.97991 15.7089 3.14229 16.7844 2.30467 17.9794C1.58671 18.9355 0.270449 20.1305 0.0311289 21.3255C-0.0885311 22.0425 0.150786 22.5205 0.509766 22.9985C1.34739 23.9545 2.66365 24.791 3.74059 25.508C4.45855 25.986 5.29617 24.9105 4.69787 24.313C4.21923 23.9545 3.74059 23.596 3.26195 23.2375C2.90297 22.879 1.94569 22.5205 1.70637 22.0425C1.22773 21.3255 2.54399 20.1305 3.02263 19.5329C4.57821 17.5014 6.01413 15.3504 7.56971 13.3189C10.5612 9.25582 13.9117 5.19277 16.4245 0.890716C16.7835 0.293208 16.0656 -0.304307 15.5869 0.173699Z" transform="translate(41.1319 182.082)" fill="#69655E"/>
<path d="M0.304702 0.73039C4.01416 1.6864 7.72363 2.52291 11.4331 3.71793C12.151 3.95693 12.3904 2.88142 11.7921 2.64242C8.20227 1.3279 4.25349 0.132882 0.424369 0.0133808C-0.0542708 -0.106121 -0.173938 0.610889 0.304702 0.73039Z" transform="translate(169.014 54.6147)" fill="#C6C0B6"/>
</svg>
